<?xml version="1.0" encoding="utf-8"?>
<!-- Generator: Adobe Illustrator 27.0.0, SVG Export Plug-In . SVG Version: 6.00 Build 0)  -->
<svg version="1.1" id="Capa_1" xmlns="http://www.w3.org/2000/svg" xmlns:xlink="http://www.w3.org/1999/xlink" x="0px" y="0px"
	 viewBox="0 0 90.9 25.7" style="enable-background:new 0 0 90.9 25.7;" xml:space="preserve">
<style type="text/css">
	.st0{fill-rule:evenodd;clip-rule:evenodd;fill:#FFFFFF;}
	.st1{fill:#FFFFFF;}
</style>
<g>
	<path class="st0" d="M25.3,14.9v-3.2c0.8,0,1.7,0,1.7,1.6C27,14.9,26,14.9,25.3,14.9L25.3,14.9z M26.7,10.7h-4.9
		c0.2,0.2,0.4,0.6,0.4,0.9v6.1c0,0.3-0.3,0.8-0.4,0.9h4c-0.2-0.1-0.5-0.5-0.5-0.9v-2h1.6c1,0,2.9-0.4,2.9-2.5
		C29.8,11.6,28.7,10.7,26.7,10.7L26.7,10.7z"/>
	<path class="st0" d="M35.2,17.9c-0.9,0-1.7-1-1.7-3.2c0-2.1,0.6-3.2,1.7-3.2c1.1,0,1.6,1.1,1.6,3.2C36.8,16.5,36.3,17.9,35.2,17.9
		L35.2,17.9z M35.1,10.5c-2.6,0-4.7,1.5-4.7,4.1c0,1,0.5,4.1,4.7,4.1c2.5,0,4.7-1.2,4.7-4.1C40,12.3,38.2,10.5,35.1,10.5L35.1,10.5z
		"/>
	<path class="st0" d="M61.3,7.4c-0.9,0-1.7-0.9-1.7-3.2c0-2,0.6-3.2,1.7-3.2c1,0,1.6,1.1,1.6,3.2C62.9,6,62.5,7.4,61.3,7.4L61.3,7.4
		z M61.3,0c-2.6,0-4.7,1.6-4.7,4.1c0,1.1,0.6,4.1,4.8,4.1c2.5,0,4.7-1.2,4.7-4.1C66.1,1.8,64.3,0,61.3,0L61.3,0z"/>
	<path class="st0" d="M53.1,0C49.9,0,48,1.7,48,4.1c0,2.1,1.7,4.3,5.1,4.3c1.1,0,2.1-0.2,2.9-0.6V5.8H56c-0.3,0.9-1.1,1.5-2.3,1.5
		c-1.2,0-2.3-0.9-2.3-3.2c0-1.9,0.8-3,2.3-3c1,0,1.8,0.4,2.2,1.2H56V0.6C55.2,0.2,54.3,0,53.1,0L53.1,0z"/>
	<path class="st0" d="M44.2,14.9v-3.2c0.7,0,1.6,0,1.6,1.6C45.7,14.9,44.7,14.9,44.2,14.9L44.2,14.9z M45.4,10.7h-4.9
		c0.2,0.2,0.4,0.6,0.4,0.9v6.1c0,0.3-0.2,0.8-0.4,0.9h4.1c-0.2-0.1-0.5-0.5-0.5-0.9v-2h1.6c1,0,2.8-0.4,2.8-2.5
		C48.6,11.6,47.6,10.7,45.4,10.7L45.4,10.7z"/>
	<path class="st0" d="M64.5,17.4H62v-5.9c0.1-0.3,0.3-0.6,0.5-0.8h-4.1c0.2,0.2,0.5,0.6,0.5,0.9v6.2c0,0.3-0.3,0.8-0.5,0.8v0.1h6.9
		l0.8-1.8C65.7,17.1,65.4,17.3,64.5,17.4L64.5,17.4z"/>
	<path class="st0" d="M68.3,15.6l1.2-3v0.1l1.1,2.9H68.3L68.3,15.6z M75,18.1l-3.1-7.4h-3.4c0.1,0.2,0.4,0.5,0.2,0.9l-2.4,5.9
		c-0.3,0.6-0.5,0.9-0.8,1.1h2.1c-0.1-0.2-0.2-0.6,0.1-1.1l0.3-0.9h3l0.3,0.9c0.1,0.4,0.1,0.8-0.1,1.1h4.2
		C75.2,18.4,75.1,18.3,75,18.1L75,18.1z"/>
	<path class="st0" d="M32.1,5.1l1.2-3l1.1,3H32.1L32.1,5.1z M38.8,7.7l-3.1-7.4h-3.4c0.1,0.2,0.4,0.4,0.2,1L30.1,7
		c-0.2,0.6-0.5,0.8-0.7,1.1h2C31.3,8,31.2,7.5,31.4,7L31.7,6h3l0.3,1c0.2,0.3,0.1,0.8-0.1,1.1h4.2C38.9,8,38.9,7.8,38.8,7.7
		L38.8,7.7z"/>
	<path class="st0" d="M56.7,10.7h-0.9c0.2,0.2,0.4,0.5,0.5,0.8l-0.1,4c0,0.9-0.6,1.8-1.9,1.8c-1,0-1.7-0.6-1.7-1.8v-3.9
		c0-0.3,0.1-0.7,0.4-0.9h-4c0.2,0.2,0.4,0.5,0.4,0.9v4c0,1.7,1.4,3.2,4.1,3.2c1.5,0,2.5-0.3,3.2-1c0.4-0.4,0.9-1.2,0.9-2.2v-3.9
		c0-0.3,0.2-0.6,0.5-0.9H56.7L56.7,10.7z"/>
	<path class="st0" d="M44.9,8.2h2.4V1.5V1.1c0-0.3,0.1-0.6,0.4-0.9h-2.1C45.7,0.3,45.9,0.6,46,1c0,1.1,0,2.3,0,3.4l-3.8-4.2h-3.5
		c0.2,0.2,0.4,0.5,0.4,0.8v0.6v5.8c0,0.3-0.2,0.6-0.4,0.8h0.9h1.3c-0.3-0.3-0.5-0.6-0.5-0.9v-4L44.9,8.2L44.9,8.2z"/>
	<path class="st0" d="M25.2,4.4h0.2c0.6,0,1.2,0.6,1.2,1.3v0.1c0,0.7-0.6,1.3-1.2,1.3h-0.2V4.4L25.2,4.4z M25.2,1.3h0.3
		c1.3,0,1.3,2.2,0,2.2h-0.3V1.3L25.2,1.3z M21.7,0.2c0.2,0.1,0.4,0.6,0.4,0.9v6.2c0,0.3-0.3,0.8-0.4,0.9c1.7,0,3.6,0,5.3,0
		c1.7,0,2.8-1,2.8-2.3c0-0.9-0.6-1.7-1.4-1.9c0.7-0.5,1.1-1.1,1.1-1.7c0-1.4-1.1-2-2.6-2C25.1,0.2,23.4,0.2,21.7,0.2L21.7,0.2z"/>
	<g>
		<g>
			<path class="st1" d="M86.3,16.5c0-1.3,1-2.3,2.1-2.3s2.1,0.9,2.1,2.3c0,1.3-1,2.2-2.1,2.2S86.3,17.9,86.3,16.5z M90.2,16.5
				c0-1.1-0.7-1.8-1.7-1.8c-1,0-1.7,0.8-1.7,1.8c0,1.1,0.7,1.8,1.7,1.8C89.4,18.4,90.2,17.6,90.2,16.5z M87.7,15.4h0.9
				c0.5,0,0.9,0.2,0.9,0.7c0,0.3-0.2,0.5-0.4,0.6l0.5,0.9H89l-0.4-0.8h-0.5v0.8h-0.5V15.4z M88.4,16.5c0.3,0,0.5-0.1,0.5-0.4
				c0-0.2-0.1-0.4-0.5-0.4h-0.3v0.8H88.4z"/>
		</g>
	</g>
	<path class="st0" d="M81.1,18.6h4.1c-0.1,0-0.3-0.2-0.4-0.4v0l0,0c-0.1-0.1-0.2-0.2-0.3-0.4l-2.4-3.1c1-0.2,1.6-1,1.6-2.1
		c0-1-0.6-2-2.6-2H75c0.4,0.4,0.5,0.6,0.5,1.2v6c0,0.4-0.1,0.5-0.3,0.7h4c-0.1-0.1-0.4-0.4-0.4-0.8v-3.2L81.1,18.6z M78.8,11.6h0.5
		c1.3,0,1.3,0.8,1.3,1.4c0,0.9-0.5,1.5-1.3,1.5h-0.5V11.6z"/>
	<path class="st0" d="M0,0.2v9.3v9.1h18.4V9.5V0.2H0z M13.2,4.4c1.7,1.1,1.9,4.1,0,5.7V4.4z M10.1,3.2c2.4,1.5,2.3,5.8,0,7.5V3.2z
		 M6.9,3.8c2.1,1.3,2.2,5.4,0,6.9V3.8z M3.1,13.3c-0.6-1.1-1-2.5-1-3.8c0-1.4,0.4-2.8,1-3.8V13.3z M5.9,11.2v4.6
		c-0.8-0.4-1.5-0.9-2.1-1.6v-0.1C5,13.9,5.9,12.8,5.9,11.2c0-1.2-0.8-1.8-1-2c0,0,0.9-0.5,1-1.5V11.2z M4,13.2V9.7
		C5.6,10.5,5.5,12.4,4,13.2z M4,9V5.6C5.5,6.3,5.7,8.2,4,9z M5.9,6.8C5.7,5.6,4.6,5,3.9,4.7C4.4,4,5.1,3.5,5.9,3.1V6.8z M9.1,16.5
		c-0.8,0-1.5-0.1-2.2-0.3v-4.5c0.6-0.3,1.8-1.3,2.2-3.2V16.5z M9.1,6C8.9,4.7,8.2,3.6,7,2.7c0.7-0.2,1.4-0.3,2.1-0.3V6z M12.3,15.8
		c-0.7,0.3-1.4,0.6-2.2,0.7v-4.8c0.5-0.3,1.7-1.3,2.2-2.9V15.8z M12.3,4.9C12,4,11.3,3.2,10.4,2.5c0.7,0.2,1.3,0.3,1.9,0.6V4.9z
		 M13.2,15.3v-4.4l1.4,3C14.2,14.5,13.8,15,13.2,15.3z M15.3,13.1L14,10.5c0.6-0.6,1.3-1.6,1.3-3.1c0-0.8-0.1-1.4-0.3-2
		c0.7,1.2,1.2,2.5,1.2,4C16.2,10.8,15.9,12,15.3,13.1z"/>
</g>
</svg>
