<?xml version="1.0" encoding="utf-8"?>
<!-- Generator: Adobe Illustrator 27.0.0, SVG Export Plug-In . SVG Version: 6.00 Build 0)  -->
<svg version="1.1" id="Layer_1" xmlns="http://www.w3.org/2000/svg" xmlns:xlink="http://www.w3.org/1999/xlink" x="0px" y="0px"
	 viewBox="0 0 32.4 32.4" style="enable-background:new 0 0 32.4 32.4;" xml:space="preserve">
<style type="text/css">
	.st0{fill:#00DDFF;}
</style>
<g>
	<g>
		<path class="st0" d="M29.8,10.8c-0.9,0.2-1.5,1.2-1.2,2.1c0.3,1.1,0.4,2.2,0.4,3.4c0,3.4-1.3,6.6-3.7,9s-5.6,3.7-9,3.7
			c-3.4,0-6.6-1.3-9-3.7s-3.7-5.6-3.7-9c0-3.4,1.3-6.6,3.7-9c2.4-2.4,5.6-3.7,9-3.7c1.7,0,3.4,0.3,4.9,1c0.9,0.4,1.9,0,2.3-0.9
			c0.4-0.9,0-1.9-0.9-2.3c-2-0.8-4.1-1.2-6.3-1.2C14,0,11.9,0.4,9.9,1.3C8,2.1,6.2,3.3,4.8,4.8C3.3,6.2,2.1,8,1.3,9.9
			C0.4,11.9,0,14,0,16.2c0,2.2,0.4,4.3,1.3,6.3c0.8,1.9,2,3.7,3.5,5.2c1.5,1.5,3.2,2.7,5.2,3.5c2,0.8,4.1,1.3,6.3,1.3
			c2.2,0,4.3-0.4,6.3-1.3c1.9-0.8,3.7-2,5.2-3.5c1.5-1.5,2.7-3.2,3.5-5.2c0.8-2,1.3-4.1,1.3-6.3c0-1.4-0.2-2.9-0.6-4.3
			C31.6,11,30.7,10.5,29.8,10.8z"/>
		<path class="st0" d="M10.8,14.2c-0.7-0.7-1.8-0.7-2.4,0c-0.7,0.7-0.7,1.8,0,2.4l5.8,5.8c0.3,0.3,0.8,0.5,1.2,0.5c0,0,0.1,0,0.1,0
			c0.5,0,0.9-0.3,1.2-0.6L29,6.9c0.6-0.7,0.5-1.8-0.3-2.4C28,3.9,26.9,4,26.3,4.7L15.2,18.6L10.8,14.2z"/>
	</g>
</g>
</svg>
