<?xml version="1.0" encoding="utf-8"?>
<!-- Generator: Adobe Illustrator 27.0.0, SVG Export Plug-In . SVG Version: 6.00 Build 0)  -->
<svg version="1.1" id="Layer_1" xmlns="http://www.w3.org/2000/svg" xmlns:xlink="http://www.w3.org/1999/xlink" x="0px" y="0px"
	 viewBox="0 0 84.5 86.4" style="enable-background:new 0 0 84.5 86.4;" xml:space="preserve">
<style type="text/css">
	.st0{fill:none;stroke:#0100AA;stroke-width:3.8068;stroke-linecap:round;stroke-linejoin:round;stroke-miterlimit:10;}
</style>
<g>
	<path class="st0" d="M42.3,75H30.9c1,5.4,5.7,9.5,11.3,9.5c5.7,0,10.4-4.1,11.3-9.5H42.3z"/>
	<path class="st0" d="M64.6,51.4c0-5.2-0.1-7.8-0.1-11.3c0-15.8-13-23.6-22.2-23.6C33,16.5,20,24.3,20,40.1c0,3.5-0.1,6.1-0.1,11.3
		c0,7.4-9,11.7-9,20.1v0c0,3.6,3,3.6,6.6,3.6h24.8H67c3.6,0,6.6,0.1,6.6-3.6v0C73.7,63.1,64.6,58.8,64.6,51.4z"/>
	<circle class="st0" cx="42.3" cy="10.3" r="6.1"/>
	<path class="st0" d="M55.7,9.9c10.5,5,17.7,15.5,18,27.8"/>
	<path class="st0" d="M59.6,1.9c13.4,6.4,22.8,20,23,35.8"/>
	<path class="st0" d="M28.8,9.9c-10.5,5-17.7,15.5-18,27.8"/>
	<path class="st0" d="M24.9,1.9c-13.4,6.4-22.8,20-23,35.8"/>
</g>
</svg>
