<?xml version="1.0" encoding="utf-8"?>
<!-- Generator: Adobe Illustrator 27.0.0, SVG Export Plug-In . SVG Version: 6.00 Build 0)  -->
<svg version="1.1" id="Layer_1" xmlns="http://www.w3.org/2000/svg" xmlns:xlink="http://www.w3.org/1999/xlink" x="0px" y="0px"
	 viewBox="0 0 158.8 158.8" style="enable-background:new 0 0 158.8 158.8;" xml:space="preserve">
<style type="text/css">
	.st0{fill:#000164;}
</style>
<g>
	<g>
		<path class="st0" d="M140.5,104.3h-36.2v36.2h36.2V104.3z M133.5,133.5h-22.1v-22.1h22.1V133.5z"/>
		<rect x="118.7" y="118.7" class="st0" width="7.5" height="7.5"/>
		<path class="st0" d="M140.5,18.3h-36.2v36.2h36.2V18.3z M133.5,47.5h-22.1V25.4h22.1V47.5z"/>
		<rect x="118.7" y="32.7" class="st0" width="7.5" height="7.5"/>
		<path class="st0" d="M18.2,140.5h36.2v-36.2H18.2V140.5z M25.3,111.4h22.1v22.1H25.3V111.4z"/>
		<rect x="32.6" y="118.7" class="st0" width="7.5" height="7.5"/>
		<path class="st0" d="M18.2,54.4h36.2V18.2H18.2V54.4z M25.3,25.3h22.1v22.1H25.3V25.3z"/>
		<rect x="32.6" y="32.6" class="st0" width="7.5" height="7.5"/>
		<rect x="126" y="61.9" class="st0" width="7.3" height="7.3"/>
		<rect x="32.7" y="83.8" class="st0" width="7.3" height="14.6"/>
		<rect x="104.1" y="76.5" class="st0" width="7.3" height="7.3"/>
		<rect x="104.1" y="91.1" class="st0" width="7.3" height="7.3"/>
		<rect x="45.7" y="91.1" class="st0" width="7.3" height="7.3"/>
		<polygon class="st0" points="133.3,91.1 140.6,91.1 140.6,85.3 140.6,83.8 140.6,69.2 133.3,69.2 133.3,76.5 118.7,76.5 
			118.7,83.8 133.3,83.8 133.3,85.3 		"/>
		<rect x="82.1" y="105.6" class="st0" width="7.3" height="7.3"/>
		<rect x="67.5" y="112.9" class="st0" width="7.3" height="7.3"/>
		<polygon class="st0" points="89.4,129.6 89.4,133.3 96.7,133.3 96.7,129.6 96.7,126 96.7,112.9 89.4,112.9 89.4,126 		"/>
		<polygon class="st0" points="74.8,127.5 82.1,127.5 82.1,120.2 74.8,120.2 74.8,126 60.3,126 60.3,133.3 67.5,133.3 67.5,140.5 
			89.4,140.5 89.4,133.3 74.8,133.3 		"/>
		<rect x="111.4" y="83.8" class="st0" width="7.3" height="7.3"/>
		<polygon class="st0" points="89.4,105.6 96.7,105.6 96.7,91.1 104,91.1 104,83.8 96.7,83.8 89.4,83.8 82.1,83.8 82.1,91.1 
			89.4,91.1 		"/>
		<rect x="53" y="83.8" class="st0" width="7.3" height="7.3"/>
		<rect x="118.7" y="91.1" class="st0" width="14.6" height="7.3"/>
		<path class="st0" d="M89.4,61.9h7.3v-7.3h-7.3v-7.3v-7.3h-7.3v-7.3h-7.3v7.3h-7.3v-7.3h-7.3v7.3v7.3h21.9v7.3h-7.3h-3.6h-3.6h-7.3
			v7.3h7.3v7.3H53v-3.6v-3.6h-7.3v3.6v3.6H40v-7.3h-7.3v7.3h-0.1H27h-1.5v-7.3h-7.3v7.3h7.1v7.3h-7.1v14.6h7.3v-7.3h7.1v-7.3h13.1
			v7.3H53v-7.3h14.6v14.6h-7.3v7.3h7.3v7.3h7.3v-7.3h7.3v-7.3h-7.3V76.5H104v-7.3H89.4V61.9z M74.8,69.2v-7.3h7.3v7.3H74.8z"/>
		<rect x="111.4" y="61.9" class="st0" width="7.3" height="7.3"/>
		<rect x="60.3" y="18.2" class="st0" width="21.9" height="7.3"/>
		<polygon class="st0" points="89.4,36.4 89.4,40.1 96.7,40.1 96.7,36.4 96.7,32.8 96.7,18.2 89.4,18.2 89.4,25.5 82.1,25.5 
			82.1,32.8 89.4,32.8 		"/>
		<polygon class="st0" points="151.2,151.2 133.9,151.2 133.9,158.8 158.8,158.8 158.8,133.9 151.2,133.9 		"/>
		<polygon class="st0" points="7.6,133.9 0,133.9 0,158.8 24.9,158.8 24.9,151.2 7.6,151.2 		"/>
		<polygon class="st0" points="133.9,0 133.9,7.6 151.2,7.6 151.2,24.9 158.8,24.9 158.8,0 		"/>
		<polygon class="st0" points="7.6,7.6 24.9,7.6 24.9,0 0,0 0,24.9 7.6,24.9 		"/>
	</g>
</g>
</svg>
