<?xml version="1.0" encoding="utf-8"?>
<!-- Generator: Adobe Illustrator 27.0.0, SVG Export Plug-In . SVG Version: 6.00 Build 0)  -->
<svg version="1.1" id="Layer_1" xmlns="http://www.w3.org/2000/svg" xmlns:xlink="http://www.w3.org/1999/xlink" x="0px" y="0px"
	 viewBox="0 0 130.5 174.8" style="enable-background:new 0 0 130.5 174.8;" xml:space="preserve">
<style type="text/css">
	.st0{fill:#FFFFFF;}
	.st1{fill:#00DDFF;}
</style>
<g>
	<g>
		<g>
			<path class="st0" d="M112.4,174.8H18.2c-10,0-18.2-8.1-18.2-18.2V40.5c0-10,8.1-18.2,18.2-18.2h11.2c1.7,0,3.2,1.4,3.2,3.2
				c0,1.7-1.4,3.2-3.2,3.2H18.2c-6.5,0-11.8,5.3-11.8,11.8v116.1c0,6.5,5.3,11.8,11.8,11.8h94.2c6.5,0,11.8-5.3,11.8-11.8V40.5
				c0-6.5-5.3-11.8-11.8-11.8h-12.2c-1.7,0-3.2-1.4-3.2-3.2c0-1.7,1.4-3.2,3.2-3.2h12.2c10,0,18.2,8.1,18.2,18.2v116.1
				C130.5,166.7,122.4,174.8,112.4,174.8z"/>
		</g>
		<g>
			<path class="st0" d="M94,38.9H36.6c-5.2,0-9.4-4.2-9.4-9.4v-9.2c0-5.2,4.2-9.4,9.4-9.4H47L48.8,6c1.4-4,3.7-6,6.9-6h19.7
				c3.2,0,5.5,2,6.9,6l1.7,4.9H94c5.2,0,9.4,4.2,9.4,9.4v9.2C103.4,34.7,99.2,38.9,94,38.9z M36.6,17.2c-1.7,0-3.1,1.4-3.1,3.1v9.2
				c0,1.7,1.4,3.1,3.1,3.1H94c1.7,0,3.1-1.4,3.1-3.1v-9.2c0-1.7-1.4-3.1-3.1-3.1H81.7c-1.3,0-2.5-0.8-3-2.1l-2.5-7
				c-0.5-1.5-0.9-1.8-0.9-1.8l-19.6,0c0,0-0.4,0.3-0.9,1.8l-2.5,7c-0.4,1.3-1.6,2.1-3,2.1H36.6z"/>
		</g>
		<g>
			<path class="st0" d="M107.7,67H59.8c-1.7,0-3.2-1.4-3.2-3.2c0-1.7,1.4-3.2,3.2-3.2h47.9c1.7,0,3.2,1.4,3.2,3.2
				C110.9,65.5,109.4,67,107.7,67z"/>
		</g>
		<g>
			<path class="st0" d="M107.7,104.5H59.8c-1.7,0-3.2-1.4-3.2-3.2c0-1.7,1.4-3.2,3.2-3.2h47.9c1.7,0,3.2,1.4,3.2,3.2
				C110.9,103,109.4,104.5,107.7,104.5z"/>
		</g>
		<g>
			<path class="st0" d="M107.7,142H59.8c-1.7,0-3.2-1.4-3.2-3.2c0-1.7,1.4-3.2,3.2-3.2h47.9c1.7,0,3.2,1.4,3.2,3.2
				C110.9,140.6,109.4,142,107.7,142z"/>
		</g>
		<g>
			<path class="st0" d="M65.3,26.5c-4.5,0-8.2-3.7-8.2-8.2s3.7-8.2,8.2-8.2c4.5,0,8.2,3.7,8.2,8.2S69.8,26.5,65.3,26.5z M65.3,16.4
				c-1.1,0-1.9,0.9-1.9,1.9c0,1.1,0.9,1.9,1.9,1.9c1.1,0,1.9-0.9,1.9-1.9C67.2,17.2,66.3,16.4,65.3,16.4z"/>
		</g>
	</g>
	<path class="st1" d="M30.6,74.5c-0.7,0-1.4-0.2-2-0.7l-7.8-6.5c-1.3-1.1-1.5-3.1-0.4-4.5c1.1-1.3,3.1-1.5,4.5-0.4l5.4,4.5L43,52.1
		c1.1-1.3,3.1-1.5,4.5-0.3c1.3,1.1,1.5,3.1,0.3,4.5L33,73.4C32.4,74.1,31.5,74.5,30.6,74.5z"/>
	<path class="st1" d="M30.6,112c-0.7,0-1.4-0.2-2-0.7l-7.8-6.6c-1.3-1.1-1.5-3.1-0.4-4.5c1.1-1.3,3.1-1.5,4.5-0.4l5.4,4.5L43,89.6
		c1.1-1.3,3.1-1.5,4.5-0.3c1.3,1.1,1.5,3.1,0.3,4.5L33,110.9C32.4,111.6,31.5,112,30.6,112z"/>
	<path class="st1" d="M30.6,149.5c-0.7,0-1.4-0.2-2-0.7l-7.8-6.5c-1.3-1.1-1.5-3.1-0.4-4.5c1.1-1.3,3.1-1.5,4.5-0.4l5.4,4.5
		L43,127.1c1.1-1.3,3.1-1.5,4.5-0.3c1.3,1.1,1.5,3.1,0.3,4.5L33,148.4C32.4,149.1,31.5,149.5,30.6,149.5z"/>
</g>
</svg>
