<?xml version="1.0" encoding="utf-8"?>
<!-- Generator: Adobe Illustrator 27.0.0, SVG Export Plug-In . SVG Version: 6.00 Build 0)  -->
<svg version="1.1" id="Capa_1" xmlns="http://www.w3.org/2000/svg" xmlns:xlink="http://www.w3.org/1999/xlink" x="0px" y="0px"
	 viewBox="0 0 277.8 57.6" style="enable-background:new 0 0 277.8 57.6;" xml:space="preserve">
<style type="text/css">
	.st0{fill-rule:evenodd;clip-rule:evenodd;fill:#FFFFFF;}
	.st1{fill:#FFFFFF;}
</style>
<g>
	<path class="st0" d="M77.6,45.6v-9.9c2.4,0,5.1,0,5.1,4.9C82.7,45.6,79.5,45.6,77.6,45.6L77.6,45.6z M81.7,32.7h-15
		c0.5,0.5,1.2,1.7,1.2,2.9v18.7c0,1-1,2.4-1.2,2.7h12.4c-0.5-0.2-1.5-1.5-1.5-2.7v-6.1h4.9c3.2,0,9-1.2,9-7.8
		C91.4,35.4,88,32.7,81.7,32.7L81.7,32.7z"/>
	<path class="st0" d="M107.9,54.8c-2.7,0-5.1-3.2-5.1-9.9c0-6.3,1.9-9.9,5.1-9.9c3.4,0,4.9,3.4,4.9,9.9
		C112.8,50.7,111.3,54.8,107.9,54.8L107.9,54.8z M107.7,32.3c-8,0-14.3,4.6-14.3,12.6c0,3.2,1.5,12.6,14.6,12.6
		c7.8,0,14.6-3.6,14.6-12.6C122.5,37.6,116.9,32.3,107.7,32.3L107.7,32.3z"/>
	<path class="st0" d="M188,22.6c-2.7,0-5.1-2.9-5.1-9.9c0-6.1,1.9-9.7,5.1-9.7s4.9,3.4,4.9,9.7C192.8,18.4,191.4,22.6,188,22.6
		L188,22.6z M187.7,0c-8,0-14.6,4.9-14.6,12.6c0,3.4,1.7,12.6,14.8,12.6c7.8,0,14.6-3.6,14.6-12.6C202.5,5.6,196.9,0,187.7,0
		L187.7,0z"/>
	<path class="st0" d="M162.7,0c-9.9,0-15.5,5.1-15.5,12.6c0,6.5,5.3,13.1,15.8,13.1c3.4,0,6.3-0.5,9-1.7v-6.3h-0.2
		c-1,2.7-3.4,4.6-7,4.6s-7-2.9-7-9.7c0-5.8,2.4-9.2,7-9.2c3.2,0,5.6,1.2,6.8,3.6h0.2V1.7C169.3,0.7,166.4,0,162.7,0L162.7,0z"/>
	<path class="st0" d="M135.3,45.6v-9.9c2.2,0,4.9,0,4.9,4.9C140.2,45.6,137,45.6,135.3,45.6L135.3,45.6z M139.2,32.7h-15
		c0.5,0.5,1.2,1.7,1.2,2.9v18.7c0,1-0.7,2.4-1.2,2.7h12.6c-0.5-0.2-1.5-1.5-1.5-2.7v-6.1h4.9c2.9,0,8.7-1.2,8.7-7.8
		C148.9,35.4,145.8,32.7,139.2,32.7L139.2,32.7z"/>
	<path class="st0" d="M197.7,53.4h-7.8V35.2c0.2-1,1-1.9,1.5-2.4h-12.6c0.7,0.5,1.5,1.7,1.5,2.7v18.9c0,1-1,2.4-1.5,2.4V57h21.1
		l2.4-5.6C201.3,52.4,200.3,53.1,197.7,53.4L197.7,53.4z"/>
	<path class="st0" d="M209.3,47.8l3.6-9.2v0.2l3.4,9H209.3L209.3,47.8z M229.9,55.5l-9.5-22.8H210c0.2,0.7,1.2,1.5,0.5,2.9l-7.3,18
		c-1,1.9-1.5,2.7-2.4,3.4h6.3c-0.2-0.5-0.5-1.9,0.2-3.4l1-2.9h9.2l1,2.9c0.2,1.2,0.2,2.4-0.2,3.4h12.9
		C230.4,56.5,230.2,56,229.9,55.5L229.9,55.5z"/>
	<path class="st0" d="M98.2,15.8l3.6-9.2l3.4,9.2L98.2,15.8L98.2,15.8z M118.8,23.5l-9.5-22.8H98.9c0.2,0.7,1.2,1.2,0.7,2.9
		l-7.5,17.9c-0.7,1.9-1.5,2.4-2.2,3.4H96c-0.2-0.5-0.5-1.9,0.2-3.6l1-2.9h9.2l1,3.2c0.5,1,0.2,2.4-0.2,3.4h12.9
		C119.3,24.5,119.1,24,118.8,23.5L118.8,23.5z"/>
	<path class="st0" d="M173.7,32.7H171c0.7,0.5,1.2,1.5,1.5,2.4l-0.2,12.4c0,2.7-1.7,5.6-5.8,5.6c-2.9,0-5.3-1.9-5.3-5.6V35.6
		c0-1,0.2-2.2,1.2-2.9H150c0.5,0.5,1.2,1.5,1.2,2.7v12.4c0,5.3,4.4,9.7,12.6,9.7c4.6,0,7.8-1,9.7-3.2c1.2-1.2,2.7-3.6,2.7-6.8V35.6
		c0-1,0.5-1.9,1.5-2.9L173.7,32.7L173.7,32.7z"/>
	<path class="st0" d="M137.5,25h7.3V4.6V3.4c0-1,0.2-1.9,1.2-2.7h-6.5c0.7,0.2,1.2,1.2,1.5,2.4c0,3.4,0,7,0,10.4L129.4,0.6h-10.7
		c0.5,0.5,1.2,1.5,1.2,2.4v1.7v17.7c0,1-0.5,1.9-1.2,2.4h2.7h3.9c-1-1-1.5-1.9-1.5-2.9V9.5L137.5,25L137.5,25z"/>
	<path class="st0" d="M77.4,13.6h0.7c1.9,0,3.6,1.9,3.6,3.9v0.2c0,2.2-1.7,3.9-3.6,3.9h-0.7V13.6L77.4,13.6z M77.4,3.9h1
		c3.9,0,3.9,6.8,0,6.8h-1V3.9L77.4,3.9z M66.4,0.7c0.5,0.2,1.2,1.7,1.2,2.7v18.9c0,1-1,2.4-1.2,2.7c5.3,0,10.9,0,16.3,0
		c5.3,0,8.5-3.2,8.5-7c0-2.7-1.7-5.1-4.4-5.8c2.2-1.5,3.4-3.4,3.4-5.3c0-4.4-3.4-6.1-8-6.1C76.9,0.7,71.8,0.7,66.4,0.7L66.4,0.7z"/>
	<g>
		<g>
			<path class="st1" d="M264.6,50.7c0-4.1,3-6.9,6.6-6.9s6.6,2.8,6.6,6.9s-3,6.9-6.6,6.9C267.5,57.6,264.6,54.8,264.6,50.7z
				 M276.3,50.7c0-3.3-2.3-5.6-5.2-5.6s-5.2,2.3-5.2,5.6c0,3.3,2.3,5.6,5.2,5.6S276.3,54,276.3,50.7z M268.6,47h2.7
				c1.5,0,2.7,0.6,2.7,2.3c0,0.9-0.5,1.6-1.3,1.9l1.6,2.9h-1.6l-1.2-2.4h-1.4v2.4h-1.4V47H268.6z M271,50.6c0.9,0,1.5-0.4,1.5-1.2
				c0-0.7-0.4-1.2-1.4-1.2h-1v2.3h0.9V50.6z"/>
		</g>
	</g>
	<path class="st0" d="M248.6,57h12.6c-0.4-0.1-0.8-0.5-1.3-1.1l0,0l0,0c-0.3-0.3-0.6-0.7-0.9-1.1l-7.3-9.6c3.2-0.7,4.9-3.2,4.9-6.3
		c0-2.9-1.9-6.1-8-6.1h-18.7c1.2,1.2,1.5,1.9,1.5,3.6v18.4c0,1.2-0.2,1.5-1,2.2h12.1c-0.2-0.2-1.2-1.2-1.2-2.4v-9.7L248.6,57z
		 M241.3,35.4h1.5c3.9,0,4.1,2.4,4.1,4.4c0,2.7-1.5,4.6-4.1,4.6h-1.5V35.4z"/>
	<path class="st0" d="M0,0.7v28.4V57h56.3V29.1V0.7H0z M40.5,13.6c5.1,3.4,5.8,12.6,0,17.5V13.6z M30.8,9.9c7.3,4.6,7,17.7,0,23V9.9
		z M21.1,11.6c6.3,4.1,6.8,16.5,0,21.1V11.6z M9.4,40.7c-1.9-3.4-3.2-7.5-3.2-11.6c0-4.4,1.2-8.5,3.2-11.6V40.7z M18.2,34.4v14.1
		c-2.4-1.2-4.6-2.9-6.3-4.9v-0.2C15.3,42.4,18.2,39.3,18.2,34.4c0-3.6-2.4-5.6-3.2-6.1c0,0,2.7-1.5,3.2-4.6V34.4z M12.4,40.5V29.6
		C17.2,32.3,16.7,38.1,12.4,40.5z M12.4,27.7V17.2C16.7,19.2,17.4,25,12.4,27.7z M18.2,20.9c-0.7-3.6-4.1-5.6-6.3-6.3
		c1.7-2.2,3.9-3.9,6.3-5.1V20.9z M27.9,50.7c-2.4,0-4.6-0.2-6.8-1V35.9c1.7-1,5.6-3.9,6.8-9.9V50.7z M27.9,18.4
		c-0.7-4.1-2.9-7.3-6.5-10.2c2.2-0.7,4.4-1,6.5-1V18.4z M37.6,48.5c-2.2,1-4.4,1.7-6.8,2.2V35.9c1.5-1,5.1-3.9,6.8-9V48.5z M37.6,15
		c-1-2.9-2.9-5.3-5.8-7.5c2.2,0.5,4.1,1,5.8,1.9V15z M40.5,46.8V33.5l4.4,9.2C43.6,44.4,42.2,45.8,40.5,46.8z M46.8,40l-3.9-7.8
		c1.7-1.7,4.1-4.9,4.1-9.5c0-2.4-0.2-4.4-1-6.1c2.2,3.6,3.6,7.8,3.6,12.4C49.7,33,48.7,36.9,46.8,40z"/>
</g>
</svg>
