<?xml version="1.0" encoding="utf-8"?>
<!-- Generator: Adobe Illustrator 27.0.0, SVG Export Plug-In . SVG Version: 6.00 Build 0)  -->
<svg version="1.1" id="Capa_1" xmlns="http://www.w3.org/2000/svg" xmlns:xlink="http://www.w3.org/1999/xlink" x="0px" y="0px"
	 viewBox="0 0 86.3 86.3" style="enable-background:new 0 0 86.3 86.3;" xml:space="preserve">
<style type="text/css">
	.st0{fill:#F83384;}
</style>
<g>
	<g>
		<path class="st0" d="M82.9,26.3c-2.2-5.1-5.3-9.7-9.2-13.7c-4-4-8.6-7.1-13.7-9.2C54.6,1.1,49,0,43.1,0c-5.8,0-11.5,1.1-16.8,3.4
			c-5.1,2.2-9.7,5.3-13.7,9.2c-4,4-7.1,8.6-9.2,13.7C1.1,31.7,0,37.3,0,43.1s1.1,11.5,3.4,16.8c2.2,5.1,5.3,9.7,9.2,13.7
			c4,4,8.6,7.1,13.7,9.2c5.3,2.3,11,3.4,16.8,3.4c5.8,0,11.5-1.1,16.8-3.4c5.1-2.2,9.7-5.3,13.7-9.2c4-4,7.1-8.6,9.2-13.7
			c2.3-5.3,3.4-11,3.4-16.8S85.1,31.7,82.9,26.3z M67.2,67.2c-6.4,6.4-14.9,10-24,10c-9.1,0-17.6-3.5-24-10c-6.4-6.4-10-14.9-10-24
			c0-9.1,3.5-17.6,10-24c6.4-6.4,14.9-10,24-10c9.1,0,17.6,3.5,24,10c6.4,6.4,10,14.9,10,24S73.6,60.7,67.2,67.2z"/>
		<path class="st0" d="M63.4,23.4c-1.8-1.8-4.7-1.8-6.5-0.1L43.1,36.7L29.4,23.3c-1.8-1.8-4.7-1.7-6.5,0.1c-1.8,1.8-1.7,4.7,0.1,6.5
			l13.6,13.3L23,56.4c-1.8,1.8-1.8,4.7-0.1,6.5c0.9,0.9,2.1,1.4,3.3,1.4c1.2,0,2.3-0.4,3.2-1.3l13.8-13.4L56.9,63
			c0.9,0.9,2,1.3,3.2,1.3c1.2,0,2.4-0.5,3.3-1.4c1.8-1.8,1.7-4.7-0.1-6.5L49.7,43.1l13.6-13.3C65.1,28.1,65.1,25.2,63.4,23.4z"/>
	</g>
</g>
</svg>
