<?xml version="1.0" encoding="utf-8"?>
<!-- Generator: Adobe Illustrator 27.0.0, SVG Export Plug-In . SVG Version: 6.00 Build 0)  -->
<svg version="1.1" id="Layer_1" xmlns="http://www.w3.org/2000/svg" xmlns:xlink="http://www.w3.org/1999/xlink" x="0px" y="0px"
	 viewBox="0 0 26.9 26.9" style="enable-background:new 0 0 26.9 26.9;" xml:space="preserve">
<style type="text/css">
	.st0{fill:#FFFFFF;}
	.st1{fill:none;stroke:#000064;stroke-miterlimit:10;}
</style>
<g>
	<path class="st0" d="M13.4,26.9c-1.9,0-3.6-0.4-5.2-1.1s-3.1-1.7-4.3-2.9s-2.2-2.6-2.9-4.3S0,15.3,0,13.4s0.4-3.6,1.1-5.2
		s1.7-3.1,2.9-4.3s2.6-2.2,4.3-2.9S11.6,0,13.4,0c1.5,0,2.8,0.2,4.1,0.6c1.3,0.4,2.5,1,3.6,1.8l-1.9,2c-0.9-0.5-1.8-1-2.7-1.3
		s-2-0.5-3.1-0.5c-3,0-5.5,1-7.6,3.1s-3.1,4.6-3.1,7.6s1,5.5,3.1,7.6s4.6,3.1,7.6,3.1s5.5-1,7.6-3.1s3.1-4.6,3.1-7.6
		c0-0.4,0-0.8-0.1-1.2c0-0.4-0.1-0.8-0.2-1.2l2.2-2.2c0.2,0.7,0.4,1.5,0.6,2.2c0.1,0.8,0.2,1.5,0.2,2.4c0,1.9-0.4,3.6-1.1,5.2
		s-1.7,3.1-2.9,4.3s-2.6,2.2-4.3,2.9C17,26.5,15.3,26.9,13.4,26.9z M11.6,19.6l-5.7-5.7L7.7,12l3.8,3.8L25,2.4l1.9,1.9L11.6,19.6z"
		/>
</g>
</svg>
