<?xml version="1.0" encoding="utf-8"?>
<!-- Generator: Adobe Illustrator 27.0.0, SVG Export Plug-In . SVG Version: 6.00 Build 0)  -->
<svg version="1.1" id="Layer_1" xmlns="http://www.w3.org/2000/svg" xmlns:xlink="http://www.w3.org/1999/xlink" x="0px" y="0px"
	 viewBox="0 0 35.6 35.6" style="enable-background:new 0 0 35.6 35.6;" xml:space="preserve">
<style type="text/css">
	.st0{fill:none;stroke:#000064;stroke-miterlimit:10;}
	.st1{fill:#00DCAA;}
</style>
<path class="st1" d="M17.8,35.6c-2.5,0-4.8-0.5-6.9-1.4s-4-2.2-5.6-3.8c-1.6-1.6-2.9-3.5-3.8-5.6S0,20.2,0,17.8s0.5-4.8,1.4-6.9
	s2.2-4,3.8-5.6s3.5-2.9,5.6-3.8S15.3,0,17.8,0c1.9,0,3.8,0.3,5.5,0.8C25,1.4,26.6,2.2,28,3.2l-2.6,2.6c-1.1-0.7-2.3-1.3-3.6-1.7
	c-1.3-0.4-2.6-0.6-4-0.6c-3.9,0-7.3,1.4-10.1,4.2s-4.2,6.1-4.2,10.1s1.4,7.3,4.2,10.1S13.8,32,17.8,32s7.3-1.4,10.1-4.2
	S32,21.7,32,17.8c0-0.5,0-1.1-0.1-1.6c-0.1-0.5-0.1-1.1-0.3-1.6l2.9-2.9c0.3,0.9,0.6,1.9,0.8,2.9c0.2,1,0.3,2,0.3,3.1
	c0,2.5-0.5,4.8-1.4,6.9s-2.2,4-3.8,5.6c-1.6,1.6-3.5,2.9-5.6,3.8S20.2,35.6,17.8,35.6z M15.3,26l-7.6-7.6l2.5-2.5l5.1,5.1L33.1,3.2
	l2.5,2.5L15.3,26z"/>
</svg>
