<?xml version="1.0" encoding="utf-8"?>
<!-- Generator: Adobe Illustrator 27.0.0, SVG Export Plug-In . SVG Version: 6.00 Build 0)  -->
<svg version="1.1" id="Capa_1" xmlns="http://www.w3.org/2000/svg" xmlns:xlink="http://www.w3.org/1999/xlink" x="0px" y="0px"
	 viewBox="0 0 141.5 32.5" style="enable-background:new 0 0 141.5 32.5;" xml:space="preserve">
<style type="text/css">
	.st0{fill:#FFFFFF;}
	.st1{fill:none;}
	.st2{fill:#F26522;}
	.st3{fill:#E51B24;}
	.st4{fill:#F99F1C;}
</style>
<g>
	<g>
		<g>
			<rect x="88.5" class="st0" width="0.7" height="32.5"/>
			<g>
				<path class="st0" d="M2.4,6.2h2.8v2.9H2.4V6.2z M2.4,12h2.8v15.3c0,2.4-1.7,4-4.1,4H0v-2.7h0.8c1,0,1.6-0.5,1.6-1.5V12z"/>
				<path class="st0" d="M18.8,20.1v-2.3c0-3.7-2.7-6-5.9-6c-2.8,0-5.9,1.8-5.9,7.3c0,5.8,3.4,7.2,6.3,7.2c1.9,0,3.7-0.7,5.1-2.3
					l-2.1-1.8c-0.8,0.9-2,1.4-3.1,1.4c-2,0-3.4-1.2-3.4-3.5L18.8,20.1L18.8,20.1z M10,17.8c0.1-2.2,1.3-3.3,3-3.3s2.9,1.2,3,3.3H10z
					"/>
				<path class="st0" d="M21.1,7.6H24V12H26v2.2H24v8.3c0,0.8,0.3,1.1,1,1.1H26v2.7h-1.5c-2,0-3.5-1.3-3.5-3.5v-8.5h-1.4v-2.2h1.4
					L21.1,7.6L21.1,7.6z"/>
				<path class="st0" d="M35.2,8.9c2.2,0,3.2,1.3,3.2,2.9c0,1.6-1,2.8-3.2,2.8h-4.4V8.9H35.2z M27.9,26.2h8.4c3,0,5.6-2.2,5.6-5.7
					c0-2-1.1-4.1-3.3-4.6v0c2.3-1,2.9-2.6,2.9-4.3c0-3.1-2-5.4-5.9-5.4h-7.7L27.9,26.2L27.9,26.2z M35.5,17.3c2.2,0,3.3,1.4,3.3,3
					s-1,3-3.3,3h-4.7v-6H35.5z"/>
				<path class="st0" d="M43.5,6.2h2.9v16.3c0,0.6,0.4,1,1.1,1h1v2.7h-1.3c-2.1,0-3.6-0.9-3.6-3.5L43.5,6.2L43.5,6.2z"/>
				<path class="st0" d="M49.6,12h2.9v8.5c0,1.9,1.2,3.1,2.8,3.1c1.6,0,2.8-1.1,2.8-3.1V12h2.9v14.2h-2.9v-1.5h0
					c-0.9,1.1-2.2,1.7-3.7,1.7c-2.2,0-4.8-1.7-4.8-4.9L49.6,12L49.6,12z"/>
				<path class="st0" d="M74.2,20.1v-2.3c0-3.7-2.7-6-5.9-6c-2.8,0-5.9,1.8-5.9,7.3c0,5.8,3.4,7.2,6.3,7.2c1.9,0,3.7-0.7,5.1-2.3
					l-2.1-1.8c-0.8,0.9-2,1.4-3.1,1.4c-2,0-3.4-1.2-3.4-3.5L74.2,20.1L74.2,20.1z M65.3,17.8c0.1-2.2,1.3-3.3,3-3.3
					c1.7,0,2.9,1.2,3,3.3H65.3z"/>
				<path class="st0" d="M74,10.8h0.2c0.2,0,0.4,0,0.4-0.2s-0.2-0.2-0.3-0.2H74V10.8z M73.7,10.2h0.6c0.3,0,0.5,0.2,0.5,0.5
					S74.6,11,74.4,11l0.4,0.6h-0.3l-0.4-0.6h-0.2v0.6h-0.2L73.7,10.2L73.7,10.2z M74.2,11.9c0.6,0,1-0.4,1-1c0-0.6-0.4-1-1-1
					c-0.6,0-1,0.4-1,1C73.2,11.5,73.6,11.9,74.2,11.9 M74.2,9.7c0.7,0,1.3,0.6,1.3,1.3c0,0.7-0.6,1.3-1.3,1.3
					c-0.7,0-1.3-0.6-1.3-1.3C72.9,10.2,73.5,9.7,74.2,9.7"/>
			</g>
		</g>
	</g>
	<g>
		<rect x="97.7" y="0.8" class="st1" width="43.7" height="31"/>
		<g id="XMLID_23_">
			<rect x="115.1" y="8.2" class="st2" width="9" height="16.2"/>
			<path id="XMLID_35_" class="st3" d="M115.6,16.3c0-3.3,1.5-6.2,3.9-8.1c-1.8-1.4-4-2.2-6.4-2.2c-5.7,0-10.3,4.6-10.3,10.3
				c0,5.7,4.6,10.3,10.3,10.3c2.4,0,4.6-0.8,6.4-2.2C117.2,22.5,115.6,19.6,115.6,16.3z"/>
			<path class="st4" d="M136.3,16.3c0,5.7-4.6,10.3-10.3,10.3c-2.4,0-4.6-0.8-6.4-2.2c2.4-1.9,3.9-4.8,3.9-8.1s-1.5-6.2-3.9-8.1
				c1.8-1.4,4-2.2,6.4-2.2C131.7,5.9,136.3,10.6,136.3,16.3z"/>
			<path class="st4" d="M135.3,22.7v-0.3h0.1v-0.1h-0.3v0.1h0.1L135.3,22.7L135.3,22.7z M136,22.7v-0.4h-0.1l-0.1,0.3l-0.1-0.3h-0.1
				v0.4h0.1v-0.3l0.1,0.3h0.1l0.1-0.3L136,22.7L136,22.7z"/>
		</g>
	</g>
</g>
</svg>
