<?xml version="1.0" encoding="utf-8"?>
<!-- Generator: Adobe Illustrator 27.0.0, SVG Export Plug-In . SVG Version: 6.00 Build 0)  -->
<svg version="1.1" id="Layer_1" xmlns="http://www.w3.org/2000/svg" xmlns:xlink="http://www.w3.org/1999/xlink" x="0px" y="0px"
	 viewBox="0 0 44.5 44.5" style="enable-background:new 0 0 44.5 44.5;" xml:space="preserve">
<style type="text/css">
	.st0{fill:#F83384;}
</style>
<g>
	<g>
		<path class="st0" d="M42.8,13.6c-1.1-2.7-2.7-5-4.8-7.1c-2-2-4.4-3.6-7.1-4.8C28.2,0.6,25.3,0,22.3,0c-3,0-5.9,0.6-8.7,1.8
			c-2.7,1.1-5,2.7-7.1,4.8c-2,2-3.6,4.4-4.8,7.1C0.6,16.3,0,19.3,0,22.3s0.6,5.9,1.8,8.7c1.1,2.7,2.7,5,4.8,7.1c2,2,4.4,3.6,7.1,4.8
			c2.7,1.2,5.7,1.8,8.7,1.8c3,0,5.9-0.6,8.7-1.8c2.7-1.1,5-2.7,7.1-4.8c2-2,3.6-4.4,4.8-7.1c1.2-2.7,1.8-5.7,1.8-8.7
			S43.9,16.3,42.8,13.6z M34.7,34.7c-3.3,3.3-7.7,5.1-12.4,5.1c-4.7,0-9.1-1.8-12.4-5.1C6.6,31.4,4.7,27,4.7,22.3
			c0-4.7,1.8-9.1,5.1-12.4c3.3-3.3,7.7-5.1,12.4-5.1c4.7,0,9.1,1.8,12.4,5.1c3.3,3.3,5.1,7.7,5.1,12.4S38,31.4,34.7,34.7z"/>
		<path class="st0" d="M32.7,12.1c-0.9-0.9-2.4-1-3.3,0L22.3,19L15.2,12c-0.9-0.9-2.4-0.9-3.3,0c-0.9,0.9-0.9,2.4,0,3.3l7,6.9
			l-7,6.9c-0.9,0.9-1,2.4,0,3.3c0.5,0.5,1.1,0.7,1.7,0.7c0.6,0,1.2-0.2,1.6-0.7l7.1-6.9l7.1,6.9c0.5,0.4,1.1,0.7,1.6,0.7
			c0.6,0,1.2-0.2,1.7-0.7c0.9-0.9,0.9-2.4,0-3.3l-7-6.9l7-6.9C33.6,14.5,33.6,13,32.7,12.1z"/>
	</g>
</g>
</svg>
