<?xml version="1.0" encoding="utf-8"?>
<!-- Generator: Adobe Illustrator 27.0.0, SVG Export Plug-In . SVG Version: 6.00 Build 0)  -->
<svg version="1.1" id="Layer_1" xmlns="http://www.w3.org/2000/svg" xmlns:xlink="http://www.w3.org/1999/xlink" x="0px" y="0px"
	 viewBox="0 0 44.5 44.5" style="enable-background:new 0 0 44.5 44.5;" xml:space="preserve">
<style type="text/css">
	.st0{fill:#00DCAA;}
</style>
<g>
	<g>
		<path class="st0" d="M40.9,14.8c-1.3,0.3-2,1.6-1.7,2.9c0.4,1.5,0.6,3,0.6,4.6c0,4.7-1.8,9.1-5.1,12.4s-7.7,5.1-12.4,5.1
			c-4.7,0-9.1-1.8-12.4-5.1S4.7,27,4.7,22.3c0-4.7,1.8-9.1,5.1-12.4c3.3-3.3,7.7-5.1,12.4-5.1c2.3,0,4.6,0.5,6.8,1.3
			c1.2,0.5,2.6-0.1,3.1-1.3c0.5-1.2-0.1-2.6-1.3-3.1C28.1,0.6,25.2,0,22.3,0c-3,0-5.9,0.6-8.7,1.8c-2.7,1.1-5,2.7-7.1,4.8
			c-2,2-3.6,4.4-4.8,7.1C0.6,16.3,0,19.3,0,22.3c0,3,0.6,5.9,1.8,8.7c1.1,2.7,2.7,5,4.8,7.1c2,2,4.4,3.6,7.1,4.8
			c2.7,1.2,5.7,1.8,8.7,1.8c3,0,5.9-0.6,8.7-1.8c2.7-1.1,5-2.7,7.1-4.8c2-2,3.6-4.4,4.8-7.1c1.2-2.7,1.8-5.7,1.8-8.7
			c0-2-0.3-3.9-0.8-5.8C43.4,15.2,42.1,14.4,40.9,14.8z"/>
		<path class="st0" d="M14.9,19.5c-0.9-0.9-2.4-0.9-3.3,0c-0.9,0.9-0.9,2.4,0,3.3l7.9,7.9c0.4,0.4,1,0.7,1.7,0.7c0,0,0.1,0,0.1,0
			c0.7,0,1.3-0.4,1.7-0.9L39.8,9.5c0.8-1,0.6-2.5-0.4-3.3c-1-0.8-2.5-0.6-3.3,0.4l-15.2,19L14.9,19.5z"/>
	</g>
</g>
</svg>
