<svg width="30" height="30" viewBox="0 0 30 30" fill="none" xmlns="http://www.w3.org/2000/svg">
<g clip-path="url(#clip0_9_2329)">
<path d="M29.6338 27.8662L28.2875 26.5199L26.125 24.3612L29.6113 20.8749C29.7597 20.7263 29.8682 20.5427 29.9269 20.341C29.9856 20.1394 29.9925 19.9262 29.947 19.7211C29.9016 19.5161 29.8052 19.3258 29.6667 19.1679C29.5283 19.0099 29.3523 18.8894 29.155 18.8174L17.9438 14.7499C17.4972 14.5885 17.0139 14.5576 16.5504 14.6609C16.0869 14.7641 15.6624 14.9973 15.3266 15.333C14.9907 15.6687 14.7575 16.0931 14.654 16.5565C14.5506 17.02 14.5813 17.5033 14.7425 17.9499L18.8213 29.1612C18.8929 29.3587 19.0131 29.5349 19.1709 29.6736C19.3286 29.8124 19.5188 29.9091 19.7238 29.9549C19.8129 29.9743 19.9038 29.9839 19.995 29.9837C20.3265 29.9836 20.6444 29.8519 20.8788 29.6174L24.3613 26.1249L26.52 28.2837L27.8663 29.6299C28.102 29.8576 28.4178 29.9836 28.7455 29.9808C29.0733 29.9779 29.3868 29.8465 29.6185 29.6147C29.8503 29.3829 29.9818 29.0694 29.9846 28.7417C29.9875 28.4139 29.8615 28.0982 29.6338 27.8624V27.8662ZM20.5 26.4562L17.095 17.0937L26.4575 20.4987L20.5 26.4562Z" fill="black"/>
<path d="M12.5 25C10.0277 25 7.61099 24.2669 5.55538 22.8934C3.49976 21.5199 1.89761 19.5676 0.951512 17.2836C0.00541605 14.9995 -0.242126 12.4861 0.24019 10.0614C0.722505 7.63661 1.91301 5.40933 3.66117 3.66117C5.40933 1.91301 7.63661 0.722505 10.0614 0.24019C12.4861 -0.242126 14.9995 0.00541605 17.2836 0.951512C19.5676 1.89761 21.5199 3.49976 22.8934 5.55538C24.2669 7.61099 25 10.0277 25 12.5C25 12.8315 24.8683 13.1495 24.6339 13.3839C24.3995 13.6183 24.0815 13.75 23.75 13.75C23.4185 13.75 23.1005 13.6183 22.8661 13.3839C22.6317 13.1495 22.5 12.8315 22.5 12.5C22.5 10.5222 21.9135 8.58879 20.8147 6.9443C19.7159 5.29981 18.1541 4.01809 16.3268 3.26121C14.4996 2.50433 12.4889 2.3063 10.5491 2.69215C8.60929 3.07801 6.82746 4.03041 5.42894 5.42894C4.03041 6.82746 3.07801 8.60929 2.69215 10.5491C2.3063 12.4889 2.50433 14.4996 3.26121 16.3268C4.01809 18.1541 5.29981 19.7159 6.9443 20.8147C8.58879 21.9135 10.5222 22.5 12.5 22.5C12.8315 22.5 13.1495 22.6317 13.3839 22.8661C13.6183 23.1005 13.75 23.4185 13.75 23.75C13.75 24.0815 13.6183 24.3995 13.3839 24.6339C13.1495 24.8683 12.8315 25 12.5 25Z" fill="black"/>
<path d="M10.105 19.525C9.94071 19.5251 9.77802 19.4928 9.62623 19.43C8.4873 18.957 7.48259 18.2104 6.70109 17.2563C5.91958 16.3023 5.3854 15.1703 5.14584 13.9605C4.90629 12.7507 4.96876 11.5006 5.32771 10.3207C5.68667 9.14083 6.33104 8.06768 7.20375 7.19631C8.07646 6.32493 9.15059 5.6822 10.331 5.32505C11.5114 4.9679 12.7617 4.90735 13.9711 5.14875C15.1805 5.39016 16.3117 5.92608 17.2645 6.70904C18.2174 7.492 18.9624 8.49785 19.4337 9.63751C19.4998 9.78977 19.5349 9.95366 19.5369 10.1196C19.539 10.2856 19.5079 10.4503 19.4456 10.6041C19.3833 10.758 19.291 10.8979 19.1741 11.0157C19.0572 11.1335 18.918 11.2268 18.7646 11.2902C18.6112 11.3536 18.4467 11.3858 18.2807 11.385C18.1148 11.3842 17.9506 11.3503 17.7979 11.2853C17.6451 11.2204 17.5069 11.1257 17.3911 11.0067C17.2754 10.8878 17.1845 10.747 17.1237 10.5925C16.8088 9.83343 16.3116 9.16367 15.6762 8.64251C15.0408 8.12135 14.2867 7.76485 13.4807 7.60455C12.6746 7.44426 11.8415 7.48511 11.055 7.7235C10.2686 7.96189 9.55296 8.39046 8.97157 8.9713C8.39018 9.55213 7.96092 10.2673 7.72178 11.0536C7.48264 11.8398 7.44099 12.6729 7.60051 13.4791C7.76004 14.2853 8.11582 15.0397 8.63637 15.6756C9.15692 16.3115 9.8262 16.8094 10.585 17.125C10.8524 17.2357 11.0731 17.4357 11.2095 17.6909C11.3459 17.9462 11.3895 18.2409 11.3328 18.5247C11.2762 18.8085 11.1228 19.0638 10.8989 19.2472C10.675 19.4305 10.3944 19.5305 10.105 19.53V19.525Z" fill="black"/>
</g>
<defs>
<clipPath id="clip0_9_2329">
<rect width="30" height="30" fill="white"/>
</clipPath>
</defs>
</svg>
