<svg width="26" height="26" viewBox="0 0 26 26" fill="none" xmlns="http://www.w3.org/2000/svg">
<g clip-path="url(#clip0_9_2345)">
<path d="M25.6825 24.1507L24.5158 22.984L22.6416 21.1131L25.663 18.0916C25.7916 17.9628 25.8857 17.8037 25.9366 17.6289C25.9874 17.4542 25.9934 17.2694 25.954 17.0917C25.9146 16.914 25.8311 16.7491 25.7111 16.6122C25.5912 16.4753 25.4386 16.3708 25.2676 16.3085L15.5512 12.7833C15.1642 12.6434 14.7453 12.6167 14.3436 12.7061C13.9419 12.7956 13.574 12.9977 13.283 13.2886C12.9919 13.5795 12.7897 13.9474 12.7001 14.349C12.6105 14.7507 12.6371 15.1695 12.7768 15.5566L16.3117 25.2731C16.3738 25.4442 16.478 25.597 16.6147 25.7172C16.7514 25.8374 16.9162 25.9213 17.0939 25.961C17.1711 25.9778 17.2499 25.9861 17.329 25.9859C17.6163 25.9858 17.8918 25.8717 18.0949 25.6685L21.113 22.6416L22.984 24.5126L24.1507 25.6793C24.355 25.8766 24.6287 25.9858 24.9127 25.9834C25.1968 25.9809 25.4685 25.867 25.6693 25.6661C25.8702 25.4652 25.9841 25.1935 25.9866 24.9095C25.9891 24.6254 25.8799 24.3518 25.6825 24.1475V24.1507ZM17.7666 22.9287L14.8156 14.8146L22.9298 17.7656L17.7666 22.9287Z" fill="black"/>
<path d="M10.8333 21.6667C8.69071 21.6667 6.59619 21.0313 4.81466 19.8409C3.03313 18.6505 1.64459 16.9586 0.824643 14.9791C0.00469391 12.9995 -0.209842 10.8213 0.208164 8.71986C0.626171 6.6184 1.65795 4.68808 3.17301 3.17301C4.68808 1.65795 6.6184 0.626171 8.71986 0.208164C10.8213 -0.209842 12.9995 0.00469391 14.9791 0.824643C16.9586 1.64459 18.6505 3.03313 19.8409 4.81466C21.0313 6.59619 21.6667 8.69071 21.6667 10.8333C21.6667 11.1207 21.5525 11.3962 21.3494 11.5994C21.1462 11.8025 20.8707 11.9167 20.5833 11.9167C20.296 11.9167 20.0205 11.8025 19.8173 11.5994C19.6141 11.3962 19.5 11.1207 19.5 10.8333C19.5 9.11923 18.9917 7.44362 18.0394 6.0184C17.0871 4.59317 15.7336 3.48234 14.1499 2.82638C12.5663 2.17042 10.8237 1.99879 9.14256 2.3332C7.46139 2.6676 5.91713 3.49302 4.70508 4.70508C3.49302 5.91713 2.6676 7.46139 2.3332 9.14256C1.99879 10.8237 2.17042 12.5663 2.82638 14.1499C3.48234 15.7336 4.59317 17.0871 6.0184 18.0394C7.44362 18.9917 9.11923 19.5 10.8333 19.5C11.1207 19.5 11.3962 19.6141 11.5994 19.8173C11.8025 20.0205 11.9167 20.296 11.9167 20.5833C11.9167 20.8707 11.8025 21.1462 11.5994 21.3494C11.3962 21.5525 11.1207 21.6667 10.8333 21.6667Z" fill="black"/>
<path d="M8.75766 16.9216C8.61529 16.9217 8.4743 16.8937 8.34275 16.8393C7.35567 16.4293 6.48493 15.7822 5.80762 14.9554C5.13032 14.1286 4.66736 13.1475 4.45974 12.099C4.25213 11.0506 4.30627 9.96707 4.61736 8.94452C4.92846 7.92197 5.48691 6.99191 6.24326 6.23672C6.99961 5.48152 7.93052 4.92449 8.95355 4.61496C9.97657 4.30543 11.0601 4.25295 12.1083 4.46217C13.1564 4.67139 14.1368 5.13585 14.9626 5.81442C15.7884 6.49299 16.4341 7.36472 16.8426 8.35243C16.8998 8.48439 16.9302 8.62643 16.932 8.77026C16.9338 8.91409 16.9069 9.05684 16.8529 9.19017C16.7989 9.3235 16.7189 9.44474 16.6176 9.54683C16.5162 9.64891 16.3956 9.72979 16.2626 9.78475C16.1297 9.83971 15.9872 9.86764 15.8433 9.86692C15.6995 9.8662 15.5572 9.83684 15.4248 9.78055C15.2925 9.72427 15.1726 9.64218 15.0723 9.53909C14.972 9.436 14.8932 9.31396 14.8406 9.18009C14.5676 8.52222 14.1368 7.94177 13.5861 7.49009C13.0354 7.03842 12.3818 6.72945 11.6832 6.59053C10.9847 6.45161 10.2627 6.48702 9.58104 6.69362C8.89942 6.90022 8.27924 7.27165 7.77537 7.77504C7.2715 8.27843 6.89948 8.89826 6.69222 9.57967C6.48497 10.2611 6.44887 10.9831 6.58712 11.6818C6.72538 12.3805 7.03372 13.0343 7.48487 13.5855C7.93601 14.1366 8.51605 14.568 9.17366 14.8416C9.40542 14.9375 9.59671 15.1109 9.71491 15.3321C9.8331 15.5533 9.87088 15.8087 9.82179 16.0546C9.7727 16.3006 9.63978 16.5219 9.44572 16.6808C9.25166 16.8397 9.00848 16.9263 8.75766 16.9259V16.9216Z" fill="black"/>
</g>
<defs>
<clipPath id="clip0_9_2345">
<rect width="26" height="26" fill="white"/>
</clipPath>
</defs>
</svg>
