<svg width="66" height="66" viewBox="0 0 66 66" fill="none" xmlns="http://www.w3.org/2000/svg">
<circle cx="33" cy="33" r="33" fill="#ED1C24"/>
<path d="M49.3453 46.7411L48.0576 45.4534L45.9891 43.3885L49.3238 40.0538C49.4658 39.9117 49.5696 39.736 49.6257 39.5431C49.6819 39.3502 49.6885 39.1463 49.645 38.9502C49.6015 38.7541 49.5093 38.5721 49.3769 38.421C49.2445 38.2699 49.0761 38.1546 48.8874 38.0858L38.1636 34.1951C37.7364 34.0407 37.2741 34.0112 36.8308 34.1099C36.3875 34.2087 35.9814 34.4317 35.6602 34.7528C35.339 35.0739 35.1158 35.4799 35.0169 35.9232C34.918 36.3665 34.9473 36.8288 35.1015 37.256L39.003 47.9798C39.0715 48.1687 39.1865 48.3373 39.3373 48.47C39.4882 48.6027 39.6701 48.6952 39.8662 48.739C39.9514 48.7576 40.0384 48.7668 40.1257 48.7665C40.4428 48.7665 40.7468 48.6405 40.971 48.4162L44.3021 45.0756L46.367 47.1404L47.6547 48.4282C47.8802 48.646 48.1822 48.7665 48.4957 48.7638C48.8092 48.761 49.1091 48.6353 49.3308 48.4136C49.5525 48.1919 49.6782 47.892 49.6809 47.5785C49.6837 47.265 49.5631 46.963 49.3453 46.7375V46.7411ZM40.6087 45.3924L37.3518 36.437L46.3072 39.6939L40.6087 45.3924Z" fill="white"/>
<path d="M32.9565 44C30.5917 44 28.2801 43.2987 26.3138 41.9849C24.3476 40.6711 22.8151 38.8038 21.9101 36.619C21.0052 34.4342 20.7684 32.0302 21.2297 29.7108C21.6911 27.3915 22.8298 25.2611 24.502 23.5889C26.1741 21.9168 28.3046 20.778 30.6239 20.3167C32.9433 19.8553 35.3473 20.0921 37.5321 20.9971C39.7169 21.902 41.5842 23.4345 42.898 25.4008C44.2118 27.367 44.913 29.6787 44.913 32.0434C44.913 32.3605 44.7871 32.6647 44.5628 32.8889C44.3386 33.1131 44.0345 33.2391 43.7174 33.2391C43.4003 33.2391 43.0962 33.1131 42.8719 32.8889C42.6477 32.6647 42.5217 32.3605 42.5217 32.0434C42.5217 30.1516 41.9607 28.3023 40.9097 26.7293C39.8587 25.1563 38.3648 23.9303 36.617 23.2063C34.8692 22.4824 32.9459 22.2929 31.0904 22.662C29.235 23.0311 27.5306 23.9421 26.1929 25.2798C24.8552 26.6175 23.9442 28.3219 23.5751 30.1774C23.206 32.0328 23.3954 33.9561 24.1194 35.7039C24.8434 37.4517 26.0694 38.9456 27.6424 39.9966C29.2154 41.0477 31.0647 41.6087 32.9565 41.6087C33.2736 41.6087 33.5778 41.7346 33.802 41.9589C34.0262 42.1831 34.1522 42.4872 34.1522 42.8043C34.1522 43.1214 34.0262 43.4255 33.802 43.6498C33.5778 43.874 33.2736 44 32.9565 44Z" fill="white"/>
<path d="M30.6653 38.763C30.5082 38.7631 30.3526 38.7322 30.2074 38.6722C29.118 38.2197 28.1569 37.5055 27.4094 36.593C26.6619 35.6804 26.1509 34.5976 25.9218 33.4405C25.6927 32.2833 25.7524 31.0875 26.0958 29.9589C26.4391 28.8303 27.0555 27.8039 27.8902 26.9704C28.725 26.1369 29.7524 25.5221 30.8815 25.1805C32.0106 24.8388 33.2065 24.7809 34.3633 25.0118C35.5202 25.2427 36.6022 25.7554 37.5136 26.5043C38.425 27.2532 39.1377 28.2153 39.5885 29.3054C39.6517 29.4511 39.6852 29.6078 39.6872 29.7666C39.6891 29.9253 39.6594 30.0829 39.5999 30.23C39.5403 30.3772 39.452 30.511 39.3401 30.6237C39.2283 30.7363 39.0951 30.8256 38.9484 30.8862C38.8017 30.9469 38.6444 30.9777 38.4856 30.9769C38.3269 30.9761 38.1698 30.9437 38.0238 30.8816C37.8777 30.8195 37.7454 30.7289 37.6347 30.6151C37.524 30.5013 37.437 30.3666 37.3789 30.2189C37.0777 29.4928 36.6021 28.8522 35.9943 28.3537C35.3865 27.8552 34.6652 27.5142 33.8942 27.3609C33.1232 27.2075 32.3263 27.2466 31.5741 27.4746C30.8218 27.7027 30.1373 28.1126 29.5812 28.6682C29.0251 29.2238 28.6145 29.9078 28.3857 30.6599C28.157 31.412 28.1172 32.2088 28.2697 32.98C28.4223 33.7511 28.7626 34.4727 29.2606 35.081C29.7585 35.6893 30.3987 36.1655 31.1245 36.4674C31.3802 36.5732 31.5914 36.7646 31.7218 37.0087C31.8523 37.2529 31.894 37.5347 31.8398 37.8062C31.7856 38.0776 31.6389 38.3219 31.4247 38.4973C31.2105 38.6726 30.9421 38.7683 30.6653 38.7678V38.763Z" fill="white"/>
</svg>
