<svg width="66" height="66" viewBox="0 0 66 66" fill="none" xmlns="http://www.w3.org/2000/svg">
<circle cx="33" cy="33" r="33" fill="#17479E"/>
<path d="M45.7423 21.9838C45.3494 21.6545 44.8887 21.416 44.393 21.2853C43.8973 21.1546 43.3788 21.135 42.8747 21.2278L35.6647 22.538C34.6329 22.724 33.6941 23.2526 33 24.0383C32.3064 23.2513 31.3675 22.7214 30.3353 22.5345L23.1253 21.2243C22.6211 21.1327 22.1028 21.153 21.6073 21.2837C21.1117 21.4145 20.6509 21.6524 20.2574 21.9808C19.8639 22.3092 19.5474 22.72 19.3301 23.1842C19.1128 23.6484 19.0001 24.1546 19 24.6671V44.3068L33 46.8536L47 44.3068V24.6671C47 24.155 46.8874 23.6491 46.6701 23.1854C46.4527 22.7216 46.136 22.3114 45.7423 21.9838ZM31.8333 44.2671L21.3333 42.3608V24.6671C21.3335 24.4963 21.3711 24.3276 21.4436 24.1729C21.5161 24.0183 21.6217 23.8814 21.7529 23.772C21.8841 23.6627 22.0377 23.5834 22.2029 23.5399C22.3681 23.4964 22.5408 23.4897 22.7088 23.5203L29.9177 24.8305C30.4553 24.9283 30.9415 25.2117 31.2916 25.6313C31.6417 26.0508 31.8334 26.58 31.8333 27.1265V44.2671ZM44.6667 42.3585L34.1667 44.2671V27.1265C34.1666 26.58 34.3583 26.0508 34.7084 25.6313C35.0585 25.2117 35.5447 24.9283 36.0823 24.8305L43.2912 23.5203C43.4592 23.4897 43.6319 23.4964 43.7971 23.5399C43.9623 23.5834 44.1159 23.6627 44.2471 23.772C44.3783 23.8814 44.4839 24.0183 44.5564 24.1729C44.6289 24.3276 44.6665 24.4963 44.6667 24.6671V42.3585Z" fill="white"/>
</svg>
