<svg width="66" height="66" viewBox="0 0 66 66" fill="none" xmlns="http://www.w3.org/2000/svg">
<circle cx="33" cy="33" r="33" fill="#FF9E18"/>
<path d="M24.875 39.25C25.9105 39.25 26.75 38.4105 26.75 37.375C26.75 36.3395 25.9105 35.5 24.875 35.5C23.8395 35.5 23 36.3395 23 37.375C23 38.4105 23.8395 39.25 24.875 39.25Z" fill="white"/>
<path d="M41.75 21.75H24.25C22.593 21.752 21.0044 22.4111 19.8328 23.5828C18.6611 24.7544 18.002 26.343 18 28L18 38C18.002 39.657 18.6611 41.2456 19.8328 42.4172C21.0044 43.5889 22.593 44.248 24.25 44.25H41.75C43.407 44.248 44.9956 43.5889 46.1672 42.4172C47.3389 41.2456 47.998 39.657 48 38V28C47.998 26.343 47.3389 24.7544 46.1672 23.5828C44.9956 22.4111 43.407 21.752 41.75 21.75ZM24.25 24.25H41.75C42.7446 24.25 43.6984 24.6451 44.4017 25.3483C45.1049 26.0516 45.5 27.0054 45.5 28H20.5C20.5 27.0054 20.8951 26.0516 21.5983 25.3483C22.3016 24.6451 23.2554 24.25 24.25 24.25ZM41.75 41.75H24.25C23.2554 41.75 22.3016 41.3549 21.5983 40.6517C20.8951 39.9484 20.5 38.9946 20.5 38V30.5H45.5V38C45.5 38.9946 45.1049 39.9484 44.4017 40.6517C43.6984 41.3549 42.7446 41.75 41.75 41.75Z" fill="white"/>
</svg>
