<svg width="66" height="66" viewBox="0 0 66 66" fill="none" xmlns="http://www.w3.org/2000/svg">
<circle cx="33" cy="33" r="33" fill="#9600DD"/>
<path d="M40.5096 28.6111C40.5096 29.4388 40.1808 30.2326 39.5956 30.8178C39.0103 31.4031 38.2165 31.7319 37.3888 31.7319C36.5611 31.7319 35.7674 31.4031 35.1821 30.8178C34.5968 30.2326 34.268 29.4388 34.268 28.6111C34.268 27.7834 34.5968 26.9896 35.1821 26.4043C35.7674 25.8191 36.5611 25.4903 37.3888 25.4903C38.2165 25.4903 39.0103 25.8191 39.5956 26.4043C40.1808 26.9896 40.5096 27.7834 40.5096 28.6111ZM40.5021 37.182C40.4336 39.1655 39.9384 41.1108 39.0503 42.8856C38.2321 44.433 37.0035 45.7251 35.4993 46.6203C33.9951 47.5154 32.2734 47.979 30.5231 47.9601H29.2748V41.0943C29.2692 39.9372 28.8071 38.8292 27.9889 38.011C27.1708 37.1928 26.0627 36.7307 24.9057 36.7252H18.0399V35.4768C18.021 33.7265 18.4846 32.0048 19.3797 30.5006C20.2748 28.9964 21.567 27.7678 23.1143 26.9496C24.8892 26.0615 26.8345 25.5663 28.8179 25.4978C30.6365 23.1487 32.972 21.2504 35.6431 19.9501C38.3141 18.6499 41.2489 17.9827 44.2196 18.0003C44.7139 17.9972 45.204 18.0917 45.6617 18.2784C46.1195 18.465 46.5358 18.7402 46.887 19.0881C47.2382 19.436 47.5172 19.8498 47.7081 20.3058C47.899 20.7618 47.998 21.251 47.9995 21.7453C48.0207 24.7216 47.3552 27.6626 46.0549 30.3399C44.7546 33.0172 42.8544 35.3585 40.5021 37.182ZM20.6414 34.2285H23.4651C24.3922 32.1638 25.4812 30.1757 26.722 28.2828C25.8602 28.4833 25.0251 28.785 24.2341 29.1816C23.2828 29.6839 22.4624 30.402 21.8385 31.2784C21.2146 32.1549 20.8047 33.1652 20.6414 34.2285ZM37.7171 39.278C35.8243 40.5188 33.8361 41.6078 31.7714 42.5348V45.3586C32.8347 45.1953 33.8451 44.7854 34.7215 44.1615C35.5979 43.5376 36.316 42.7172 36.8184 41.7659C37.2149 40.9749 37.5166 40.1398 37.7171 39.278ZM45.5029 21.7104C45.4938 21.3854 45.3582 21.0768 45.1251 20.8502C44.892 20.6236 44.5797 20.4969 44.2546 20.497C37.8133 20.6805 33.4566 23.1484 29.2523 29.013C28.0791 30.7023 27.0474 32.4855 26.1677 34.3446C27.5308 34.5985 28.785 35.2591 29.7654 36.2395C30.7459 37.2199 31.4065 38.4742 31.6603 39.8372C33.5194 38.9576 35.3026 37.9259 36.9919 36.7526C42.8515 32.5433 45.3194 28.1866 45.5029 21.7104ZM25.6821 40.3191C26.3797 41.0238 26.7709 41.9752 26.7709 42.9668C26.7709 43.9583 26.3797 44.9098 25.6821 45.6145C24.5499 46.7454 21.1607 47.4432 19.7551 47.6917L18 48L18.3083 46.2449C18.558 44.8393 19.2546 41.4501 20.3855 40.3178C21.0993 39.6371 22.0478 39.2574 23.0341 39.2576C24.0204 39.2578 24.9687 39.638 25.6821 40.3191ZM24.2815 42.9668C24.282 42.8028 24.2499 42.6403 24.1871 42.4888C24.1243 42.3373 24.0321 42.1998 23.9158 42.0842C23.6817 41.8502 23.3642 41.7187 23.0332 41.7187C22.7022 41.7187 22.3847 41.8502 22.1506 42.0842C21.6747 42.9434 21.3405 43.8737 21.1607 44.8393C22.1267 44.6588 23.0573 44.3241 23.917 43.8481C24.033 43.7325 24.1249 43.5951 24.1874 43.4439C24.25 43.2926 24.282 43.1305 24.2815 42.9668Z" fill="white"/>
</svg>
