<svg width="33" height="29" viewBox="0 0 33 29" fill="none" xmlns="http://www.w3.org/2000/svg">
<path d="M12.0324 22.265C12.9011 21.9501 13.3502 20.9905 13.0353 20.1217C12.7204 19.253 11.7608 18.8039 10.8921 19.1188C10.0233 19.4337 9.57423 20.3933 9.88912 21.262C10.204 22.1308 11.1636 22.5799 12.0324 22.265Z" fill="black"/>
<path d="M20.8688 2.45145L6.18672 7.77284C4.79715 8.27836 3.66481 9.3144 3.03808 10.6537C2.41136 11.993 2.34142 13.5262 2.84361 14.9169L5.88441 23.3067C6.38993 24.6963 7.42597 25.8286 8.76526 26.4554C10.1045 27.0821 11.6377 27.152 13.0285 26.6498L27.7106 21.3284C29.1002 20.8229 30.2325 19.7869 30.8593 18.4476C31.486 17.1083 31.5559 15.5751 31.0537 14.1843L28.0129 5.79455C27.5074 4.40498 26.4714 3.27264 25.1321 2.64591C23.7928 2.01919 22.2596 1.94925 20.8688 2.45145ZM6.94692 9.87028L21.629 4.54889C22.4634 4.24646 23.3838 4.28789 24.1877 4.66406C24.9915 5.04024 25.6131 5.72034 25.9155 6.55475L4.94106 14.1567C4.63863 13.3223 4.68006 12.402 5.05623 11.5981C5.43241 10.7942 6.11251 10.1727 6.94692 9.87028ZM26.9504 19.231L12.2683 24.5524C11.4339 24.8548 10.5135 24.8134 9.70966 24.4372C8.90579 24.061 8.28428 23.3809 7.98185 22.5465L5.70126 16.2542L26.6757 8.65219L28.9563 14.9445C29.2587 15.7789 29.2173 16.6993 28.8411 17.5032C28.4649 18.307 27.7848 18.9286 26.9504 19.231Z" fill="black"/>
<path d="M11 26H26" stroke="black" stroke-width="2" stroke-linecap="round"/>
</svg>
