<svg width="32" height="32" viewBox="0 0 32 32" fill="none" xmlns="http://www.w3.org/2000/svg">
<path d="M16 0C7.17733 0 0 7.17733 0 16C0 24.8227 7.17733 32 16 32C24.8227 32 32 24.8227 32 16C32 7.17733 24.8227 0 16 0ZM10.6667 28.2187V28C10.6667 25.0587 13.0587 22.6667 16 22.6667C18.9413 22.6667 21.3333 25.0587 21.3333 28V28.2187C19.6987 28.9347 17.896 29.3333 16 29.3333C14.104 29.3333 12.3013 28.9347 10.6667 28.2187ZM23.9 26.7347C23.292 22.9227 19.9813 20 16 20C12.0187 20 8.70933 22.9227 8.1 26.7347C4.80667 24.304 2.66667 20.3973 2.66667 16C2.66667 8.648 8.648 2.66667 16 2.66667C23.352 2.66667 29.3333 8.648 29.3333 16C29.3333 20.3973 27.1933 24.304 23.9 26.7347ZM16 6.66667C13.0587 6.66667 10.6667 9.05867 10.6667 12C10.6667 14.9413 13.0587 17.3333 16 17.3333C18.9413 17.3333 21.3333 14.9413 21.3333 12C21.3333 9.05867 18.9413 6.66667 16 6.66667ZM16 14.6667C14.5293 14.6667 13.3333 13.4707 13.3333 12C13.3333 10.5293 14.5293 9.33333 16 9.33333C17.4707 9.33333 18.6667 10.5293 18.6667 12C18.6667 13.4707 17.4707 14.6667 16 14.6667Z" fill="black"/>
</svg>
