<?xml version="1.0" encoding="utf-8"?>
<!-- Generator: Adobe Illustrator 27.0.0, SVG Export Plug-In . SVG Version: 6.00 Build 0)  -->
<svg version="1.1" id="Layer_1" xmlns="http://www.w3.org/2000/svg" xmlns:xlink="http://www.w3.org/1999/xlink" x="0px" y="0px"
	 viewBox="0 0 90.2 90.2" style="enable-background:new 0 0 90.2 90.2;" xml:space="preserve">
<style type="text/css">
	.st0{fill:#0100AA;}
</style>
<g>
	<g>
		<path class="st0" d="M82.8,29.9c-2.6,0.7-4.1,3.3-3.4,5.9c0.8,3,1.2,6.2,1.2,9.3c0,9.5-3.7,18.4-10.4,25.1S54.6,80.6,45.1,80.6
			c-9.5,0-18.4-3.7-25.1-10.4S9.6,54.6,9.6,45.1c0-9.5,3.7-18.4,10.4-25.1c6.7-6.7,15.6-10.4,25.1-10.4c4.7,0,9.4,0.9,13.7,2.7
			c2.4,1,5.2-0.1,6.3-2.6c1-2.4-0.1-5.2-2.6-6.3C57,1.2,51.1,0,45.1,0c-6.1,0-12,1.2-17.6,3.5c-5.4,2.3-10.2,5.5-14.3,9.7
			c-4.1,4.1-7.4,9-9.7,14.3C1.2,33.1,0,39,0,45.1c0,6.1,1.2,12,3.5,17.6C5.8,68,9.1,72.8,13.2,77c4.1,4.1,9,7.4,14.3,9.7
			c5.6,2.4,11.5,3.5,17.6,3.5c6.1,0,12-1.2,17.6-3.5C68,84.4,72.8,81.1,77,77c4.1-4.1,7.4-9,9.7-14.3c2.4-5.6,3.5-11.5,3.5-17.6
			c0-4-0.5-8-1.6-11.8C87.9,30.7,85.3,29.2,82.8,29.9z"/>
		<path class="st0" d="M30.1,39.5c-1.9-1.9-4.9-1.9-6.8,0c-1.9,1.9-1.9,4.9,0,6.8l16,16c0.9,0.9,2.1,1.4,3.4,1.4c0.1,0,0.2,0,0.3,0
			c1.4-0.1,2.6-0.7,3.5-1.8l34.2-42.7c1.7-2.1,1.3-5.1-0.7-6.7c-2.1-1.7-5.1-1.3-6.7,0.7L42.4,51.7L30.1,39.5z"/>
	</g>
</g>
</svg>
