<?xml version="1.0" encoding="utf-8"?>
<!-- Generator: Adobe Illustrator 27.0.0, SVG Export Plug-In . SVG Version: 6.00 Build 0)  -->
<svg version="1.1" id="Layer_1" xmlns="http://www.w3.org/2000/svg" xmlns:xlink="http://www.w3.org/1999/xlink" x="0px" y="0px"
	 viewBox="0 0 201.1 167.7" style="enable-background:new 0 0 201.1 167.7;" xml:space="preserve">
<style type="text/css">
	.st0{fill:#FFFFFF;}
</style>
<g>
	<path class="st0" d="M14.3,52.3l17.4,2.6c3.9-5,10-8.1,16.7-8.1H156L18.2,25.9l1.3-8.6c0.8-5.7,6.1-9.6,11.6-8.7l128.6,19.5
		c3.9,0.6,6.5,4.3,6,8.2l-1.6,10.5h8.4l1.4-9.3c1.3-8.5-4.6-16.5-13-17.8L32.3,0.2C22.2-1.3,12.7,5.8,11.2,16.1l-11,74.6
		c-1.5,10.3,5.5,19.9,15.6,21.4l11.1,1.7v-8.6l-9.9-1.5c-5.6-0.8-9.4-6.1-8.6-11.8L14.3,52.3z"/>
	<path class="st0" d="M186.6,50.3H47.1c-7.9,0-14.4,6.7-14.4,14.8v9.5h168.4v-9.5C201.1,57,194.6,50.3,186.6,50.3z"/>
	<path class="st0" d="M32.7,152.9c0,8.1,6.5,14.8,14.4,14.8h139.6c7.9,0,14.4-6.7,14.4-14.8v-48.7H32.7V152.9z"/>
</g>
</svg>
