<?xml version="1.0" encoding="utf-8"?>
<!-- Generator: Adobe Illustrator 27.0.0, SVG Export Plug-In . SVG Version: 6.00 Build 0)  -->
<svg version="1.1" id="Layer_1" xmlns="http://www.w3.org/2000/svg" xmlns:xlink="http://www.w3.org/1999/xlink" x="0px" y="0px"
	 viewBox="0 0 217.4 209.2" style="enable-background:new 0 0 217.4 209.2;" xml:space="preserve">
<style type="text/css">
	.st0{fill-rule:evenodd;clip-rule:evenodd;fill:#FFFFFF;}
</style>
<g id="Layer_x5F_1">
	<path class="st0" d="M67.3,115.3C71.8,90.6,89.2,73.7,103,64c1.9,0.8,3.9,1.3,6.1,1.3h12.2c-0.8,8.2-4.8,16.7-4.8,16.8
		c-0.5,1.1,0,2.5,1.1,3c0.3,0.1,0.6,0.2,1,0.2c0.9,0,1.7-0.5,2.1-1.3c0.2-0.5,4.5-9.6,5.3-18.7h11.3c0.8,9.1,5.1,18.2,5.3,18.7
		c0.4,0.8,1.2,1.3,2.1,1.3c0.3,0,0.7-0.1,1-0.2c1.1-0.5,1.6-1.9,1.1-3c-0.1-0.1-4-8.6-4.8-16.8h12.4c2.4,0,4.7-0.6,6.8-1.6
		c36.2,26.9,40.4,62.8,40.4,77.8c0,0.7,0,1.4,0,2c-3.1-0.2-6.3,0.3-9.4,1.5l-23.4,9.3c-2.7,1.1-4.8,2.4-6.8,4.2
		c0-4.4-1.9-8.7-4.8-12.1c5.8-6,9.1-14.1,9.1-22.6c0-17.9-14.6-32.5-32.5-32.5c-8.7,0-16.9,3.4-23,9.5c-6.1,6.1-9.5,14.3-9.5,23
		c0,1.2,0.1,2.4,0.2,3.6c-7.9-4.5-16.3-8.3-24.8-10.4C73.3,116.2,70.3,115.6,67.3,115.3L67.3,115.3z M153.5,143.3
		c5-5.2,7.9-12.1,7.9-19.5c0-15.4-12.6-28-28-28c-7.5,0-14.5,2.9-19.8,8.2s-8.2,12.3-8.2,19.8c0,2.3,0.3,4.5,0.8,6.7
		c1.7,1,3.3,2.1,4.9,3.2c4,2.7,8.6,5.5,13.5,5.5h6.5v0c-3.9-1-6.7-4.5-6.7-8.7c0-1.2,1-2.3,2.3-2.3c1.2,0,2.3,1,2.3,2.3
		c0,2.4,1.9,4.4,4.4,4.4c0,0,0.1,0,0.1,0c0,0,0.1,0,0.1,0c2.4,0,4.4-2,4.4-4.4c0-2.4-2-4.4-4.4-4.4c-4.9,0-9-4-9-9
		c0-4.2,2.9-7.7,6.7-8.7v-0.1c0-1.2,1-2.3,2.3-2.3c1.3,0,2.3,1,2.3,2.3v0.1c3.9,1,6.7,4.5,6.7,8.7c0,1.2-1,2.3-2.3,2.3
		c-1.2,0-2.3-1-2.3-2.3c0-2.4-2-4.4-4.4-4.4c-2.4,0-4.4,2-4.4,4.4c0,2.4,2,4.4,4.4,4.4c4.9,0,9,4,9,9c0,4.2-2.9,7.7-6.7,8.7v0h6.4
		c1.7,0,3.4,0.3,5,0.7c2.1,0.6,4.1,1.6,5.9,2.9C153.1,143,153.3,143.1,153.5,143.3L153.5,143.3z"/>
	<path class="st0" d="M154.1,60.8h-45c-5.6,0-10.2-4.6-10.2-10.2s4.6-10.2,10.2-10.2h45c5.6,0,10.2,4.6,10.2,10.2
		S159.7,60.8,154.1,60.8L154.1,60.8z"/>
	<path class="st0" d="M141.7,35.8c0.8-8.2,4.8-16.7,4.8-16.8c0.5-1.1,0-2.5-1.1-3c-1.1-0.5-2.5,0-3,1.1c-0.2,0.5-4.5,9.6-5.3,18.7
		h-11.3c-0.8-9.1-5.1-18.3-5.3-18.7c-0.5-1.1-1.9-1.6-3-1.1c-1.1,0.5-1.6,1.9-1.1,3c0.1,0.1,4,8.6,4.8,16.8h-12.2
		c-1,0-1.9,0.1-2.8,0.3L97.1,2.9c-0.2-0.8,0-1.6,0.5-2.1C98.2,0.2,99-0.1,99.7,0l31.7,6.1L163.2,0c0.8-0.1,1.6,0.1,2.1,0.7
		c0.5,0.6,0.7,1.4,0.5,2.1L156.7,36c-0.8-0.1-1.7-0.2-2.6-0.2L141.7,35.8L141.7,35.8z"/>
	<g id="_309793336">
		<path id="_309793528" class="st0" d="M126.8,209.2c-13.8,0-26.4-4.3-27.7-4.7l-51.2-14.4v-68c8-3.1,17.1-3.3,27.3-0.8
			c10.2,2.6,21.4,8,33.5,16.1c3.7,2.5,9.5,5.6,16.1,6.3H142c10.7,0,19.8,14,12.3,21c-5,4.8-14.9,6.7-20.6,7
			c-10.8,0.5-20.8-2.9-31.2-0.8c14.1,0.3,30.9,9.1,49.7,1c9.4-4,9.8-9.8,17.8-13.4l23.4-9.3c8.9-3.6,19.1,0.8,22.7,9.8
			c3.6,8.9-0.8,19.1-9.8,22.7l-62.1,24.7C138.8,208.4,132.6,209.2,126.8,209.2L126.8,209.2z"/>
		<path id="_309793456" class="st0" d="M41,197.1h-7.5v-82.3H41c1.2,0,2.3,1,2.3,2.3v77.7C43.3,196.1,42.3,197.1,41,197.1L41,197.1z
			 M29,197.1H2.3c-1.2,0-2.3-1-2.3-2.3v-77.7c0-1.2,1-2.3,2.3-2.3H29V197.1L29,197.1z M15.7,189.9c-4.8,0-8.7-3.9-8.7-8.7
			s3.9-8.7,8.7-8.7c4.8,0,8.7,3.9,8.7,8.7C24.4,186.1,20.5,189.9,15.7,189.9z M15.7,177.2c-2.3,0-4.1,1.8-4.1,4.1
			c0,2.3,1.8,4.1,4.1,4.1c2.3,0,4.1-1.8,4.1-4.1C19.8,179,18,177.2,15.7,177.2z"/>
	</g>
</g>
</svg>
