<?xml version="1.0" encoding="utf-8"?>
<!-- Generator: Adobe Illustrator 22.0.0, SVG Export Plug-In . SVG Version: 6.00 Build 0)  -->
<svg version="1.1" id="Layer_1" xmlns="http://www.w3.org/2000/svg" xmlns:xlink="http://www.w3.org/1999/xlink" x="0px" y="0px"
	 viewBox="0 0 512 512" style="enable-background:new 0 0 512 512;" xml:space="preserve">
<style type="text/css">
	.st0{fill:#111c4e;}
</style>
<g>
	<path class="st0" d="M400.4,87.6c-3.2-0.1-6.5-0.1-9.7-0.1c-1.4,0-2.9,0-4.3,0c-2.4,0-4.7,0-7.1,0l-2.7,0c0-1.2,0-2.4,0-3.6
		c0-2.7,0-5.2,0-7.7C376.3,61,366.1,50.8,351,50.7c-62.7-0.1-126.6-0.1-190,0c-15,0-25.3,10.2-25.5,25.4c0,2.6,0,5.2,0,7.9
		c0,1.1,0,2.3,0,3.4c-2.3,0-4.6,0-6.8,0c-5.3,0-10.3,0-15.4,0c-7.6,0.1-14.1,2.6-18.8,7.4c-4.7,4.8-7.1,11.3-7,19
		c0.2,15.3,2.3,28.7,6.4,41c10.1,30.1,28.2,49,55.2,57.8c1.4,0.5,2.8,2,3.6,3.3c1.6,2.8,3.2,5.6,4.7,8.4c2.2,4,4.4,8.2,7,12.1
		c12.4,19.3,28.3,35.8,47.4,48.9c8,5.5,11.9,12.9,11.8,22.5c-0.2,13.3-0.1,26.3,0,38.4c0,2.3-0.4,3.4-2.7,4.1c-5.3,1.7-9.9,5-14,10
		c-4.3,5.2-6.6,11.6-7.4,19.9l-1.5,0c-1.3,0-2.6,0-3.8,0c-16.4,0.1-26.6,10.3-26.6,26.8c0,4.7,0,9.3,0,14c0,9.3,0,19-0.1,28.4
		c-0.1,5.8,1.7,9.4,5.9,11.8l0.1,0.1h165.1l0.1-0.1c4.2-2.3,6-6,5.9-11.8c-0.2-9.8-0.1-19.7-0.1-29.3c0-4,0-7.9,0-11.9
		c0-18-9.9-28-27.8-28h-4.1c-1.5-15.3-8.9-25.3-22.5-30.4c-0.7-0.3-1.5-2-1.5-3.2c-0.1-5.3,0-10.7,0-15.9c0-7.1,0-14.5-0.1-21.7
		c-0.2-10.5,3.7-18.2,12.4-24.2c25.1-17.4,44.6-40.4,58-68.3c1.1-2.3,2.6-3.6,5.1-4.4c16.7-5.3,30.4-15.4,40.6-30.1
		c13.7-19.5,20.1-42.8,19.8-71.1C424.2,98,414.1,88.1,400.4,87.6z M376.6,117.3c0-4.2,0-8.5,0-12.7c2.3,0,4.6,0,6.9,0
		c5.9,0,11.5-0.1,17.2,0.1c3.9,0.1,6.7,3.1,6.7,6.8c-0.3,22.2-3.5,50.5-26.1,71.7c-2.1,2-4.5,3.7-6.9,5.3l-0.3,0.2
		c-1.2,0.8-2.5,1.6-4.1,2.5c-0.5,0.3-1.1,0.6-1.6,0.9C376.9,167.3,376.7,141.9,376.6,117.3z M327.6,433.3l0,10.7h-143
		c0-3.7,0-7.3,0-10.9c0-9.2,0-18.7,0.1-28c0.1-4.7,2.9-7.5,7.9-7.8c0.7,0,1.3,0,2,0l18.1,0c34.7,0,69.4,0,104.1,0
		c8.4,0,10.7,2.3,10.7,10.7C327.6,416.4,327.6,424.8,327.6,433.3z M273,295.4c-0.9,3.9-1.4,8-1.4,12c-0.1,12.1-0.1,24.4-0.1,36.2
		c0,3.5,0,7,0,10.5c0,7.7,2.3,10.3,9.8,11.2c8.1,1,13.3,6.5,14,14.8H217c-0.3-7.2,5.4-13.7,13.3-14.8c8.2-1.1,10.2-3.4,10.2-11.6
		c0-4.9,0-9.8,0-14.6c0-10.1-0.1-20.6,0.1-30.9c0.2-15.7-5.9-27.6-18.6-36.5c-30.5-21.3-51.6-50.2-62.6-85.9
		c-4.5-14.5-6.8-30-6.8-45.9c0-20.3,0-40.9,0-60.9l0-1.5c0-7.3,2.6-9.9,9.9-9.9c62.4,0,124.8,0,187.1,0c7.3,0,9.9,2.6,9.9,9.9
		c0,6.2,0,12.3,0.1,18.5c0.1,14.4,0.2,29.3-0.1,43.9c-1.1,54.1-23.5,97.8-66.8,129.9C282.7,277.3,275.5,284.5,273,295.4z
		 M143.7,192.1c-9.9-5.1-17.4-11.9-23.6-21.2c-8.2-12.3-13-27.2-14.8-45.6c-0.4-4.2-0.6-8.3-0.7-12.3c0-5.1,2.8-8.2,7.7-8.3
		c3.1-0.1,6.2-0.1,9.3-0.1c2.3,0,4.6,0,7,0c2.3,0,4.6,0,6.9,0c0,4,0,8,0,12C135.4,141.3,135.2,167,143.7,192.1z"/>
	<path class="st0" d="M309.2,162.6c2.4-2.4,4.9-4.8,7.4-7.2c2.1-2,4.7-5.2,3.2-9.8c-1.1-3.5-3.8-5.4-8.3-6.1
		c-3.7-0.5-7.5-1.1-11.2-1.6c-5.9-0.8-12-1.7-18-2.5c-2.6-0.4-4-1.3-5-3.6c-2.6-5.6-5.4-11.3-8.2-16.8c-1.6-3.2-3.2-6.5-4.8-9.8
		c-1.3-2.6-3.5-6.1-8.2-6.2c-5,0-7.3,3.5-8.6,6.2c-1.8,3.7-3.6,7.3-5.4,11c-2.5,5.1-5.1,10.3-7.6,15.6c-1,2.2-2.3,3.2-4.6,3.5
		c-5.1,0.7-10.2,1.4-15.2,2.1c-4.7,0.7-9.4,1.3-14.1,2c-3.2,0.4-7,1.5-8.5,5.8c-1.3,3.6-0.3,6.9,3.1,10.2c3.3,3.1,6.5,6.3,9.7,9.4
		c3.9,3.8,7.8,7.7,11.8,11.5c1.6,1.5,2,2.9,1.6,5.1c-1.4,7.8-2.8,15.7-4,23.3c-0.4,2.7-0.9,5.4-1.3,8l0,0.1
		c-0.2,3.6,1.2,6.7,3.8,8.3c2.6,1.7,5.9,1.7,9.1,0.1c8.1-4.1,16.6-8.6,27.6-14.5c1.8-1,3.1-1,5,0c7.6,4.1,15.3,8.1,22.8,12l4.4,2.3
		c1.8,0.9,3.5,1.4,5.1,1.4c1.8,0,3.4-0.6,4.9-1.7c2.9-2.2,3.9-5.3,3.1-9.4c-0.8-4.5-1.6-9.2-2.4-13.7c-0.9-5.1-1.8-10.3-2.7-15.4
		c-0.5-2.8,0.1-4.6,2.2-6.5C300.2,171.4,304.8,166.9,309.2,162.6z M275.8,179.8c0.9,4.3,1.6,8.6,2.3,13.2c0.3,1.8,0.6,3.6,0.9,5.4
		c-1.6-0.8-3.1-1.6-4.7-2.4c-3.9-2-7.5-3.8-11-5.9c-2.6-1.6-5.1-2.4-7.6-2.4c-2.5,0-5.1,0.8-7.8,2.5c-3.5,2.1-7.1,4-11,5.9
		c-1.5,0.7-3,1.5-4.5,2.3c0.3-2,0.7-4,1-5.9c0.8-5.1,1.6-9.9,2.5-14.6c0.7-3.6-0.3-6.6-3.1-9.5c-3.4-3.5-6.6-6.9-10.1-10.6
		c-1.2-1.3-2.4-2.6-3.6-3.9c1.4-0.2,2.8-0.4,4.3-0.7c4-0.6,8.2-1.3,12.4-1.7c6.1-0.6,9.7-3.2,11.9-8.6c1.6-3.9,3.5-7.6,5.6-11.6
		c0.8-1.5,1.6-3.1,2.4-4.8c0.8,1.6,1.6,3.1,2.3,4.5c2,3.9,3.9,7.5,5.4,11.3c2.3,5.8,6.3,8.6,12.9,9.1c4,0.3,8,1,11.9,1.6
		c1.4,0.2,2.7,0.4,4,0.6c-1.1,1.2-2.2,2.4-3.3,3.6c-3,3.3-6.1,6.7-9.3,9.8C276,170.9,274.8,174.7,275.8,179.8z"/>
	<path class="st0" d="M261.9,414.8c-1.7-1.6-4.1-2.4-6.9-2.4c-9.5-0.1-19.1-0.1-29.6,0c-5.8,0-9.7,3.4-9.7,8.4
		c0,4.9,3.9,8.4,9.6,8.5c1.9,0,3.9,0,5.8,0c1.5,0,3,0,4.5,0c1.5,0,3,0,4.6,0c1.5,0,3,0,4.5,0c3.4,0,6.9,0,10.3,0
		c5.8-0.1,9.6-3.5,9.7-8.4C264.5,418.5,263.6,416.3,261.9,414.8z"/>
	<path class="st0" d="M287.9,412.4c-4.5,0.1-8.4,4.1-8.3,8.5c0.1,4.5,4,8.3,8.4,8.3c0,0,0.1,0,0.1,0c2.1,0,4.3-1,5.9-2.6
		c1.6-1.6,2.5-3.8,2.5-5.9c0-2.1-1-4.3-2.6-5.9C292.2,413.2,290.1,412.3,287.9,412.4z"/>
</g>
</svg>
