<svg width="82" height="82" viewBox="0 0 82 82" fill="none" xmlns="http://www.w3.org/2000/svg">
<g id="cerrar 1" clip-path="url(#clip0_176_780)">
<g id="Group">
<path id="Vector" d="M41 0C18.3924 0 0 18.3924 0 41C0 63.6076 18.3924 82 41 82C63.6076 82 82 63.6076 82 41C82 18.3924 63.6076 0 41 0ZM41 76.1429C21.6223 76.1429 5.85714 60.3777 5.85714 41C5.85714 21.6223 21.6223 5.85714 41 5.85714C60.3777 5.85714 76.1429 21.6223 76.1429 41C76.1429 60.3777 60.3777 76.1429 41 76.1429Z" fill="#EB001B"/>
<path id="Vector_2" d="M53.5642 28.4358C52.4205 27.292 50.5664 27.292 49.4226 28.4358L41 36.8584L32.5771 28.4355C31.4333 27.2917 29.5792 27.2917 28.4355 28.4355C27.2917 29.5792 27.2917 31.4333 28.4355 32.5771L36.8584 41L28.4355 49.4229C27.2917 50.5667 27.2917 52.4208 28.4355 53.5646C29.0072 54.1363 29.7569 54.4223 30.5063 54.4223C31.2557 54.4223 32.0051 54.1363 32.5771 53.5646L41 45.1417L49.4229 53.5646C49.9946 54.1363 50.7443 54.4223 51.4937 54.4223C52.2431 54.4223 52.9925 54.1363 53.5646 53.5646C54.7083 52.4208 54.7083 50.5667 53.5646 49.4229L45.1417 41L53.5646 32.5771C54.708 31.4337 54.708 29.5792 53.5642 28.4358Z" fill="#EB001B"/>
</g>
</g>
<defs>
<clipPath id="clip0_176_780">
<rect width="82" height="82" fill="white"/>
</clipPath>
</defs>
</svg>
