<?xml version="1.0" encoding="UTF-8" standalone="no"?>
<!-- Generator: Adobe Illustrator 24.0.1, SVG Export Plug-In . SVG Version: 6.00 Build 0)  -->

<svg
   xmlns:dc="http://purl.org/dc/elements/1.1/"
   xmlns:cc="http://creativecommons.org/ns#"
   xmlns:rdf="http://www.w3.org/1999/02/22-rdf-syntax-ns#"
   xmlns:svg="http://www.w3.org/2000/svg"
   xmlns="http://www.w3.org/2000/svg"
   xmlns:sodipodi="http://sodipodi.sourceforge.net/DTD/sodipodi-0.dtd"
   xmlns:inkscape="http://www.inkscape.org/namespaces/inkscape"
   version="1.1"
   id="Layer_1"
   x="0px"
   y="0px"
   viewBox="0 0 600 1100"
   xml:space="preserve"
   sodipodi:docname="elementos-06.2-.svg"
   width="600"
   height="1100"
   inkscape:version="0.92.5 (2060ec1f9f, 2020-04-08)"><metadata
   id="metadata324"><rdf:RDF><cc:Work
       rdf:about=""><dc:format>image/svg+xml</dc:format><dc:type
         rdf:resource="http://purl.org/dc/dcmitype/StillImage" /><dc:title></dc:title></cc:Work></rdf:RDF></metadata><defs
   id="defs322" /><sodipodi:namedview
   pagecolor="#ffffff"
   bordercolor="#666666"
   borderopacity="1"
   objecttolerance="10"
   gridtolerance="10"
   guidetolerance="10"
   inkscape:pageopacity="0"
   inkscape:pageshadow="2"
   inkscape:window-width="1920"
   inkscape:window-height="1013"
   id="namedview320"
   showgrid="false"
   inkscape:zoom="0.50038141"
   inkscape:cx="327.03614"
   inkscape:cy="679.78786"
   inkscape:window-x="0"
   inkscape:window-y="0"
   inkscape:window-maximized="1"
   inkscape:current-layer="Layer_1" />
<style
   type="text/css"
   id="style2">
	.st0{fill:#FFFFFF;}
	.st1{fill:#231F20;}
	.st2{fill:#E4302D;}
	.st3{fill:#F79E1D;}
	.st4{fill:#FAD132;}
	.st5{fill:#E4E8EC;}
	.st6{fill:#EE7C30;}
	.st7{fill:#E9302F;}
	.st8{fill:#1E211C;}
	.st9{fill:#F29E2E;}
</style>

<g
   id="g5221"
   transform="translate(-64.75,111.4)"><g
     transform="translate(0,-234)"
     id="g306">
	<g
   id="g70">
		<g
   id="g50">
			<g
   id="g44">
				<g
   id="g42">
					<g
   id="g8">
						<path
   style="fill:#ffffff"
   inkscape:connector-curvature="0"
   id="path4"
   d="m 248.9,256.1 c 0,6.1 -4.9,11 -11,11 h -72.3 c -6.1,0 -11,-4.9 -11,-11 0,-6.1 4.9,-11 11,-11 h 72.3 c 6.1,0 11,4.9 11,11 z"
   class="st0" />
						<path
   style="fill:#231f20"
   inkscape:connector-curvature="0"
   id="path6"
   d="m 237.9,268.3 h -72.3 c -6.7,0 -12.2,-5.5 -12.2,-12.2 0,-6.7 5.5,-12.2 12.2,-12.2 h 72.3 c 6.7,0 12.2,5.5 12.2,12.2 -0.1,6.8 -5.5,12.2 -12.2,12.2 z m -72.3,-22.1 c -5.5,0 -9.9,4.4 -9.9,9.9 0,5.5 4.4,9.9 9.9,9.9 h 72.3 c 5.5,0 9.9,-4.4 9.9,-9.9 0,-5.5 -4.4,-9.9 -9.9,-9.9 z"
   class="st1" />
					</g>
					<g
   id="g14">
						<path
   style="fill:#ffffff"
   inkscape:connector-curvature="0"
   id="path10"
   d="m 154.5,256.1 c 0,6.1 4.9,11 11,11 h 72.3 c 6.1,0 11,-4.9 11,-11 z"
   class="st0" />
						<path
   style="fill:#231f20"
   inkscape:connector-curvature="0"
   id="path12"
   d="m 237.9,268.3 h -72.3 c -6.7,0 -12.2,-5.5 -12.2,-12.2 V 255 H 250 v 1.1 c 0,6.8 -5.4,12.2 -12.1,12.2 z m -82.2,-11 c 0.6,4.9 4.8,8.8 9.8,8.8 h 72.3 c 5.1,0 9.3,-3.8 9.8,-8.8 z"
   class="st1" />
					</g>
					<g
   id="g20">
						<path
   style="fill:#e4302d"
   inkscape:connector-curvature="0"
   id="path16"
   d="m 201.8,172.4 c -19.8,0 -37.2,15.7 -37.2,33.6 v 39 H 239 v -39 c 0,-17.9 -17.4,-33.6 -37.2,-33.6 z"
   class="st2" />
						<path
   style="fill:#231f20"
   inkscape:connector-curvature="0"
   id="path18"
   d="M 240.2,246.2 H 163.4 V 206 c 0,-18.5 17.9,-34.8 38.4,-34.8 20.4,0 38.4,16.3 38.4,34.8 z M 165.7,244 h 72.2 v -37.9 c 0,-17.3 -16.9,-32.5 -36.1,-32.5 -19.2,0 -36.1,15.2 -36.1,32.5 z"
   class="st1" />
					</g>
					<g
   id="g24">
						<path
   style="fill:#e4302d"
   inkscape:connector-curvature="0"
   id="path22"
   d="m 203.2,147.6 c 0,0.8 -0.6,1.4 -1.4,1.4 -0.8,0 -1.4,-0.6 -1.4,-1.4 v -20.1 c 0,-0.8 0.6,-1.4 1.4,-1.4 0.8,0 1.4,0.6 1.4,1.4 z"
   class="st2" />
					</g>
					<g
   id="g28">
						<path
   style="fill:#e4302d"
   inkscape:connector-curvature="0"
   id="path26"
   d="m 256.9,204.1 c -0.8,0 -1.4,-0.6 -1.4,-1.4 0,-0.8 0.6,-1.4 1.4,-1.4 h 20.2 c 0.8,0 1.4,0.6 1.4,1.4 0,0.8 -0.6,1.4 -1.4,1.4 z"
   class="st2" />
					</g>
					<g
   id="g32">
						<path
   style="fill:#e4302d"
   inkscape:connector-curvature="0"
   id="path30"
   d="m 126.4,204.1 c -0.8,0 -1.4,-0.6 -1.4,-1.4 0,-0.8 0.6,-1.4 1.4,-1.4 h 20.2 c 0.8,0 1.4,0.6 1.4,1.4 0,0.8 -0.6,1.4 -1.4,1.4 z"
   class="st2" />
					</g>
					<g
   id="g36">
						<path
   style="fill:#e4302d"
   inkscape:connector-curvature="0"
   id="path34"
   d="m 241.7,164.7 c -0.6,0.6 -1.5,0.6 -2,0 -0.6,-0.5 -0.6,-1.4 0,-2 l 14.2,-14.3 c 0.6,-0.5 1.4,-0.5 2,0 0.6,0.6 0.6,1.5 0,2 z"
   class="st2" />
					</g>
					<g
   id="g40">
						<path
   style="fill:#e4302d"
   inkscape:connector-curvature="0"
   id="path38"
   d="m 147.5,150.5 c -0.6,-0.6 -0.6,-1.5 0,-2 0.6,-0.6 1.4,-0.6 2,0 l 14.2,14.2 c 0.6,0.6 0.6,1.5 0,2 -0.6,0.6 -1.4,0.6 -2,0 z"
   class="st2" />
					</g>
				</g>
			</g>
			<g
   id="g48">
				<path
   style="fill:#ffffff"
   inkscape:connector-curvature="0"
   id="path46"
   d="m 185,237.9 h -6.5 v -31.8 c 0,-8.7 2.8,-18.4 9.4,-23.2 1.6,-1.2 3.7,-1.6 5.7,-2.2 -5.2,5.6 -8.6,15.5 -8.6,25.3 z"
   class="st0" />
			</g>
		</g>
		<g
   id="g56">
			<rect
   style="fill:#ffffff"
   id="rect52"
   height="29.4"
   width="180.60001"
   class="st0"
   y="255.8"
   x="110.5" />
			<path
   style="fill:#231f20"
   inkscape:connector-curvature="0"
   id="path54"
   d="M 293.3,287.5 H 108.2 v -34 h 185.1 z m -180.5,-4.6 h 176 V 258 h -176 z"
   class="st1" />
		</g>
		<g
   id="g62">
			<rect
   style="fill:#ffffff"
   id="rect58"
   height="29.4"
   width="79.300003"
   class="st0"
   y="255.8"
   x="161.10001" />
			<path
   style="fill:#231f20"
   inkscape:connector-curvature="0"
   id="path60"
   d="M 241.6,286.4 H 160 v -31.7 h 81.6 z m -79.3,-2.3 h 77 V 257 h -77 z"
   class="st1" />
		</g>
		<g
   id="g68">
			<rect
   style="fill:#ffffff"
   id="rect64"
   height="3.5"
   width="180.60001"
   class="st0"
   y="281.70001"
   x="110.5" />
			<path
   style="fill:#231f20"
   inkscape:connector-curvature="0"
   id="path66"
   d="M 292.2,286.4 H 109.4 v -5.8 h 182.8 z m -180.6,-2.3 h 178.3 v -1.2 H 111.6 Z"
   class="st1" />
		</g>
	</g>
	<g
   id="g140">
		<g
   id="g120">
			<g
   id="g114">
				<g
   id="g112">
					<g
   id="g76">
						<path
   style="fill:#ffffff"
   inkscape:connector-curvature="0"
   id="path72"
   d="m 537.7,256.1 c 0,6.1 -4.9,11 -11,11 h -72.3 c -6.1,0 -11,-4.9 -11,-11 0,-6.1 4.9,-11 11,-11 h 72.3 c 6.1,0 11,4.9 11,11 z"
   class="st0" />
						<path
   style="fill:#231f20"
   inkscape:connector-curvature="0"
   id="path74"
   d="m 526.7,268.3 h -72.3 c -6.7,0 -12.2,-5.5 -12.2,-12.2 0,-6.7 5.5,-12.2 12.2,-12.2 h 72.3 c 6.7,0 12.2,5.5 12.2,12.2 0,6.8 -5.5,12.2 -12.2,12.2 z m -72.3,-22.1 c -5.5,0 -9.9,4.4 -9.9,9.9 0,5.5 4.4,9.9 9.9,9.9 h 72.3 c 5.5,0 9.9,-4.4 9.9,-9.9 0,-5.5 -4.4,-9.9 -9.9,-9.9 z"
   class="st1" />
					</g>
					<g
   id="g82">
						<path
   style="fill:#ffffff"
   inkscape:connector-curvature="0"
   id="path78"
   d="m 443.3,256.1 c 0,6.1 4.9,11 11,11 h 72.3 c 6.1,0 11,-4.9 11,-11 z"
   class="st0" />
						<path
   style="fill:#231f20"
   inkscape:connector-curvature="0"
   id="path80"
   d="m 526.7,268.3 h -72.3 c -6.7,0 -12.2,-5.5 -12.2,-12.2 V 255 h 96.7 v 1.1 c 0,6.8 -5.5,12.2 -12.2,12.2 z m -82.2,-11 c 0.6,4.9 4.8,8.8 9.8,8.8 h 72.3 c 5.1,0 9.3,-3.8 9.8,-8.8 z"
   class="st1" />
					</g>
					<g
   id="g86">
						<path
   style="fill:#f79e1d"
   inkscape:connector-curvature="0"
   id="path84"
   d="m 490.6,172.4 c -19.8,0 -37.2,15.7 -37.2,33.6 v 39 h 74.5 v -39 c 0,-17.9 -17.5,-33.6 -37.3,-33.6 z"
   class="st3" />
					</g>
					<g
   id="g90">
						<path
   style="fill:#231f20"
   inkscape:connector-curvature="0"
   id="path88"
   d="M 529,246.2 H 452.2 V 206 c 0,-18.5 17.9,-34.8 38.4,-34.8 20.5,0 38.4,16.3 38.4,34.8 z M 454.5,244 h 72.2 v -37.9 c 0,-17.3 -16.9,-32.5 -36.1,-32.5 -19.2,0 -36.1,15.2 -36.1,32.5 z"
   class="st1" />
					</g>
					<g
   id="g94">
						<path
   style="fill:#fad132"
   inkscape:connector-curvature="0"
   id="path92"
   d="m 492,147.6 c 0,0.8 -0.6,1.4 -1.4,1.4 -0.8,0 -1.4,-0.6 -1.4,-1.4 v -20.1 c 0,-0.8 0.6,-1.4 1.4,-1.4 0.8,0 1.4,0.6 1.4,1.4 z"
   class="st4" />
					</g>
					<g
   id="g98">
						<path
   style="fill:#fad132"
   inkscape:connector-curvature="0"
   id="path96"
   d="m 545.7,204.1 c -0.8,0 -1.4,-0.6 -1.4,-1.4 0,-0.8 0.6,-1.4 1.4,-1.4 h 20.1 c 0.8,0 1.4,0.6 1.4,1.4 0,0.8 -0.6,1.4 -1.4,1.4 z"
   class="st4" />
					</g>
					<g
   id="g102">
						<path
   style="fill:#fad132"
   inkscape:connector-curvature="0"
   id="path100"
   d="m 415.3,204.1 c -0.8,0 -1.4,-0.6 -1.4,-1.4 0,-0.8 0.6,-1.4 1.4,-1.4 h 20.2 c 0.8,0 1.4,0.6 1.4,1.4 0,0.8 -0.6,1.4 -1.4,1.4 z"
   class="st4" />
					</g>
					<g
   id="g106">
						<path
   style="fill:#fad132"
   inkscape:connector-curvature="0"
   id="path104"
   d="m 530.6,164.7 c -0.6,0.6 -1.4,0.6 -2,0 -0.5,-0.5 -0.5,-1.4 0,-2 l 14.2,-14.3 c 0.5,-0.5 1.5,-0.5 2,0 0.6,0.6 0.6,1.5 0,2 z"
   class="st4" />
					</g>
					<g
   id="g110">
						<path
   style="fill:#fad132"
   inkscape:connector-curvature="0"
   id="path108"
   d="m 436.3,150.5 c -0.6,-0.6 -0.6,-1.5 0,-2 0.6,-0.6 1.4,-0.6 2,0 l 14.2,14.2 c 0.6,0.6 0.6,1.5 0,2 -0.5,0.6 -1.4,0.6 -2,0 z"
   class="st4" />
					</g>
				</g>
			</g>
			<g
   id="g118">
				<path
   style="fill:#ffffff"
   inkscape:connector-curvature="0"
   id="path116"
   d="m 473.8,237.9 h -6.5 v -31.8 c 0,-8.7 2.8,-18.4 9.4,-23.2 1.6,-1.2 3.7,-1.6 5.7,-2.2 -5.2,5.6 -8.6,15.5 -8.6,25.3 z"
   class="st0" />
			</g>
		</g>
		<g
   id="g126">
			<rect
   style="fill:#ffffff"
   id="rect122"
   height="29.4"
   width="180.60001"
   class="st0"
   y="255.8"
   x="399.29999" />
			<path
   style="fill:#231f20"
   inkscape:connector-curvature="0"
   id="path124"
   d="M 582.2,287.5 H 397 v -34 h 185.1 v 34 z m -180.6,-4.6 h 176 V 258 h -176 z"
   class="st1" />
		</g>
		<g
   id="g132">
			<rect
   style="fill:#ffffff"
   id="rect128"
   height="29.4"
   width="79.300003"
   class="st0"
   y="255.8"
   x="449.89999" />
			<path
   style="fill:#231f20"
   inkscape:connector-curvature="0"
   id="path130"
   d="m 530.4,286.4 h -81.6 v -31.7 h 81.6 z m -79.3,-2.3 h 77 V 257 h -77 z"
   class="st1" />
		</g>
		<g
   id="g138">
			<rect
   style="fill:#ffffff"
   id="rect134"
   height="3.5"
   width="180.60001"
   class="st0"
   y="281.70001"
   x="399.29999" />
			<path
   style="fill:#231f20"
   inkscape:connector-curvature="0"
   id="path136"
   d="M 581,286.4 H 398.2 v -5.8 H 581 Z m -180.5,-2.3 h 178.3 v -1.2 H 400.5 Z"
   class="st1" />
		</g>
	</g>
	<g
   id="g146">
		<rect
   style="fill:#ffffff"
   id="rect142"
   height="380.29999"
   width="499.29999"
   class="st0"
   y="288.39999"
   x="93.900002" />
		<path
   style="fill:#231f20"
   inkscape:connector-curvature="0"
   id="path144"
   d="M 595.5,671 H 91.7 V 286.1 H 595.5 Z M 96.2,666.4 H 590.9 V 290.6 H 96.2 Z"
   class="st1" />
	</g>
	<g
   id="g152">
		<rect
   style="fill:#ffffff"
   id="rect148"
   height="322.60001"
   width="455.20001"
   class="st0"
   y="312.70001"
   x="116" />
		<path
   style="fill:#231f20"
   inkscape:connector-curvature="0"
   id="path150"
   d="M 572.3,636.4 H 114.8 V 311.5 H 572.3 Z M 117.1,634.2 H 570 V 313.8 H 117.1 Z"
   class="st1" />
	</g>
	<g
   id="g158">
		<rect
   style="fill:#ffffff"
   id="rect154"
   height="251.5"
   width="420.79999"
   class="st0"
   y="383.79999"
   x="133.10001" />
		<path
   style="fill:#231f20"
   inkscape:connector-curvature="0"
   id="path156"
   d="M 555.1,636.4 H 132 V 382.6 H 555.1 Z M 134.3,634.2 H 552.9 V 384.9 H 134.3 Z"
   class="st1" />
	</g>
	<g
   id="g170">
		<g
   id="g168">
			<g
   id="g166">
				<g
   id="g164">
					<path
   style="fill:#ffffff"
   inkscape:connector-curvature="0"
   id="path160"
   d="M 617.4,1216.9 H 69.7 v -672 H 617.4 Z M 146.9,1137.3 H 540.2 V 626 H 146.9 Z"
   class="st0" />
					<path
   style="fill:#231f20"
   inkscape:connector-curvature="0"
   id="path162"
   d="M 618.6,1218 H 68.6 V 543.8 h 550 z M 70.9,1215.7 H 616.3 V 546 H 70.9 Z m 470.5,-77.3 H 145.8 V 624.9 h 395.6 z m -393.3,-2.3 h 391 v -509 h -391 z"
   class="st1" />
				</g>
			</g>
		</g>
	</g>
	<g
   id="g180">
		<g
   id="g178">
			<g
   id="g176">
				<path
   style="fill:#ffffff"
   inkscape:connector-curvature="0"
   id="path172"
   d="M 617.4,1216.9 H 69.7 v -672 H 617.4 Z M 146.9,1137.3 H 540.2 V 626 H 146.9 Z"
   class="st0" />
				<path
   style="fill:#231f20"
   inkscape:connector-curvature="0"
   id="path174"
   d="M 619.7,1219.1 H 67.4 V 542.6 H 619.7 Z M 72,1214.6 H 615.1 V 547.2 H 72 Z m 470.5,-75.1 H 144.7 V 623.7 H 542.5 Z M 149.2,1135 H 537.9 V 628.3 H 149.2 Z"
   class="st1" />
			</g>
		</g>
	</g>
	<g
   id="g186">
		<rect
   style="fill:#ffffff"
   id="rect182"
   height="452.29999"
   width="331.10001"
   class="st0"
   y="653.90002"
   x="179.60001" />
		<path
   style="fill:#231f20"
   inkscape:connector-curvature="0"
   id="path184"
   d="M 511.9,1107.3 H 178.5 V 652.8 H 511.9 Z M 180.8,1105 H 509.6 V 655 H 180.8 Z"
   class="st1" />
	</g>
	<g
   id="g190">
		<rect
   style="fill:#e4e8ec"
   id="rect188"
   height="55.299999"
   width="331.10001"
   class="st5"
   y="653.90002"
   x="179.60001" />
	</g>
	<g
   id="g196">
		<rect
   style="fill:#ffffff"
   id="rect192"
   height="315.10001"
   width="331.10001"
   class="st0"
   y="794.09998"
   x="173" />
		<path
   style="fill:#231f20"
   inkscape:connector-curvature="0"
   id="path194"
   d="M 505.3,1110.3 H 171.9 V 792.9 h 333.3 v 317.4 z M 174.2,1108 H 503 V 795.2 H 174.2 Z"
   class="st1" />
	</g>
	<g
   id="g202">
		<path
   style="fill:#ffffff"
   inkscape:connector-curvature="0"
   id="path198"
   d="M 158.7,635.3 V 1129 h 368 V 635.3 Z m 129,457.8 H 194.2 V 668.9 h 93.5 z m 204.1,0 H 398.3 V 668.9 h 93.5 z"
   class="st0" />
		<path
   style="fill:#231f20"
   inkscape:connector-curvature="0"
   id="path200"
   d="M 527.9,1130.2 H 157.6 v -496 h 370.3 z m -368,-2.3 H 525.7 V 636.4 H 159.9 Z m 333,-33.6 H 397.1 V 667.8 h 95.8 z m -93.5,-2.3 h 91.2 V 670.1 h -91.2 z m -110.5,2.3 H 193.2 V 667.8 h 95.7 z m -93.5,-2.3 h 91.2 V 670.1 h -91.2 z"
   class="st1" />
	</g>
	<g
   id="g210">
		<g
   id="g208">
			<path
   style="fill:#ffffff"
   inkscape:connector-curvature="0"
   id="path204"
   d="m 146.9,626 v 511.2 H 540.2 V 626 Z m 380.8,502.9 H 159.8 V 635.3 h 367.9 z"
   class="st0" />
			<path
   style="fill:#231f20"
   inkscape:connector-curvature="0"
   id="path206"
   d="M 540.8,1137.8 H 146.4 V 625.4 h 394.4 z m -393.3,-1.1 H 539.6 V 626.6 H 147.5 Z m 380.8,-7.3 h -369 V 634.7 h 369 z m -367.9,-1.1 H 527.1 V 635.9 H 160.4 Z"
   class="st1" />
		</g>
	</g>
	<g
   id="g238">
		<g
   id="g216">
			<polygon
   style="fill:#ffffff"
   id="polygon212"
   points="584.5,1181.5 584.5,580.2 540.2,626 540.2,1137.3 "
   class="st0" />
			<path
   style="fill:#231f20"
   inkscape:connector-curvature="0"
   id="path214"
   d="m 585.6,1184.3 -46.5,-46.6 V 625.6 l 46.5,-48.1 z m -44.2,-47.5 42,42 V 583.1 l -42,43.4 z"
   class="st1" />
		</g>
		<g
   id="g222">
			<polygon
   style="fill:#ffffff"
   id="polygon218"
   points="102.7,580.2 102.7,1181.5 146.9,1137.3 146.9,626 "
   class="st0" />
			<path
   style="fill:#231f20"
   inkscape:connector-curvature="0"
   id="path220"
   d="M 101.5,1184.3 V 577.4 l 46.6,48.1 v 512.2 z M 103.8,583 v 595.7 l 42,-42 V 626.5 Z"
   class="st1" />
		</g>
		<g
   id="g236">
			<g
   id="g228">
				<polygon
   style="fill:#ffffff"
   id="polygon224"
   points="540.2,626 584.5,580.2 102.7,580.2 146.9,626 "
   class="st0" />
				<path
   style="fill:#231f20"
   inkscape:connector-curvature="0"
   id="path226"
   d="M 540.7,627.2 H 146.5 l -0.3,-0.3 -46.2,-47.8 h 487.2 z m -393.3,-2.3 h 392.3 l 42.1,-43.5 H 105.3 Z"
   class="st1" />
			</g>
			<g
   id="g234">
				<polygon
   style="fill:#ffffff"
   id="polygon230"
   points="102.7,1181.5 584.5,1181.5 540.2,1137.3 146.9,1137.3 "
   class="st0" />
				<path
   style="fill:#231f20"
   inkscape:connector-curvature="0"
   id="path232"
   d="M 587.2,1182.7 H 99.9 l 46.6,-46.6 h 394.2 l 0.3,0.3 z m -481.8,-2.3 h 476.3 l -42,-42 H 147.4 Z"
   class="st1" />
			</g>
		</g>
	</g>
	<g
   id="g258">
		<g
   id="g248">
			<g
   id="g246">
				<g
   id="g244">
					<path
   style="fill:#ffffff"
   inkscape:connector-curvature="0"
   id="path240"
   d="M 519.7,1119.1 H 167.5 c -1.6,0 -2.9,-1.3 -2.9,-2.9 V 643.8 c 0,-1.6 1.3,-2.9 2.9,-2.9 h 352.2 c 1.6,0 2.9,1.3 2.9,2.9 v 472.4 c -0.1,1.7 -1.3,2.9 -2.9,2.9 z m -349.3,-5.7 H 516.8 V 646.7 H 170.4 Z"
   class="st0" />
					<path
   style="fill:#231f20"
   inkscape:connector-curvature="0"
   id="path242"
   d="M 519.7,1119.7 H 167.5 c -1.9,0 -3.5,-1.6 -3.5,-3.5 V 643.8 c 0,-1.9 1.6,-3.5 3.5,-3.5 h 352.2 c 1.9,0 3.4,1.5 3.4,3.5 v 472.4 c 0,2 -1.5,3.5 -3.4,3.5 z M 167.5,641.5 c -1.3,0 -2.3,1 -2.3,2.3 v 472.4 c 0,1.3 1,2.3 2.3,2.3 h 352.2 c 1.3,0 2.3,-1 2.3,-2.3 V 643.8 c 0,-1.3 -1,-2.3 -2.3,-2.3 z m 349.8,472.4 H 169.8 V 646.1 H 517.3 Z M 171,1112.8 H 516.3 V 647.3 H 171 Z"
   class="st1" />
				</g>
			</g>
		</g>
		<g
   id="g256">
			<g
   id="g254">
				<path
   style="fill:#ffffff"
   inkscape:connector-curvature="0"
   id="path250"
   d="M 509.5,1103.6 H 177.6 c -0.5,0 -1,-0.4 -1,-1 V 657.4 c 0,-0.5 0.4,-1 1,-1 h 331.9 c 0.5,0 1,0.4 1,1 v 445.2 c 0,0.6 -0.5,1 -1,1 z"
   class="st0" />
				<path
   style="fill:#231f20"
   inkscape:connector-curvature="0"
   id="path252"
   d="M 509.5,1104.8 H 177.6 c -1.2,0 -2.1,-1 -2.1,-2.1 V 657.4 c 0,-1.2 1,-2.1 2.1,-2.1 h 331.9 c 1.2,0 2.1,1 2.1,2.1 v 445.2 c 0,1.2 -0.9,2.2 -2.1,2.2 z m -0.2,-447.4 -331.7,0.2 0.2,445 331.5,-0.2 z"
   class="st1" />
			</g>
		</g>
	</g>
	<g
   id="g298">
		<g
   id="g264">
			<rect
   style="fill:#ffffff"
   id="rect260"
   height="65.099998"
   width="42.200001"
   class="st0"
   y="742.90002"
   x="617.70001" />
			<path
   style="fill:#231f20"
   inkscape:connector-curvature="0"
   id="path262"
   d="m 662.1,810.3 h -46.7 v -69.7 h 46.7 z m -42.2,-4.5 h 37.6 v -60.6 h -37.6 z"
   class="st1" />
		</g>
		<g
   id="g270">
			<rect
   style="fill:#ffffff"
   id="rect266"
   height="64.800003"
   width="7.9000001"
   class="st0"
   y="743.09998"
   x="617.70001" />
			<path
   style="fill:#231f20"
   inkscape:connector-curvature="0"
   id="path268"
   d="m 626.7,809 h -10.1 v -67.1 h 10.1 z m -7.9,-2.3 h 5.6 v -62.5 h -5.6 z"
   class="st1" />
		</g>
		<g
   id="g276">
			<rect
   style="fill:#ffffff"
   id="rect272"
   height="157.39999"
   width="18.200001"
   class="st0"
   y="590.5"
   x="633.59998" />
			<path
   style="fill:#231f20"
   inkscape:connector-curvature="0"
   id="path274"
   d="m 654.1,750.2 h -22.7 v -162 h 22.7 z m -18.2,-4.6 h 13.6 V 592.8 h -13.6 z"
   class="st1" />
		</g>
		<g
   id="g282">
			<path
   style="fill:#ffffff"
   inkscape:connector-curvature="0"
   id="path278"
   d="M 646.4,590.5 H 639 v 157.4 c 0,2 1.6,3.7 3.7,3.7 2,0 3.7,-1.7 3.7,-3.7 V 590.5 Z"
   class="st0" />
			<path
   style="fill:#231f20"
   inkscape:connector-curvature="0"
   id="path280"
   d="m 642.7,752.7 c -2.7,0 -4.8,-2.2 -4.8,-4.8 V 589.4 h 9.7 V 748 c -0.1,2.6 -2.2,4.7 -4.9,4.7 z m -2.6,-161.1 v 156.3 c 0,1.4 1.1,2.6 2.6,2.6 1.4,0 2.5,-1.1 2.5,-2.5 V 591.6 Z"
   class="st1" />
		</g>
		<g
   id="g290">
			<g
   id="g288">
				<path
   style="fill:#ffffff"
   inkscape:connector-curvature="0"
   id="path284"
   d="m 654.3,578.9 c 6.4,6.4 6.4,16.8 0,23.3 -6.4,6.4 -16.8,6.4 -23.3,0 -6.4,-6.4 -6.4,-16.8 0,-23.3 6.5,-6.5 16.9,-6.5 23.3,0 z"
   class="st0" />
				<path
   style="fill:#231f20"
   inkscape:connector-curvature="0"
   id="path286"
   d="m 642.7,609.2 c -5,0 -9.7,-1.9 -13.2,-5.5 -3.5,-3.5 -5.5,-8.2 -5.5,-13.2 0,-5 2,-9.7 5.5,-13.2 3.5,-3.5 8.2,-5.5 13.2,-5.5 v 0 c 5,0 9.7,2 13.2,5.5 3.5,3.5 5.5,8.2 5.5,13.2 0,5 -2,9.7 -5.5,13.3 -3.5,3.5 -8.2,5.4 -13.2,5.4 z m 0,-32.9 v 0 c -3.8,0 -7.3,1.5 -10,4.2 -2.7,2.7 -4.2,6.2 -4.2,10 0,3.8 1.5,7.3 4.2,10 5.3,5.4 14.7,5.4 20,0 2.7,-2.7 4.2,-6.2 4.2,-10 0,-3.8 -1.5,-7.3 -4.2,-10 v 0 c -2.7,-2.7 -6.2,-4.2 -10,-4.2 z"
   class="st1" />
			</g>
		</g>
		<g
   id="g296">
			<rect
   style="fill:#ffffff"
   id="rect292"
   height="26.4"
   width="37.400002"
   class="st0"
   y="762.29999"
   x="617.70001" />
			<path
   style="fill:#231f20"
   inkscape:connector-curvature="0"
   id="path294"
   d="m 656.2,789.8 h -39.7 v -28.7 h 39.7 z m -37.4,-2.2 h 35.1 v -24.2 h -35.1 z"
   class="st1" />
		</g>
	</g>
	<g
   id="g304">
		<polygon
   style="fill:#ffffff"
   id="polygon300"
   points="552.9,382.8 569.8,312.8 116,312.8 133.4,382.8 "
   class="st0" />
		<path
   style="fill:#231f20"
   inkscape:connector-curvature="0"
   id="path302"
   d="M 553.8,384 H 132.5 l -18,-72.3 H 571.2 Z M 134.3,381.7 H 552 l 16.3,-67.8 H 117.4 Z"
   class="st1" />
	</g>
</g><g
     transform="translate(0,-234)"
     id="g317">
	<g
   id="g315">
		<rect
   style="fill:#ee7c30"
   id="rect308"
   height="83.5"
   width="46.400002"
   class="st6"
   y="419.79999"
   x="321.29999" />
		<path
   style="fill:#e9302f"
   inkscape:connector-curvature="0"
   d="m 324.2,461.5 c 0,-16.9 7.9,-32 20.3,-41.8 -9,-7.1 -20.4,-11.4 -32.8,-11.4 -29.3,0 -53.1,23.8 -53.1,53.1 0,29.3 23.8,53.1 53.1,53.1 12.4,0 23.8,-4.2 32.8,-11.4 -12.3,-9.5 -20.3,-24.6 -20.3,-41.6 z"
   class="st7"
   id="XMLID_28_" />
		<path
   style="fill:#1e211c"
   inkscape:connector-curvature="0"
   id="path311"
   d="m 425.3,494.5 v -1.7 h 0.7 v -0.3 h -1.8 v 0.3 h 0.7 v 1.7 z m 3.4,0 v -2.1 h -0.5 l -0.6,1.4 -0.6,-1.4 h -0.5 v 2.1 h 0.4 v -1.6 l 0.6,1.3 h 0.4 l 0.6,-1.3 v 1.6 z"
   class="st8" />
		<path
   style="fill:#f29e2e"
   inkscape:connector-curvature="0"
   id="path313"
   d="m 430.4,461.5 c 0,29.3 -23.8,53.1 -53.1,53.1 -12.4,0 -23.8,-4.2 -32.8,-11.4 12.3,-9.7 20.3,-24.8 20.3,-41.8 0,-16.9 -7.9,-32 -20.3,-41.8 9,-7.1 20.4,-11.4 32.8,-11.4 29.3,0.2 53.1,24 53.1,53.3 z"
   class="st9" />
	</g>
</g></g>
</svg>