<?xml version="1.0" encoding="utf-8"?>
<!-- Generator: Adobe Illustrator 24.0.1, SVG Export Plug-In . SVG Version: 6.00 Build 0)  -->
<svg version="1.1" id="Layer_1" xmlns="http://www.w3.org/2000/svg" xmlns:xlink="http://www.w3.org/1999/xlink" x="0px" y="0px"
	 viewBox="0 0 542.3 559.1" style="enable-background:new 0 0 542.3 559.1;" xml:space="preserve">
<style type="text/css">
	.st0{fill:#00A;}
</style>
<g>
	<path class="st0" d="M45.6,448.7c0-112.8,0-225.5,0-338.3c0.2-0.5,0.6-1,0.7-1.6c5.8-33.1,31-54.8,64.2-54.8
		C217.7,54,324.8,54,432,54.2c7.1,0,14.4,1.2,21.1,3.4c26.4,8.7,43.5,32.1,43.5,59.9c0.2,108.2,0.1,216.3,0.1,324.5
		c0,0.7,0,1.5-0.1,2.2c-1.8,24.7-13.5,43.1-35.6,54.2c-6.4,3.2-13.8,4.6-20.7,6.7c-112.8,0-225.6,0-338.4,0c-0.7-0.3-1.3-0.7-2-0.8
		c-22.3-3.7-38.6-15.7-48.2-36.1C48.9,462.1,47.6,455.3,45.6,448.7z M388.9,366.7c-37.2-27.6-78.2-41-124.1-37.7
		c-38.9,2.8-74.4,15.9-107.1,37.6c5.3,7.1,10.2,13.7,15.1,20.3c0.5,0.7,1.1,1.3,1.5,1.8c66.1-40.4,131.9-46.2,197.9,0.3
		C377.8,381.7,383.2,374.4,388.9,366.7z M199.1,238.8c8.6,8.6,17.1,17.1,25.2,25.2c6.8-6.8,13.3-13.3,20.7-20.7
		c-8.4-8.2-17-16.6-26.2-25.5c8.5-8.5,17-16.9,25-25c-6.4-6.4-12.9-12.9-19.8-19.8c-8.2,8.2-16.6,16.7-25.5,25.7
		c-8.6-8.7-17.1-17.3-25.1-25.3c-6.8,6.8-13.3,13.3-20.2,20.1c8.2,8.2,16.7,16.6,25.6,25.5c-8.6,8.6-17.2,17.1-25.3,25.2
		c6.8,6.8,13.3,13.2,20.2,20.2C181.9,256.1,190.3,247.6,199.1,238.8z M318.2,265.1c8.6-8.7,17.2-17.2,26.3-26.4
		c8.2,8.4,16.6,17,24.6,25.2c6.6-6.6,13.1-13.1,20.3-20.3c-8.3-8.3-16.9-16.8-26-25.7c8.5-8.5,16.9-16.9,25.1-25.1
		c-6.4-6.4-13-12.9-20.4-20.4c-8.2,8.4-16.6,17.1-25.5,26.3c-8.5-8.6-17-17.1-25.1-25.1c-6.5,6.5-13,13-19.8,19.8
		c8.2,8.2,16.7,16.7,25.5,25.4c-8.6,8.6-17.2,17.1-25.7,25.6C304.4,251.3,310.8,257.7,318.2,265.1z"/>
</g>
</svg>
