<?xml version="1.0" encoding="utf-8"?>
<!-- Generator: Adobe Illustrator 24.0.1, SVG Export Plug-In . SVG Version: 6.00 Build 0)  -->
<svg version="1.1" id="Layer_1" xmlns="http://www.w3.org/2000/svg" xmlns:xlink="http://www.w3.org/1999/xlink" x="0px" y="0px"
	 viewBox="0 0 709 1334" style="enable-background:new 0 0 709 1334;" xml:space="preserve">
<style type="text/css">
	.st0{fill:#F79E1D;}
	.st1{fill:#E91D25;}
	.st2{fill:#FFFFFF;}
</style>
<g>
	<path class="st0" d="M156.8,684.8c110.8,0,221.7,0,332.5,0c0,9.1,0,18.1,0,27.7c2.4,0,4.3,0,6.3,0c24.4,0,48.8-0.2,73.2,0.1
		c5.4,0.1,11.1,1.1,16.2,2.9c8.5,3.1,11.9,10.9,14.5,18.9c0,27.7,0,55.4,0,83.1c-0.4,1.7-0.9,3.4-1.1,5.2
		c-7,54.2-49.6,98.3-103.7,106.9c-4.5,0.7-5.9,2.4-6,6.8c-0.1,19.2-3.3,38-10.4,55.9c-21.1,53.2-59.1,87.8-114.5,102.9
		c-1.5,0.4-2.9,1.1-4.7,1.7c6.2,18.6,12.2,36.8,18.5,55c0.4,1.3,3.2,2.4,4.9,2.5c19.1,0.2,38.1,0,57.2,0.1
		c13.3,0.1,22.6,6.7,26.9,19.2c6.8,19.3,13.5,38.7,20.2,58c0.6,1.7,1,3.5,1.6,5.6c-110.6,0-220.5,0-330.7,0c0.2-1.1,0.2-2,0.5-2.8
		c7.3-20.9,14.4-41.8,21.9-62.6c4-11.2,12.8-16.6,24.4-17.3c5.2-0.3,10.4-0.1,15.7-0.1c15.8,0,31.6,0,47.6,0
		c6.4-19.4,12.8-38.4,19.3-57.9c-2.6-0.7-4.7-1.2-6.7-1.8c-52.4-15.1-89.3-47.6-110.7-97.8c-8.3-19.6-12-40.2-12.4-61.5
		c-0.1-3.3-0.8-5-4.6-5.7C89,918.5,46.8,868.2,46.7,803.5c0-20,0-39.9,0-59.9c0-21.3,9.7-31.1,30.9-31.1c24.3-0.1,48.6,0,72.9,0
		c2.1,0,4.2,0,6.3,0C156.8,702.7,156.8,693.7,156.8,684.8z M378.3,961.1c-4.4-17.8-8.4-34.1-12.7-50.5c-0.9-3.5-0.3-6,1.9-8.9
		c11.7-15.3,23.1-30.7,34.7-46.1c1-1.4,1.9-2.8,3.4-5c-2.9,0-4.8,0-6.8,0c-15.1,0-30.2-0.2-45.3,0.1c-4.4,0.1-6.2-1.4-7.9-5.3
		c-6.3-14.7-13-29.2-19.6-43.8c-0.8-1.7-1.7-3.4-2.9-5.7c-1.2,2.5-2.2,4.2-2.9,5.9c-6.6,14.6-13.3,29.1-19.6,43.8
		c-1.7,4-3.9,5.2-8,5.1c-14.6-0.3-29.1-0.1-43.7-0.1c-2.4,0-4.9,0-8.3,0c1.6,2.3,2.5,3.8,3.6,5.2c11.5,15.4,23.2,30.7,34.5,46.3
		c1.5,2.1,2.4,5.7,1.8,8.2c-3.3,14.7-7.2,29.3-10.9,43.9c-0.5,1.9-0.8,3.9-1.5,6.8c16.7-9.2,32.6-17.6,48.1-26.7
		c5.2-3,9-2.8,14.1,0.1C345.7,943.5,361.5,951.9,378.3,961.1z M489.2,874.7c1,0,1.7,0.2,2.3,0.1c1.2-0.2,2.5-0.5,3.6-0.9
		c18.3-6.1,31.5-18.1,40.6-34.9c12.3-22.5,7.4-46.9,8.5-70.8c-18.8,0-36.9,0-55.1,0C489.2,803.8,489.2,839.2,489.2,874.7z
		 M101.9,768c0,11.7,0.2,22.8,0,34c-0.4,21.9,7.3,40.4,23.2,55.3c9,8.4,19.4,14.6,31.7,17.6c0-35.9,0-71.3,0-106.9
		C138.4,768,120.5,768,101.9,768z"/>
	<path class="st1" d="M451,534.1c-10.2-5.6-19.9-10.8-29.4-16.3c-3.1-1.8-5.4-1.9-8.6-0.1c-9.5,5.5-19.1,10.7-29.4,16.3
		c0.4-1.8,0.6-3,0.9-4.2c2.2-8.9,4.6-17.8,6.6-26.8c0.3-1.5-0.2-3.7-1.1-5c-6.9-9.5-14-18.8-21-28.3c-0.6-0.8-1.2-1.7-2.2-3.1
		c2.1,0,3.6,0,5.1,0c8.9,0,17.8-0.1,26.7,0.1c2.6,0,3.9-0.7,4.9-3.1c3.8-9,7.9-17.8,11.9-26.7c0.5-1.1,1-2.1,1.8-3.6
		c0.7,1.5,1.3,2.5,1.8,3.5c4,8.9,8.1,17.8,12,26.7c1,2.4,2.2,3.3,4.8,3.2c9.2-0.2,18.4-0.1,27.7-0.1c1.2,0,2.4,0,4.1,0
		c-0.9,1.3-1.4,2.2-2.1,3.1c-7,9.4-14,18.8-21.2,28.2c-1.3,1.7-1.7,3.3-1.1,5.4C445.9,513.3,448.3,523.3,451,534.1z"/>
	<path class="st2" d="M330.9,429.7c-14.9-8.2-29-15.7-42.8-23.7c-4.5-2.6-7.9-2.8-12.5-0.1c-13.8,8-27.9,15.5-42.7,23.7
		c0.6-2.6,0.9-4.3,1.3-6c3.3-13,6.7-26,9.6-39c0.5-2.2-0.2-5.4-1.6-7.3c-10-13.8-20.4-27.4-30.6-41.1c-0.9-1.2-1.7-2.5-3.2-4.6
		c3,0,5.2,0,7.4,0c12.9,0,25.9-0.1,38.8,0.1c3.7,0.1,5.6-1,7.2-4.5c5.6-13.1,11.5-26,17.4-38.9c0.7-1.5,1.5-3,2.6-5.3
		c1.1,2.1,1.9,3.6,2.6,5.1c5.8,12.9,11.8,25.8,17.4,38.9c1.5,3.4,3.1,4.8,7,4.7c13.4-0.3,26.9-0.1,40.3-0.1c1.7,0,3.4,0,6,0
		c-1.3,1.9-2.1,3.2-3,4.4c-10.2,13.7-20.4,27.4-30.8,41c-1.9,2.5-2.5,4.8-1.6,7.9C323.4,399.3,326.9,413.9,330.9,429.7z"/>
	<path class="st1" d="M636.7,274.1c-22.3-12.3-43.4-23.5-64.1-35.4c-6.7-3.9-11.8-4.2-18.7-0.2c-20.6,12-41.7,23.2-64,35.5
		c0.8-3.8,1.3-6.5,2-9.1c4.9-19.5,10-38.9,14.4-58.4c0.8-3.3-0.3-8.1-2.4-10.9c-15-20.7-30.5-41.1-45.9-61.6
		c-1.4-1.8-2.6-3.8-4.8-6.9c4.5,0,7.8,0,11,0c19.4,0,38.8-0.2,58.1,0.1c5.6,0.1,8.4-1.4,10.7-6.8c8.3-19.6,17.3-38.9,26-58.2
		c1-2.3,2.3-4.6,3.9-7.9c1.6,3.2,2.9,5.4,3.9,7.6c8.8,19.4,17.7,38.7,26.1,58.2c2.2,5.1,4.7,7.2,10.5,7c20.1-0.4,40.2-0.2,60.3-0.2
		c2.6,0,5.1,0,9,0c-1.9,2.9-3.1,4.8-4.5,6.7c-15.3,20.5-30.6,41-46.1,61.4c-2.9,3.8-3.7,7.2-2.5,11.8
		C625.5,228.7,630.8,250.5,636.7,274.1z"/>
</g>
</svg>
