<svg width="26" height="26" viewBox="0 0 26 26" fill="none" xmlns="http://www.w3.org/2000/svg">
<g id="flecha-circulo-derecha 1" clip-path="url(#clip0_176_622)">
<path id="Vector" d="M0 13C0 15.5712 0.762437 18.0846 2.1909 20.2224C3.61935 22.3603 5.64968 24.0265 8.02512 25.0104C10.4006 25.9944 13.0144 26.2518 15.5362 25.7502C18.0579 25.2486 20.3743 24.0105 22.1924 22.1924C24.0105 20.3743 25.2486 18.0579 25.7502 15.5362C26.2518 13.0144 25.9944 10.4006 25.0104 8.02512C24.0265 5.64968 22.3603 3.61935 20.2224 2.1909C18.0846 0.762437 15.5712 0 13 0C9.55333 0.00372784 6.24889 1.37456 3.81173 3.81173C1.37456 6.24889 0.00372784 9.55333 0 13ZM23.8333 13C23.8333 15.1426 23.198 17.2371 22.0076 19.0187C20.8172 20.8002 19.1253 22.1887 17.1457 23.0087C15.1662 23.8286 12.988 24.0432 10.8865 23.6252C8.78506 23.2072 6.85475 22.1754 5.33968 20.6603C3.82461 19.1453 2.79283 17.2149 2.37483 15.1135C1.95682 13.012 2.17136 10.8338 2.99131 8.85426C3.81125 6.87473 5.19979 5.18279 6.98132 3.99241C8.76286 2.80203 10.8574 2.16667 13 2.16667C15.8722 2.16982 18.6259 3.3122 20.6568 5.34316C22.6878 7.37412 23.8302 10.1278 23.8333 13ZM14.2144 6.81742C14.0113 7.02057 13.8972 7.29607 13.8972 7.58333C13.8972 7.87059 14.0113 8.1461 14.2144 8.34925L17.7808 11.9167L6.5 11.9243C6.21268 11.9243 5.93713 12.0384 5.73397 12.2416C5.5308 12.4447 5.41667 12.7203 5.41667 13.0076C5.41667 13.2949 5.5308 13.5705 5.73397 13.7736C5.93713 13.9768 6.21268 14.0909 6.5 14.0909L17.7818 14.0833L14.2144 17.6507C14.1077 17.7485 14.0217 17.8666 13.9613 17.9981C13.901 18.1296 13.8677 18.2719 13.8632 18.4165C13.8588 18.5611 13.8834 18.7052 13.9355 18.8402C13.9877 18.9751 14.0663 19.0983 14.1669 19.2023C14.2674 19.3064 14.3877 19.3893 14.5208 19.4461C14.6539 19.5029 14.797 19.5324 14.9417 19.533C15.0864 19.5336 15.2297 19.5052 15.3633 19.4495C15.4968 19.3938 15.6178 19.3118 15.7192 19.2086L15.7463 19.1826L19.6311 15.2988C19.9329 14.997 20.1724 14.6387 20.3357 14.2444C20.4991 13.85 20.5832 13.4274 20.5832 13.0005C20.5832 12.5737 20.4991 12.151 20.3357 11.7567C20.1724 11.3623 19.9329 11.004 19.6311 10.7023L15.7463 6.81742C15.5431 6.61432 15.2676 6.50023 14.9803 6.50023C14.6931 6.50023 14.4176 6.61432 14.2144 6.81742Z" fill="#F1F2F3"/>
</g>
<defs>
<clipPath id="clip0_176_622">
<rect width="26" height="26" fill="white"/>
</clipPath>
</defs>
</svg>
