<svg width="360" height="312" viewBox="0 0 360 312" fill="none" xmlns="http://www.w3.org/2000/svg">
<path d="M111.565 118.151C111.565 118.151 112.795 118.138 112.965 123.123C113.045 125.665 108.994 121.592 108.476 121.369C109.477 120.293 110.515 119.221 111.565 118.151Z" fill="#021EB0"/>
<path d="M402.681 44.2685C402.681 44.2685 431.368 84.1026 425.93 177.391L340.477 209.542L319.279 198.779L318.368 196.951L324.908 193.698C327.781 121.155 287.151 98.5351 287.151 98.5351L294.018 87.6071L402.681 44.2685Z" fill="#021EB0"/>
<path d="M294.816 193.413C292.532 182.776 287.32 169.211 283.749 159.485C278.385 144.839 265.4 125.692 258.299 118.655C257.059 117.412 255.985 116.548 255.182 116.148C254.078 115.608 253.287 115.485 252.735 115.635L287.152 98.5351C287.152 98.5351 327.793 121.156 324.908 193.698L318.368 196.951L293.154 209.499C296.588 207.592 296.511 201.311 294.816 193.413Z" fill="#021EB0"/>
<path d="M294.816 193.413C296.513 201.298 296.588 207.592 293.154 209.499C293.022 209.574 292.89 209.65 292.734 209.711C289.356 211.146 284.938 202.735 283.756 200.318C289.86 196.071 294.537 193.588 294.827 193.427L294.816 193.413Z" fill="#000064"/>
<path d="M294.803 193.413C294.501 193.573 289.836 196.057 283.732 200.304C277.456 204.648 269.677 210.888 263.541 218.356L262.705 218.593C259.023 205.695 244.831 194.118 229.252 182.351C213.94 170.809 193.813 158.337 187.7 154.614C186.514 153.878 185.861 153.48 185.861 153.48C184.243 153.08 182.787 152.696 181.516 152.341C181.149 152.245 180.781 152.149 180.427 152.053C177.127 151.136 175.354 150.509 175.354 150.509L175.312 150.556C175.131 150.753 174.95 150.949 174.771 151.134C156.975 169.995 144.281 168.594 137.917 165.689C135.221 164.476 134.356 161.059 136.105 158.659L155.292 132.547C156.066 131.488 156.942 130.54 157.911 129.675C159.521 128.241 161.381 127.094 163.396 126.312L197.034 113.056C202.247 111.011 207.991 110.835 213.309 112.577L240.034 121.287C243.93 122.547 248.121 122.492 251.979 121.151C252.25 121.063 252.522 120.962 252.784 120.848L258.302 118.618C265.391 125.655 278.388 144.802 283.752 159.448C287.311 169.173 292.535 182.74 294.819 193.377L294.803 193.413Z" fill="#E8A782"/>
<path d="M240.456 246.521C240.971 253.62 239.628 261.993 224.712 264.742L223.686 264.723C223.662 267.996 222.742 271.338 220.292 273.999C215.835 278.874 207.423 277.25 204.523 276.482C205.756 280.536 204.801 285.078 200.138 289.733C193.643 296.191 175.384 283.99 161.796 273.196C152.977 266.176 146.122 259.738 145.729 259.376C147.253 242.186 134.686 235.162 130.783 239.598C130.96 238.761 126.155 222.811 118.903 223.163C116.07 223.305 114.267 224.106 113.113 225.757C113.098 225.104 110.969 216.463 103.094 215.416C98.834 214.85 96.5151 216.494 95.2752 219.631C95.2752 219.631 93.5075 210.196 87.2023 209.932C83.931 209.795 81.635 211.053 80.1073 213.774L71.7956 208.734L64.837 204.52C66.4944 190.806 74.0762 157.707 108.452 121.354C108.97 121.577 110.552 122.237 112.941 123.108C121.532 126.191 140.555 131.837 157.623 128.444L157.883 129.71C156.928 130.563 156.037 131.523 155.264 132.582L136.077 158.694C134.328 161.094 135.193 164.511 137.889 165.724C144.326 168.66 157.233 170.056 175.326 150.544C175.326 150.544 179.129 151.859 185.834 153.502C185.834 153.502 210.96 168.591 229.226 182.361C244.806 194.116 258.999 205.693 262.679 218.604C263.327 220.834 263.656 223.123 263.62 225.428C263.371 241.141 255.363 246.745 240.848 246.481L240.419 246.517L240.456 246.521ZM239.375 240.675L240.085 240.313C240.085 240.313 245.008 235.004 238.734 228.657C234.443 224.324 228.185 223.274 218.386 215.725C218.386 215.725 235.473 231.822 239.375 240.675Z" fill="#FFC59A"/>
<path d="M252.656 115.679L252.746 115.649C253.299 115.499 254.091 115.609 255.193 116.162C255.996 116.562 257.069 117.438 258.31 118.669L252.792 120.899C252.519 120.999 252.246 121.112 251.987 121.201L251.933 121.109C251.933 121.109 250.618 116.446 252.667 115.692L252.656 115.679Z" fill="#000064"/>
<path d="M238.721 228.655C244.997 234.99 240.072 240.311 240.072 240.311L239.362 240.673C235.448 231.819 218.373 215.724 218.373 215.724C228.172 223.272 234.431 224.322 238.721 228.655Z" fill="#E8A782"/>
<path d="M161.784 273.195L161.742 273.241C161.742 273.241 142.986 285.489 133.384 278.523C131.927 277.461 130.81 276.104 129.964 274.533C129.522 273.753 129.159 272.929 128.862 272.061C125.633 262.981 128.569 249.133 129.769 241.915C129.921 240.937 130.28 240.167 130.797 239.587C134.699 235.164 147.253 242.186 145.742 259.365C146.135 259.727 152.989 266.177 161.81 273.184L161.784 273.195Z" fill="#E8A782"/>
<path d="M130.771 239.597C130.266 240.178 129.907 240.948 129.743 241.925C128.543 249.143 125.607 262.991 128.836 272.071L128.824 272.07C128.711 272.072 128.6 272.049 128.476 272.038C120.478 271.782 116.186 268.415 113.862 263.684C113.481 262.922 113.165 262.127 112.89 261.299C110.791 255.071 111.22 247.242 111.189 240.877C111.153 233.194 111.293 228.389 113.114 225.745C114.254 224.105 116.059 223.291 118.904 223.151C126.168 222.8 130.96 238.761 130.784 239.586L130.771 239.597Z" fill="#E8A782"/>
<path d="M108.463 121.367C74.0863 157.733 66.5045 190.832 64.8482 204.533C64.3306 208.815 64.3863 211.217 64.3863 211.217C64.3863 211.217 44.4708 204.511 32.2915 196.13L32.2791 196.129C30.9826 195.232 29.7855 194.344 28.7048 193.417C17.3762 183.821 23.2667 163.029 35.9525 135.919C46.1105 114.237 65.409 102.779 72.7027 99.0932L111.565 118.151C110.515 119.221 109.464 120.292 108.476 121.369L108.463 121.367Z" fill="#F4F4F4"/>
<path d="M112.89 261.298C112.778 261.288 112.666 261.278 112.552 261.293C100.176 260.949 95.8653 254.506 94.4293 247.197C94.3246 246.698 94.247 246.176 94.1695 245.655C93.4402 240.481 93.9407 235.018 93.9336 231.127C93.9227 226.458 94.1655 222.44 95.2763 219.618C95.5073 219.011 95.8083 218.462 96.1409 217.978C97.4929 215.943 99.6645 214.95 103.095 215.402C110.969 216.463 113.112 225.079 113.114 225.744C111.293 228.388 111.154 233.181 111.189 240.877C111.221 247.229 110.791 255.07 112.89 261.298Z" fill="#E8A782"/>
<path d="M94.1569 245.654C94.0337 245.63 93.9095 245.619 93.7874 245.583C78.0872 242.664 77.1085 235.697 77.6718 225.171C77.9392 220.063 78.6994 216.28 80.1082 213.762C81.6348 211.053 83.932 209.783 87.2032 209.919C92.4723 210.138 94.562 216.742 95.1276 218.915C95.2379 219.351 95.2773 219.606 95.2773 219.606C94.1665 222.428 93.9237 226.446 93.9346 231.115C93.9417 235.006 93.4412 240.469 94.1705 245.643L94.1569 245.654Z" fill="#E8A782"/>
<path d="M72.7028 99.0926C65.4078 102.791 46.1106 114.237 35.9525 135.918C23.2679 163.016 17.3763 183.821 28.7048 193.416C29.7855 194.344 30.9814 195.244 32.278 196.141L19.9319 199.841C8.54099 203.239 -3.71884 202.304 -14.4826 197.215L-87.3257 162.722C-90.7105 60.3932 -47.3151 14.2377 -47.3151 14.2377L69.3635 83.6909C72.2752 85.5638 74.5059 98.1535 72.6915 99.079L72.7028 99.0926Z" fill="#EAEAEA"/>
<path d="M71.7944 208.746L64.3988 211.218L64.3863 211.217C64.3863 211.217 64.3182 208.814 64.8471 204.545L71.8057 208.759L71.7944 208.746Z" fill="#021EB0"/>
</svg>
