<svg width="53" height="53" viewBox="0 0 53 53" fill="none" xmlns="http://www.w3.org/2000/svg">
<path d="M26.4997 53C23.3373 53 20.3517 51.7832 18.0926 49.5727L9.38509 41.5277C4.73434 36.8792 2.20801 30.7797 2.20801 24.2917C2.20801 17.8036 4.73434 11.702 9.32326 7.11525C13.9122 2.52854 20.0116 0 26.4997 0C32.9878 0 39.0872 2.52633 43.6761 7.11525C48.265 11.702 50.7913 17.8014 50.7913 24.2917C50.7913 30.782 48.265 36.8792 43.6761 41.4681L34.8604 49.6146C32.6477 51.781 29.662 53 26.4997 53ZM26.4997 4.41667C21.1908 4.41667 16.2 6.48367 12.4458 10.2378C8.69168 13.992 6.62467 18.9806 6.62467 24.2917C6.62467 29.6027 8.69168 34.5913 12.4458 38.3455L21.1378 46.3728C24.0882 49.2569 28.9598 49.2127 31.8196 46.417L40.6175 38.2859C44.3099 34.5913 46.3747 29.6005 46.3747 24.2939C46.3747 18.9872 44.3055 13.9942 40.5535 10.24C36.7993 6.48587 31.8063 4.41667 26.4997 4.41667ZM26.2921 31.842L39.085 19.239C39.9551 18.3822 39.9617 16.9843 39.1071 16.1164C38.2524 15.2485 36.8546 15.2375 35.9845 16.0921L23.1563 28.6818L16.9884 22.7039C16.1139 21.8581 14.716 21.8757 13.8658 22.7525C13.0156 23.627 13.0377 25.0248 13.9122 25.875L20.0558 31.8287C20.9192 32.6922 22.0499 33.1206 23.1828 33.1206C24.3156 33.1206 25.4375 32.6944 26.2899 31.8398L26.2921 31.842Z" fill="#00DCAA"/>
</svg>
