<svg width="53" height="53" viewBox="0 0 53 53" fill="none" xmlns="http://www.w3.org/2000/svg">
<path d="M18.4106 29.4201L23.4597 24.371L18.4106 19.3219C17.5359 18.4771 17.5116 17.0831 18.3565 16.2084C19.2013 15.3337 20.5953 15.3094 21.47 16.1543C21.4884 16.172 21.5065 16.1901 21.5242 16.2084L26.5733 21.2575L31.6223 16.2084C32.4672 15.3337 33.8612 15.3095 34.7359 16.1544C35.6106 16.9993 35.6348 18.3932 34.7899 19.2679C34.7722 19.2862 34.7542 19.3042 34.7359 19.3219L29.6868 24.371L34.7359 29.4201C35.6106 30.265 35.6348 31.6589 34.7899 32.5336C33.945 33.4083 32.5511 33.4326 31.6764 32.5877C31.6581 32.57 31.64 32.552 31.6223 32.5336L26.5733 27.4846L21.5242 32.5336C20.6495 33.3785 19.2555 33.3543 18.4106 32.4796C17.5864 31.6263 17.5864 30.2735 18.4106 29.4201ZM9.50819 41.5572C-0.0642104 32.213 -0.249296 16.878 9.09496 7.30553C18.4392 -2.26697 33.7742 -2.45195 43.3466 6.8923C43.4656 7.00844 43.5834 7.12583 43.6999 7.24435C53.1585 16.7033 53.1585 32.0388 43.6999 41.4978L34.9098 49.6208C30.2455 54.1382 22.8321 54.1196 18.1905 49.5789L9.50819 41.5572ZM6.75581 24.3711C6.74143 29.6299 8.83151 34.6759 12.5601 38.3842L21.2248 46.3904C24.1995 49.2333 28.8787 49.2517 31.8756 46.4323L40.6482 38.3247C48.371 30.5684 48.3439 18.0201 40.5876 10.2973C32.8313 2.57456 20.283 2.60157 12.5602 10.3579C8.83141 14.0662 6.74143 19.1123 6.75581 24.3711Z" fill="#DF0C0C"/>
</svg>
