<?xml version="1.0" encoding="utf-8"?>
<!-- Generator: Adobe Illustrator 26.3.1, SVG Export Plug-In . SVG Version: 6.00 Build 0)  -->
<svg version="1.1" id="Layer_1" xmlns="http://www.w3.org/2000/svg" xmlns:xlink="http://www.w3.org/1999/xlink" x="0px" y="0px"
	 viewBox="0 0 166.2 166.2" style="enable-background:new 0 0 166.2 166.2;" xml:space="preserve">
<style type="text/css">
	.st0{fill:#004987;}
	.st1{fill:url(#SVGID_1_);}
	.st2{fill:#FFFFFF;}
	.st3{fill:#61A60E;}
	.st4{fill:url(#SVGID_00000101790945708593767930000010606200411420155797_);}
	.st5{fill:#EBF0F5;}
	.st6{fill:#95B1CE;}
	.st7{fill:url(#SVGID_00000000217449920149130060000014807514584970814085_);}
	.st8{fill:#FFFFFF;stroke:#004987;stroke-width:5;stroke-miterlimit:10;}
	.st9{fill:#1E5387;}
	.st10{fill:none;stroke:#FFFFFF;stroke-width:5;stroke-miterlimit:10;}
	.st11{fill:url(#SVGID_00000004544247185985679050000006656109934198051459_);}
	.st12{fill:#E5EFD8;}
	.st13{clip-path:url(#SVGID_00000152985028746068396660000009123055950689199517_);fill:#004987;}
	.st14{clip-path:url(#SVGID_00000152985028746068396660000009123055950689199517_);fill:#FFFFFF;}
	.st15{clip-path:url(#SVGID_00000152985028746068396660000009123055950689199517_);}
	
		.st16{clip-path:url(#SVGID_00000152985028746068396660000009123055950689199517_);fill:url(#SVGID_00000075143529833839907110000007239217017132083895_);}
	.st17{opacity:0.29;}
	.st18{clip-path:url(#SVGID_00000152985028746068396660000009123055950689199517_);fill:#61A60E;}
	.st19{fill:#487FAD;}
	.st20{fill:none;stroke:url(#SVGID_00000150102869690659862420000004360195864749919887_);stroke-width:0.25;stroke-miterlimit:10;}
	.st21{fill:#3274A6;}
	.st22{clip-path:url(#SVGID_00000160179945093314005410000008364035127060263301_);}
	.st23{fill:none;stroke:url(#SVGID_00000100343510968835151400000006049551055712045240_);stroke-width:0.25;stroke-miterlimit:10;}
	.st24{clip-path:url(#SVGID_00000160179945093314005410000008364035127060263301_);fill:#FFFFFF;}
	.st25{fill:none;stroke:#004987;stroke-miterlimit:10;}
	.st26{opacity:0.5;clip-path:url(#SVGID_00000152985028746068396660000009123055950689199517_);}
	.st27{fill:none;stroke:#FFFFFF;stroke-width:2;stroke-miterlimit:10;}
	.st28{fill:#005B94;}
	.st29{fill:#759BBF;}
	.st30{fill:#E6ECF3;}
	.st31{fill:url(#SVGID_00000166646704201231399470000010958301294872648125_);}
	.st32{opacity:0.24;}
	.st33{fill:#5A89B4;}
	.st34{fill:#83B84B;}
	.st35{fill:#FAC132;}
	.st36{fill:#FDE4AD;}
	.st37{fill:#7F7F7F;}
	.st38{fill:#B5B5B5;}
	.st39{fill:#EA8A54;}
	.st40{fill:#FFAC83;}
	.st41{fill:url(#SVGID_00000150081241392318816830000010074078563361244341_);}
	.st42{fill:none;}
	.st43{fill:none;stroke:#55E700;stroke-width:4;stroke-miterlimit:10;}
	.st44{fill:none;stroke:#EBF0F5;stroke-miterlimit:10;}
	.st45{fill:#004B85;stroke:#FFFFFF;stroke-width:2;stroke-miterlimit:10;}
	.st46{opacity:0.88;fill:#014A85;}
</style>
<g>
	<g>
		<g>
			<path class="st0" d="M155.05,20.83c-0.69-0.7-1.78-1.06-3.26-1.06c-3.14,0-6.28,0-9.43,0h-7.65c-0.38,0-0.74-0.02-1.09-0.05
				c-0.15-0.01-0.29-0.02-0.43-0.02l-0.79-0.04v-0.79c0-0.57-0.01-1.12-0.02-1.66c-0.02-1.18-0.04-2.3,0.04-3.43
				c0.18-2.55-0.67-4.07-2.78-4.91H33.37c-2.1,0.84-2.95,2.35-2.78,4.89c0.08,1.16,0.06,2.3,0.04,3.51
				c-0.01,0.54-0.02,1.1-0.02,1.66v0.83h-2.43c-1.58,0-3.15,0.01-4.73,0.02c-3.75,0.02-7.63,0.04-11.45-0.06
				c-2.59-0.07-4.12,0.72-5.05,2.64v5.35c0.02,0.14,0.04,0.29,0.07,0.43c0.06,0.38,0.12,0.77,0.14,1.18
				c0.3,5.99,1.11,11.91,2.42,17.61C13.1,62.26,19.2,74.4,28.26,84.05c7.7,8.2,16.29,12.69,26.26,13.7c1.01,0.1,1.96,0.72,2.57,1.22
				c1.16,0.94,2.31,1.91,3.42,2.85c1.39,1.17,2.81,2.38,4.25,3.52c0.83,0.65,1.38,1.37,1.37,2.69c-0.03,3.89-0.03,7.85-0.03,11.68
				c0,1.7,0,3.4,0,5.09c0,0.34-0.02,0.67-0.05,1.05c-0.01,0.18-0.02,0.38-0.04,0.59l-0.05,0.78h-0.78c-0.87,0-1.73-0.01-2.59-0.02
				c-0.84-0.01-1.67-0.02-2.48-0.02c-0.98,0-1.94,0.02-2.9,0.07c-6.63,0.39-11.23,3.69-13.67,9.82c-0.69,1.72-0.85,3.75-1,5.71
				c-0.03,0.32-0.05,0.64-0.08,0.96c-0.12,1.39-0.09,2.85-0.06,4.25c0.01,0.65,0.02,1.29,0.02,1.93v0.75l-0.74,0.08
				c-2.21,0.22-3.39,1.08-3.83,2.77c-0.29,1.11-0.1,2.17,0.52,2.97c0.74,0.96,2.04,1.51,3.57,1.51c21.77,0,43.54,0,65.3,0l13.74,0
				l0.17,0c0.28,0,0.54,0,0.78-0.02c1.8-0.17,3.13-1.46,3.3-3.23c0.17-1.79-0.86-3.27-2.63-3.78c-0.29-0.09-0.59-0.15-0.91-0.23
				c-0.16-0.04-0.33-0.07-0.5-0.12l-0.63-0.15v-2.7c0-1.51,0-3.01,0-4.5c0.02-3.28-0.65-6-2.05-8.31
				c-3.07-5.07-7.62-7.69-13.53-7.77c-1.63-0.02-3.3-0.02-4.9-0.01c-0.74,0-1.48,0.01-2.21,0.01h-0.65l-0.16-0.63
				c-0.03-0.11-0.05-0.2-0.07-0.27c-0.05-0.17-0.1-0.34-0.1-0.54l0-2.69c-0.01-5.1-0.02-10.38,0.03-15.57
				c0.01-0.89,0.8-1.68,1.14-1.97c2.3-1.97,5.03-4.29,7.9-6.61c0.39-0.31,1.42-1.06,2.6-1.17c6.34-0.61,12.36-2.83,17.89-6.61
				c9.11-6.22,16.2-15.32,21.66-27.81c5.11-11.69,7.7-24.51,7.91-39.19C156.08,22.64,155.74,21.53,155.05,20.83z M46.98,88.68
				c-0.57-0.3-1.14-0.59-1.71-0.88c-1.26-0.63-2.56-1.29-3.79-2.05c-5.62-3.52-10.39-8.43-14.58-15.02
				C20.51,60.7,16.62,49.42,15,36.25c-0.23-1.86-0.4-3.69-0.58-5.64c-0.08-0.89-0.17-1.79-0.26-2.7l-0.09-0.91h17.07l0.07,0.76
				c0.96,11.33,2.69,21.41,5.26,30.81c2.91,10.63,6.71,20.11,11.61,28.98l1.34,2.42L46.98,88.68z M104.53,134.37
				c4.84,0.01,8.42,2.99,8.72,7.25c0.13,1.88,0.1,3.72,0.07,5.67c-0.01,0.85-0.03,1.71-0.03,2.59v0.83H49.74v-0.83
				c0-0.88-0.01-1.75-0.02-2.61c-0.03-1.99-0.06-3.86,0.06-5.78c0.24-3.54,3.31-6.63,6.99-7.03c0.53-0.06,1.08-0.08,1.7-0.09h8.06
				C79.2,134.36,91.87,134.36,104.53,134.37z M73.39,127.09V109.5l1.03,0.25c4.8,1.18,9.45,1.18,14.21-0.02l1.03-0.26v17.61H73.39z
				 M103.23,91.16c-4.75,5.88-9.57,9.45-15.17,11.26c-2.22,0.72-4.44,1.08-6.64,1.08c-4.61,0-9.15-1.57-13.57-4.7
				c-5.67-4.02-10.38-9.66-14.82-17.75c-5.71-10.43-9.76-22.38-12.38-36.56c-1.56-8.51-2.49-17.4-2.73-26.43c0-0.23,0-0.46,0-0.71
				l0-1.2h87.3l-0.05,0.87c-0.05,1.05-0.1,2.09-0.14,3.13c-0.1,2.22-0.19,4.51-0.37,6.76c-0.86,10.89-2.49,20.56-4.98,29.54
				C115.49,71.54,110.42,82.25,103.23,91.16z M148.84,27.91c-0.1,0.98-0.18,1.95-0.26,2.93c-0.18,2.07-0.37,4.22-0.65,6.31
				c-1.46,10.92-4.46,20.45-9.17,29.13c-4.83,8.9-10.27,15.07-17.11,19.39c-1.88,1.19-3.93,2.13-5.72,2.91l-2.29,1.01l1.23-2.18
				c9.42-16.61,14.81-35.57,16.94-59.66l0.07-0.76h17.05L148.84,27.91z"/>
			<path class="st35" d="M113.32,147.29c-0.01,0.85-0.03,1.71-0.03,2.59v0.83H49.74v-0.83c0-0.88-0.01-1.75-0.02-2.61
				c-0.03-1.99-0.06-3.86,0.06-5.78c0.24-3.54,3.31-6.63,6.99-7.03c0.53-0.06,1.08-0.08,1.7-0.09h8.06c12.66,0,25.33-0.01,38,0
				c4.84,0.01,8.42,2.99,8.72,7.25C113.38,143.5,113.36,145.34,113.32,147.29z"/>
			<path class="st35" d="M89.65,109.48v17.61H73.39V109.5l1.03,0.25c4.8,1.18,9.45,1.18,14.21-0.02L89.65,109.48z"/>
			<path class="st35" d="M148.93,27l-0.09,0.91c-0.1,0.98-0.18,1.95-0.26,2.93c-0.18,2.07-0.37,4.22-0.65,6.31
				c-1.46,10.92-4.46,20.45-9.17,29.13c-4.83,8.9-10.27,15.07-17.11,19.39c-1.88,1.19-3.93,2.13-5.72,2.91l-2.29,1.01l1.23-2.18
				c9.42-16.61,14.81-35.57,16.94-59.66l0.07-0.76H148.93z"/>
			<path class="st35" d="M125.22,16.14l-0.05,0.87c-0.05,1.05-0.1,2.09-0.14,3.13c-0.1,2.22-0.19,4.51-0.37,6.76
				c-0.86,10.89-2.49,20.56-4.98,29.54c-4.18,15.11-9.26,25.82-16.45,34.72c-4.75,5.88-9.57,9.45-15.17,11.26
				c-2.22,0.72-4.44,1.08-6.64,1.08c-4.61,0-9.15-1.57-13.57-4.7c-5.67-4.02-10.38-9.66-14.82-17.75
				c-5.71-10.43-9.76-22.38-12.38-36.56c-1.56-8.51-2.49-17.4-2.73-26.43c0-0.23,0-0.46,0-0.71l0-1.2H125.22z"/>
			<path class="st36" d="M113.32,147.29c-0.01,0.85-0.03,1.71-0.03,2.59v0.83H49.74v-0.83c0-0.88-0.01-1.75-0.02-2.61
				c-0.02-1.52-0.05-2.98,0-4.44h52.56V142c0-0.87,0.02-1.73,0.03-2.59c0.03-1.73,0.05-3.38-0.03-5.04h2.26
				c4.84,0.01,8.42,2.99,8.72,7.25C113.38,143.5,113.36,145.34,113.32,147.29z"/>
			<path class="st36" d="M125.22,16.14l-0.05,0.87c-0.05,1.05-0.1,2.09-0.14,3.13c-0.1,2.22-0.19,4.51-0.37,6.76
				c-0.86,10.89-2.49,20.56-4.98,29.54c-4.18,15.11-9.26,25.82-16.45,34.72c-4.75,5.88-9.57,9.45-15.17,11.26
				c-2.22,0.72-4.44,1.08-6.64,1.08c-4.61,0-9.15-1.57-13.57-4.7c-1.99-1.41-3.86-3.02-5.64-4.86c2.7,1.12,5.43,1.68,8.19,1.68
				c2.2,0,4.42-0.36,6.64-1.08c5.6-1.8,10.42-5.38,15.17-11.26c7.2-8.9,12.27-19.61,16.45-34.72c2.49-8.98,4.12-18.65,4.98-29.54
				c0.07-0.96,0.14-1.92,0.19-2.88H125.22z"/>
			<path class="st35" d="M49.43,89.97l-2.45-1.29c-0.57-0.3-1.14-0.59-1.71-0.88c-1.26-0.63-2.56-1.29-3.79-2.05
				c-5.62-3.52-10.39-8.43-14.58-15.02C20.51,60.7,16.62,49.42,15,36.25c-0.23-1.86-0.4-3.69-0.58-5.64
				c-0.08-0.89-0.17-1.79-0.26-2.7l-0.09-0.91h17.07l0.07,0.76c0.96,11.33,2.69,21.41,5.26,30.81c2.91,10.63,6.71,20.11,11.61,28.98
				L49.43,89.97z"/>
		</g>
	</g>
	<polygon class="st2" points="112.68,37.09 130.44,40.01 112.68,42.94 109.75,60.7 106.83,42.94 89.06,40.01 106.83,37.09 
		109.75,19.33 	"/>
</g>
</svg>
