<svg width="108" height="25" viewBox="0 0 108 25" fill="none" xmlns="http://www.w3.org/2000/svg">
<g clip-path="url(#clip0_226_4428)">
<path d="M98.3798 5.82031H91.6211V17.9993H98.3798V5.82031Z" fill="#FF671D"/>
<path d="M92.0506 11.9129C92.0506 9.44194 93.2074 7.24354 95 5.82034C93.6858 4.78472 92.0264 4.16699 90.2277 4.16699C85.9581 4.16699 82.5 7.6372 82.5 11.9129C82.5 16.1886 85.9581 19.6588 90.2277 19.6588C92.0325 19.6588 93.6858 19.041 95 18.0054C93.2013 16.5883 92.0506 14.3838 92.0506 11.9129Z" fill="#E01F27"/>
<path d="M106.761 16.7159V16.4676H106.864V16.4191H106.609V16.4676H106.712V16.7159H106.767H106.761ZM107.257 16.7159V16.4131H107.179L107.088 16.619L106.997 16.4131H106.918V16.7159H106.973V16.4918L107.058 16.6856H107.112L107.197 16.4918V16.722H107.251L107.257 16.7159Z" fill="#F09823"/>
<path d="M107.5 11.9129C107.5 16.1886 104.042 19.6588 99.7723 19.6588C97.9675 19.6588 96.3142 19.041 95 18.0054C96.7987 16.5883 97.9494 14.3838 97.9494 11.9129C97.9494 9.44194 96.7926 7.24354 95 5.82034C96.3142 4.78472 97.9736 4.16699 99.7723 4.16699C104.036 4.16699 107.5 7.6372 107.5 11.9129Z" fill="#FF9E18"/>
</g>
<g clip-path="url(#clip1_226_4428)">
<g clip-path="url(#clip2_226_4428)">
<path d="M1.89667 3.94727H4.13014V6.19846H1.89667V3.94727ZM1.89667 8.46738H4.13014V20.4856C4.13014 22.3645 2.76525 23.6053 0.886297 23.6053H0V21.4959H0.638134C1.40035 21.4959 1.89667 21.1414 1.89667 20.3083V8.46738Z" fill="white"/>
<path d="M14.766 14.8846V13.0411C14.766 10.1695 12.6389 8.34375 10.175 8.34375C8.01244 8.34375 5.58398 9.7441 5.58398 14.087C5.58398 18.6602 8.24287 19.7592 10.5295 19.7592C12.0185 19.7592 13.4543 19.2275 14.5533 17.9512L12.9225 16.5686C12.2667 17.2422 11.3449 17.6499 10.4941 17.6499C8.95191 17.6499 7.83518 16.7281 7.83518 14.9023H14.766V14.8846ZM7.81745 13.0411C7.87063 11.3394 8.84556 10.4354 10.175 10.4354C11.5044 10.4354 12.4616 11.3394 12.5325 13.0411H7.81745Z" fill="white"/>
<path d="M16.5554 5.08203H18.7888V8.46768H20.4196V10.1871H18.7888V16.6748C18.7888 17.2952 19.037 17.5079 19.5865 17.5079H20.4196V19.6173H19.2497C17.6898 19.6173 16.5376 18.6246 16.5376 16.8698V10.1694H15.4209V8.44996H16.5376V5.08203H16.5554Z" fill="white"/>
<path d="M27.6518 6.0565C29.3713 6.0565 30.1867 7.08461 30.1867 8.3077C30.1867 9.54851 29.3713 10.5412 27.6518 10.5412H24.213V6.0565H27.6518ZM21.8555 19.6168H28.4495C30.8071 19.6168 32.8101 17.8797 32.8101 15.1676C32.8101 13.59 31.977 11.9592 30.2576 11.5693V11.5338C32.0833 10.7184 32.5619 9.45988 32.5619 8.16589C32.5619 5.70199 30.9843 3.96484 27.9177 3.96484H21.8555V19.6168ZM27.8823 12.6683C29.6372 12.6683 30.4348 13.785 30.4348 15.0258C30.4348 16.2666 29.6372 17.3834 27.8823 17.3834H24.2307V12.6683H27.8823Z" fill="white"/>
<path d="M34.0869 3.94727H36.3381V16.7277C36.3381 17.224 36.6217 17.4899 37.1712 17.4899H37.9512V19.5993H36.9585C35.3277 19.5993 34.1046 18.8902 34.1046 16.8872V3.94727H34.0869Z" fill="white"/>
<path d="M38.8906 8.46777H41.1418V15.115C41.1418 16.6394 42.0813 17.508 43.3576 17.508C44.6161 17.508 45.5556 16.6217 45.5556 15.115V8.46777H47.8068V19.6174H45.5556V18.4297H45.5201C44.8111 19.316 43.8007 19.7592 42.6308 19.7592C40.8759 19.7592 38.8906 18.412 38.8906 15.8949V8.46777Z" fill="white"/>
<path d="M58.1939 14.8846V13.0411C58.1939 10.1695 56.0668 8.34375 53.6029 8.34375C51.4403 8.34375 48.9941 9.7441 48.9941 14.087C48.9941 18.6602 51.653 19.7592 53.9397 19.7592C55.4287 19.7592 56.8645 19.2275 57.9635 17.9512L56.3327 16.5686C55.6768 17.2422 54.7551 17.6499 53.8865 17.6499C52.3443 17.6499 51.2276 16.7281 51.2276 14.9023H58.1939V14.8846ZM51.2453 13.0411C51.2985 11.3394 52.2734 10.4354 53.6029 10.4354C54.9146 10.4354 55.8895 11.3394 55.9604 13.0411H51.2453Z" fill="white"/>
<path d="M58.0351 7.5632H58.1769C58.3365 7.5632 58.4783 7.54548 58.4783 7.40367C58.4783 7.26186 58.3542 7.24414 58.2124 7.24414H58.0351V7.5632ZM57.8224 7.04915H58.2656C58.5314 7.04915 58.6555 7.17323 58.6555 7.40367C58.6555 7.63411 58.5314 7.72274 58.3542 7.74046L58.691 8.21906H58.4605L58.1238 7.75819H57.9997V8.20134H57.8047V7.04915H57.8224ZM58.2124 8.4495C58.6555 8.4495 58.9923 8.13043 58.9923 7.65183C58.9923 7.19096 58.6555 6.85416 58.2124 6.85416C57.7692 6.85416 57.4324 7.17323 57.4324 7.65183C57.4324 8.11271 57.7692 8.4495 58.2124 8.4495ZM58.2124 6.65918C58.7619 6.65918 59.205 7.10233 59.205 7.65183C59.205 8.20134 58.7619 8.64448 58.2124 8.64448C57.6629 8.64448 57.2197 8.20134 57.2197 7.65183C57.2197 7.10233 57.6451 6.65918 58.2124 6.65918Z" fill="white"/>
</g>
</g>
<rect x="70" width="0.833333" height="25" fill="white"/>
<defs>
<clipPath id="clip0_226_4428">
<rect width="25" height="15.4918" fill="white" transform="translate(82.5 4.16699)"/>
</clipPath>
<clipPath id="clip1_226_4428">
<rect width="59.1667" height="19.6455" fill="white" transform="translate(0 4.16699)"/>
</clipPath>
<clipPath id="clip2_226_4428">
<rect width="59.2046" height="19.6581" fill="white" transform="translate(0 3.94727)"/>
</clipPath>
</defs>
</svg>
