<?xml version="1.0" encoding="utf-8"?>
<!-- Generator: Adobe Illustrator 27.0.0, SVG Export Plug-In . SVG Version: 6.00 Build 0)  -->
<svg version="1.1" id="Capa_1" xmlns="http://www.w3.org/2000/svg" xmlns:xlink="http://www.w3.org/1999/xlink" x="0px" y="0px"
	 viewBox="0 0 334 110.9" style="enable-background:new 0 0 334 110.9;" xml:space="preserve">
<style type="text/css">
	.st0{fill:#FFFFFF;}
</style>
<g>
	<path class="st0" d="M10.7,0h12.6v12.7H10.7V0z M10.7,25.5h12.6v67.8c0,10.6-7.7,17.6-18.3,17.6H0V99h3.6c4.3,0,7.1-2,7.1-6.7V25.5
		z"/>
	<path class="st0" d="M83.3,61.7V51.3c0-16.2-12-26.5-25.9-26.5c-12.2,0-25.9,7.9-25.9,32.4c0,25.8,15,32,27.9,32
		c8.4,0,16.5-3,22.7-10.2l-9.2-7.8c-3.7,3.8-8.9,6.1-13.7,6.1c-8.7,0-15-5.2-15-15.5H83.3z M44.1,51.3c0.3-9.6,5.8-14.7,13.3-14.7
		c7.5,0,12.9,5.1,13.3,14.7H44.1z"/>
	<path class="st0" d="M93.4,6.4H106v19.1h9.2v9.7H106v36.6c0,3.5,1.4,4.7,4.5,4.7h4.7v11.9h-6.6c-8.8,0-15.3-5.6-15.3-15.5V35.1H87
		v-9.7h6.3V6.4z"/>
	<path class="st0" d="M156,11.9c9.7,0,14.3,5.8,14.3,12.7c0,7-4.6,12.6-14.3,12.6h-19.4V11.9H156z M123.3,88.4h37.2
		c13.3,0,24.6-9.8,24.6-25.1c0-8.9-4.7-18.1-14.4-20.3v-0.2c10.3-4.6,13-11.7,13-19c0-13.9-8.9-23.7-26.2-23.7h-34.2V88.4z
		 M157.3,49.2c9.9,0,14.4,6.3,14.4,13.3c0,7-4.5,13.3-14.4,13.3h-20.6V49.2H157.3z"/>
	<path class="st0" d="M192.3,0H205v72.1c0,2.8,1.6,4.3,4.7,4.3h4.4v11.9h-5.6c-9.2,0-16.1-4-16.1-15.3V0z"/>
	<path class="st0" d="M219.4,25.5h12.7v37.5c0,8.6,5.3,13.5,12.5,13.5c7.1,0,12.4-5,12.4-13.5V25.5h12.7v62.9H257v-6.7h-0.2
		c-4,5-9.7,7.5-16.3,7.5c-9.9,0-21.1-7.6-21.1-21.8V25.5z"/>
	<path class="st0" d="M328.3,61.7V51.3c0-16.2-12-26.5-25.9-26.5c-12.2,0-26,7.9-26,32.4c0,25.8,15,32,27.9,32
		c8.4,0,16.5-3,22.7-10.2l-9.2-7.8c-3.7,3.8-8.9,6.1-13.8,6.1c-8.7,0-15-5.2-15-15.5H328.3z M289.1,51.3c0.3-9.6,5.8-14.7,13.3-14.7
		c7.4,0,12.9,5.1,13.3,14.7H289.1z"/>
	<path class="st0" d="M327.4,20.4h0.8c0.9,0,1.7-0.1,1.7-0.9c0-0.8-0.7-0.9-1.5-0.9h-1V20.4z M326.2,17.5h2.5c1.5,0,2.2,0.7,2.2,2
		c0,1.3-0.7,1.8-1.7,1.9l1.9,2.7h-1.3l-1.9-2.6h-0.7V24h-1.1V17.5z M328.4,25.4c2.5,0,4.4-1.8,4.4-4.5c0-2.6-1.9-4.5-4.4-4.5
		c-2.5,0-4.4,1.8-4.4,4.5C324,23.5,325.9,25.4,328.4,25.4 M328.4,15.3c3.1,0,5.6,2.5,5.6,5.6c0,3.1-2.5,5.6-5.6,5.6
		c-3.1,0-5.6-2.5-5.6-5.6C322.8,17.8,325.2,15.3,328.4,15.3"/>
</g>
<text transform="matrix(1 0 0 1 -877.1762 1803.4001)"><tspan x="0" y="0" class="st0" style="font-family:'KlarheitGrotesk-Semibold'; font-size:12px;">1</tspan><tspan x="5.6" y="0" class="st0" style="font-family:'KlarheitGrotesk-Semibold'; font-size:12px;">7</tspan></text>
<g>
	<path class="st0" d="M-879.7,1222.7h0.9l1.3,1.7h5.3l-2.2-7.5h1.2l4.4,7.5h5c0.3,0,0.6,0.1,0.8,0.3c0.2,0.2,0.3,0.5,0.3,0.8
		s-0.1,0.5-0.3,0.8s-0.5,0.3-0.8,0.3h-5l-4.4,7.5h-1.2l2.2-7.5h-5.3l-1.3,1.7h-0.9l0.8-2.8L-879.7,1222.7z"/>
</g>
</svg>
