<svg width="82" height="19" viewBox="0 0 82 19" fill="none" xmlns="http://www.w3.org/2000/svg">
<g clip-path="url(#clip0_33_2940)">
<path d="M74.7683 4.42322H69.6317V13.6793H74.7683V4.42322Z" fill="#FF671D"/>
<path d="M69.9585 9.05356C69.9585 7.17565 70.8376 5.50487 72.2 4.42323C71.2012 3.63616 69.9401 3.16669 68.5731 3.16669C65.3282 3.16669 62.7 5.80404 62.7 9.05356C62.7 12.3031 65.3282 14.9404 68.5731 14.9404C69.9447 14.9404 71.2012 14.471 72.2 13.6839C70.833 12.6069 69.9585 10.9315 69.9585 9.05356Z" fill="#E01F27"/>
<path d="M81.1385 12.7035V12.5148H81.2168V12.4779H81.0234V12.5148H81.1017V12.7035H81.1431H81.1385ZM81.5159 12.7035V12.4733H81.4561L81.3871 12.6298L81.318 12.4733H81.2582V12.7035H81.2996V12.5332L81.364 12.6805H81.4055L81.4699 12.5332V12.7081H81.5113L81.5159 12.7035Z" fill="#F09823"/>
<path d="M81.7 9.05356C81.7 12.3031 79.0719 14.9404 75.827 14.9404C74.4553 14.9404 73.1988 14.471 72.2 13.6839C73.567 12.6069 74.4415 10.9315 74.4415 9.05356C74.4415 7.17565 73.5624 5.50487 72.2 4.42323C73.1988 3.63616 74.4599 3.16669 75.827 3.16669C79.0673 3.16669 81.7 5.80404 81.7 9.05356Z" fill="#FF9E18"/>
</g>
<g clip-path="url(#clip1_33_2940)">
<path d="M1.44055 3.16669H3.1369V4.8765H1.44055V3.16669ZM1.44055 6.59977H3.1369V15.7277C3.1369 17.1548 2.10024 18.0972 0.673154 18.0972H0V16.4951H0.484671C1.06358 16.4951 1.44055 16.2259 1.44055 15.5931V6.59977Z" fill="#0000AA"/>
<path d="M11.2147 11.4734V10.0732C11.2147 7.89219 9.59915 6.50549 7.72778 6.50549C6.08529 6.50549 4.24084 7.56908 4.24084 10.8675C4.24084 14.341 6.26031 15.1757 7.99704 15.1757C9.12794 15.1757 10.2185 14.7718 11.0532 13.8025L9.81456 12.7524C9.31642 13.264 8.61634 13.5736 7.97012 13.5736C6.79883 13.5736 5.95066 12.8735 5.95066 11.4868H11.2147V11.4734ZM5.93719 10.0732C5.97758 8.78075 6.71805 8.09414 7.72778 8.09414C8.73751 8.09414 9.46452 8.78075 9.51837 10.0732H5.93719Z" fill="#0000AA"/>
<path d="M12.5745 4.02832H14.2709V6.59977H15.5095V7.90569H14.2709V12.8332C14.2709 13.3044 14.4594 13.4659 14.8767 13.4659H15.5095V15.068H14.6209C13.4362 15.068 12.5611 14.3141 12.5611 12.9813V7.89222H11.7129V6.5863H12.5611V4.02832H12.5745Z" fill="#0000AA"/>
<path d="M21.0025 4.76876C22.3084 4.76876 22.9277 5.54962 22.9277 6.47857C22.9277 7.42098 22.3084 8.17492 21.0025 8.17492H18.3906V4.76876H21.0025ZM16.6 15.068H21.6083C23.3989 15.068 24.9202 13.7486 24.9202 11.6888C24.9202 10.4906 24.2875 9.25196 22.9815 8.95577V8.92885C24.3682 8.30955 24.7317 7.35367 24.7317 6.37086C24.7317 4.4995 23.5335 3.18011 21.2044 3.18011H16.6V15.068ZM21.1775 9.79048C22.5103 9.79048 23.1162 10.6387 23.1162 11.5811C23.1162 12.5235 22.5103 13.3717 21.1775 13.3717H18.4041V9.79048H21.1775Z" fill="#0000AA"/>
<path d="M25.8895 3.16663H27.5993V12.8735C27.5993 13.2505 27.8147 13.4524 28.2321 13.4524H28.8245V15.0545H28.0705C26.8319 15.0545 25.903 14.516 25.903 12.9947V3.16663H25.8895Z" fill="#0000AA"/>
<path d="M29.538 6.59973H31.2478V11.6484C31.2478 12.8062 31.9613 13.4659 32.9307 13.4659C33.8865 13.4659 34.6001 12.7927 34.6001 11.6484V6.59973H36.3099V15.068H34.6001V14.166H34.5732C34.0346 14.8391 33.2672 15.1757 32.3787 15.1757C31.0458 15.1757 29.538 14.1525 29.538 12.2408V6.59973Z" fill="#0000AA"/>
<path d="M44.1993 11.4734V10.0732C44.1993 7.89219 42.5837 6.50549 40.7124 6.50549C39.0699 6.50549 37.212 7.56908 37.212 10.8675C37.212 14.341 39.2314 15.1757 40.9682 15.1757C42.0991 15.1757 43.1896 14.7718 44.0243 13.8025L42.7857 12.7524C42.2876 13.264 41.5875 13.5736 40.9278 13.5736C39.7565 13.5736 38.9083 12.8735 38.9083 11.4868H44.1993V11.4734ZM38.9218 10.0732C38.9622 8.78075 39.7026 8.09414 40.7124 8.09414C41.7086 8.09414 42.4491 8.78075 42.503 10.0732H38.9218Z" fill="#0000AA"/>
<path d="M44.0781 5.91312H44.1858C44.307 5.91312 44.4147 5.89966 44.4147 5.79195C44.4147 5.68425 44.3204 5.67078 44.2127 5.67078H44.0781V5.91312ZM43.9165 5.52269H44.2531C44.4551 5.52269 44.5493 5.61693 44.5493 5.79195C44.5493 5.96697 44.4551 6.03429 44.3204 6.04775L44.5762 6.41125H44.4012L44.1454 6.06121H44.0512V6.39779H43.9031V5.52269H43.9165ZM44.2127 6.58627C44.5493 6.58627 44.8051 6.34394 44.8051 5.98043C44.8051 5.63039 44.5493 5.3746 44.2127 5.3746C43.8762 5.3746 43.6204 5.61693 43.6204 5.98043C43.6204 6.33047 43.8762 6.58627 44.2127 6.58627ZM44.2127 5.2265C44.6301 5.2265 44.9667 5.56308 44.9667 5.98043C44.9667 6.39779 44.6301 6.73437 44.2127 6.73437C43.7954 6.73437 43.4588 6.39779 43.4588 5.98043C43.4588 5.56308 43.7819 5.2265 44.2127 5.2265Z" fill="#0000AA"/>
</g>
<rect x="53.2" width="0.633333" height="19" fill="#0000AA"/>
<defs>
<clipPath id="clip0_33_2940">
<rect width="19" height="11.7737" fill="white" transform="translate(62.7 3.16669)"/>
</clipPath>
<clipPath id="clip1_33_2940">
<rect width="44.9667" height="14.9305" fill="white" transform="translate(0 3.16669)"/>
</clipPath>
</defs>
</svg>
