<svg width="82" height="19" viewBox="0 0 82 19" fill="none" xmlns="http://www.w3.org/2000/svg">
<g clip-path="url(#clip0_226_4188)">
<path d="M74.7685 4.42383H69.6318V13.6799H74.7685V4.42383Z" fill="#FF671D"/>
<path d="M69.9587 9.05386C69.9587 7.17596 70.8378 5.50517 72.2002 4.42353C71.2014 3.63647 69.9403 3.16699 68.5733 3.16699C65.3283 3.16699 62.7002 5.80435 62.7002 9.05386C62.7002 12.3034 65.3283 14.9407 68.5733 14.9407C69.9449 14.9407 71.2014 14.4713 72.2002 13.6842C70.8332 12.6072 69.9587 10.9318 69.9587 9.05386Z" fill="#E01F27"/>
<path d="M81.1385 12.7038V12.5151H81.2168V12.4782H81.0234V12.5151H81.1017V12.7038H81.1431H81.1385ZM81.5159 12.7038V12.4736H81.4561L81.3871 12.6301L81.318 12.4736H81.2582V12.7038H81.2996V12.5335L81.364 12.6808H81.4055L81.4699 12.5335V12.7084H81.5113L81.5159 12.7038Z" fill="#F09823"/>
<path d="M81.7002 9.05386C81.7002 12.3034 79.072 14.9407 75.8271 14.9407C74.4555 14.9407 73.199 14.4713 72.2002 13.6842C73.5672 12.6072 74.4417 10.9318 74.4417 9.05386C74.4417 7.17596 73.5626 5.50517 72.2002 4.42353C73.199 3.63647 74.4601 3.16699 75.8271 3.16699C79.0674 3.16699 81.7002 5.80435 81.7002 9.05386Z" fill="#FF9E18"/>
</g>
<g clip-path="url(#clip1_226_4188)">
<path d="M1.44055 3.16699H3.1369V4.8768H1.44055V3.16699ZM1.44055 6.60008H3.1369V15.728C3.1369 17.1551 2.10024 18.0975 0.673154 18.0975H0V16.4954H0.484671C1.06358 16.4954 1.44055 16.2262 1.44055 15.5934V6.60008Z" fill="#0000AA"/>
<path d="M11.2146 11.4737V10.0736C11.2146 7.89256 9.59903 6.50586 7.72766 6.50586C6.08516 6.50586 4.24072 7.56944 4.24072 10.8679C4.24072 14.3414 6.26018 15.1761 7.99692 15.1761C9.12782 15.1761 10.2183 14.7722 11.053 13.8028L9.81444 12.7527C9.3163 13.2643 8.61622 13.574 7.96999 13.574C6.79871 13.574 5.95053 12.8739 5.95053 11.4872H11.2146V11.4737ZM5.93707 10.0736C5.97746 8.78112 6.71793 8.0945 7.72766 8.0945C8.73739 8.0945 9.4644 8.78112 9.51825 10.0736H5.93707Z" fill="#0000AA"/>
<path d="M12.5745 4.02832H14.2709V6.59977H15.5095V7.90569H14.2709V12.8332C14.2709 13.3044 14.4594 13.4659 14.8767 13.4659H15.5095V15.068H14.6209C13.4362 15.068 12.5611 14.3141 12.5611 12.9813V7.89222H11.7129V6.5863H12.5611V4.02832H12.5745Z" fill="#0000AA"/>
<path d="M21.0025 4.76931C22.3084 4.76931 22.9277 5.55017 22.9277 6.47912C22.9277 7.42153 22.3084 8.17547 21.0025 8.17547H18.3907V4.76931H21.0025ZM16.6001 15.0686H21.6084C23.3989 15.0686 24.9203 13.7492 24.9203 11.6893C24.9203 10.4911 24.2875 9.25251 22.9816 8.95632V8.9294C24.3683 8.3101 24.7318 7.35422 24.7318 6.37141C24.7318 4.50005 23.5336 3.18066 21.2045 3.18066H16.6001V15.0686ZM21.1775 9.79103C22.5104 9.79103 23.1162 10.6392 23.1162 11.5816C23.1162 12.524 22.5104 13.3722 21.1775 13.3722H18.4041V9.79103H21.1775Z" fill="#0000AA"/>
<path d="M25.8896 3.16699H27.5995V12.8739C27.5995 13.2508 27.8149 13.4528 28.2322 13.4528H28.8246V15.0549H28.0707C26.8321 15.0549 25.9031 14.5164 25.9031 12.995V3.16699H25.8896Z" fill="#0000AA"/>
<path d="M29.5381 6.59961H31.2479V11.6483C31.2479 12.8061 31.9614 13.4658 32.9308 13.4658C33.8867 13.4658 34.6002 12.7926 34.6002 11.6483V6.59961H36.31V15.0679H34.6002V14.1659H34.5733C34.0348 14.839 33.2674 15.1756 32.3788 15.1756C31.046 15.1756 29.5381 14.1524 29.5381 12.2406V6.59961Z" fill="#0000AA"/>
<path d="M44.1992 11.4737V10.0736C44.1992 7.89256 42.5837 6.50586 40.7123 6.50586C39.0698 6.50586 37.2119 7.56944 37.2119 10.8679C37.2119 14.3414 39.2314 15.1761 40.9681 15.1761C42.099 15.1761 43.1895 14.7722 44.0242 13.8028L42.7856 12.7527C42.2875 13.2643 41.5874 13.574 40.9277 13.574C39.7564 13.574 38.9083 12.8739 38.9083 11.4872H44.1992V11.4737ZM38.9217 10.0736C38.9621 8.78112 39.7026 8.0945 40.7123 8.0945C41.7086 8.0945 42.4491 8.78112 42.5029 10.0736H38.9217Z" fill="#0000AA"/>
<path d="M44.0783 5.91318H44.186C44.3072 5.91318 44.4149 5.89972 44.4149 5.79201C44.4149 5.68431 44.3206 5.67084 44.2129 5.67084H44.0783V5.91318ZM43.9167 5.52275H44.2533C44.4553 5.52275 44.5495 5.61699 44.5495 5.79201C44.5495 5.96703 44.4553 6.03435 44.3206 6.04781L44.5764 6.41131H44.4014L44.1456 6.06127H44.0514V6.39785H43.9033V5.52275H43.9167ZM44.2129 6.58633C44.5495 6.58633 44.8053 6.344 44.8053 5.98049C44.8053 5.63045 44.5495 5.37466 44.2129 5.37466C43.8763 5.37466 43.6205 5.61699 43.6205 5.98049C43.6205 6.33053 43.8763 6.58633 44.2129 6.58633ZM44.2129 5.22656C44.6303 5.22656 44.9669 5.56314 44.9669 5.98049C44.9669 6.39785 44.6303 6.73443 44.2129 6.73443C43.7956 6.73443 43.459 6.39785 43.459 5.98049C43.459 5.56314 43.7821 5.22656 44.2129 5.22656Z" fill="#0000AA"/>
</g>
<rect x="53.2002" width="0.633333" height="19" fill="#0000AA"/>
<defs>
<clipPath id="clip0_226_4188">
<rect width="19" height="11.7737" fill="white" transform="translate(62.7002 3.16699)"/>
</clipPath>
<clipPath id="clip1_226_4188">
<rect width="44.9667" height="14.9305" fill="white" transform="translate(0 3.16699)"/>
</clipPath>
</defs>
</svg>
