<svg width="108" height="25" viewBox="0 0 108 25" fill="none" xmlns="http://www.w3.org/2000/svg">
<g clip-path="url(#clip0_226_3184)">
<path d="M98.3796 5.82031H91.6208V17.9993H98.3796V5.82031Z" fill="#FF671D"/>
<path d="M92.0509 11.9129C92.0509 9.44194 93.2076 7.24354 95.0002 5.82034C93.686 4.78472 92.0266 4.16699 90.228 4.16699C85.9583 4.16699 82.5002 7.6372 82.5002 11.9129C82.5002 16.1886 85.9583 19.6588 90.228 19.6588C92.0327 19.6588 93.686 19.041 95.0002 18.0054C93.2016 16.5883 92.0509 14.3838 92.0509 11.9129Z" fill="#E01F27"/>
<path d="M106.761 16.7159V16.4676H106.864V16.4191H106.61V16.4676H106.713V16.7159H106.767H106.761ZM107.258 16.7159V16.4131H107.179L107.088 16.619L106.997 16.4131H106.919V16.7159H106.973V16.4918L107.058 16.6856H107.113L107.197 16.4918V16.722H107.252L107.258 16.7159Z" fill="#F09823"/>
<path d="M107.5 11.9129C107.5 16.1886 104.042 19.6588 99.7728 19.6588C97.968 19.6588 96.3147 19.041 95.0005 18.0054C96.7992 16.5883 97.9499 14.3838 97.9499 11.9129C97.9499 9.44194 96.7931 7.24354 95.0005 5.82034C96.3147 4.78472 97.9741 4.16699 99.7728 4.16699C104.036 4.16699 107.5 7.6372 107.5 11.9129Z" fill="#FF9E18"/>
</g>
<g clip-path="url(#clip1_226_3184)">
<g clip-path="url(#clip2_226_3184)">
<path d="M1.89619 3.94727H4.12965V6.19846H1.89619V3.94727ZM1.89619 8.46738H4.12965V20.4856C4.12965 22.3645 2.76476 23.6053 0.885808 23.6053H-0.000488281V21.4959H0.637645C1.39986 21.4959 1.89619 21.1414 1.89619 20.3083V8.46738Z" fill="white"/>
<path d="M14.7653 14.8846V13.0411C14.7653 10.1695 12.6382 8.34375 10.1743 8.34375C8.0117 8.34375 5.58325 9.7441 5.58325 14.087C5.58325 18.6602 8.24214 19.7592 10.5288 19.7592C12.0178 19.7592 13.4536 19.2275 14.5526 17.9512L12.9218 16.5686C12.2659 17.2422 11.3442 17.6499 10.4933 17.6499C8.95118 17.6499 7.83445 16.7281 7.83445 14.9023H14.7653V14.8846ZM7.81672 13.0411C7.8699 11.3394 8.84482 10.4354 10.1743 10.4354C11.5037 10.4354 12.4609 11.3394 12.5318 13.0411H7.81672Z" fill="white"/>
<path d="M16.5551 5.08203H18.7886V8.46768H20.4194V10.1871H18.7886V16.6748C18.7886 17.2952 19.0367 17.5079 19.5862 17.5079H20.4194V19.6173H19.2495C17.6896 19.6173 16.5374 18.6246 16.5374 16.8698V10.1694H15.4207V8.44996H16.5374V5.08203H16.5551Z" fill="white"/>
<path d="M27.6516 6.0565C29.371 6.0565 30.1864 7.08461 30.1864 8.3077C30.1864 9.54851 29.371 10.5412 27.6516 10.5412H24.2128V6.0565H27.6516ZM21.8552 19.6168H28.4493C30.8068 19.6168 32.8099 17.8797 32.8099 15.1676C32.8099 13.59 31.9767 11.9592 30.2573 11.5693V11.5338C32.0831 10.7184 32.5617 9.45988 32.5617 8.16589C32.5617 5.70199 30.9841 3.96484 27.9175 3.96484H21.8552V19.6168ZM27.882 12.6683C29.6369 12.6683 30.4346 13.785 30.4346 15.0258C30.4346 16.2666 29.6369 17.3834 27.882 17.3834H24.2305V12.6683H27.882Z" fill="white"/>
<path d="M34.0867 3.94727H36.3379V16.7277C36.3379 17.224 36.6215 17.4899 37.171 17.4899H37.9509V19.5993H36.9583C35.3275 19.5993 34.1044 18.8902 34.1044 16.8872V3.94727H34.0867Z" fill="white"/>
<path d="M38.8904 8.46777H41.1416V15.115C41.1416 16.6394 42.0811 17.508 43.3573 17.508C44.6159 17.508 45.5553 16.6217 45.5553 15.115V8.46777H47.8065V19.6174H45.5553V18.4297H45.5199C44.8108 19.316 43.8005 19.7592 42.6306 19.7592C40.8757 19.7592 38.8904 18.412 38.8904 15.8949V8.46777Z" fill="white"/>
<path d="M58.1937 14.8846V13.0411C58.1937 10.1695 56.0665 8.34375 53.6026 8.34375C51.4401 8.34375 48.9939 9.7441 48.9939 14.087C48.9939 18.6602 51.6528 19.7592 53.9394 19.7592C55.4284 19.7592 56.8642 19.2275 57.9632 17.9512L56.3324 16.5686C55.6766 17.2422 54.7548 17.6499 53.8863 17.6499C52.3441 17.6499 51.2274 16.7281 51.2274 14.9023H58.1937V14.8846ZM51.2451 13.0411C51.2983 11.3394 52.2732 10.4354 53.6026 10.4354C54.9144 10.4354 55.8893 11.3394 55.9602 13.0411H51.2451Z" fill="white"/>
<path d="M58.0344 7.5632H58.1762C58.3357 7.5632 58.4775 7.54548 58.4775 7.40367C58.4775 7.26186 58.3535 7.24414 58.2116 7.24414H58.0344V7.5632ZM57.8217 7.04915H58.2648C58.5307 7.04915 58.6548 7.17323 58.6548 7.40367C58.6548 7.63411 58.5307 7.72274 58.3535 7.74046L58.6902 8.21906H58.4598L58.123 7.75819H57.9989V8.20134H57.804V7.04915H57.8217ZM58.2116 8.4495C58.6548 8.4495 58.9916 8.13043 58.9916 7.65183C58.9916 7.19096 58.6548 6.85416 58.2116 6.85416C57.7685 6.85416 57.4317 7.17323 57.4317 7.65183C57.4317 8.11271 57.7685 8.4495 58.2116 8.4495ZM58.2116 6.65918C58.7612 6.65918 59.2043 7.10233 59.2043 7.65183C59.2043 8.20134 58.7612 8.64448 58.2116 8.64448C57.6621 8.64448 57.219 8.20134 57.219 7.65183C57.219 7.10233 57.6444 6.65918 58.2116 6.65918Z" fill="white"/>
</g>
</g>
<rect x="70.0002" width="0.833333" height="25" fill="white"/>
<defs>
<clipPath id="clip0_226_3184">
<rect width="25" height="15.4918" fill="white" transform="translate(82.5002 4.16699)"/>
</clipPath>
<clipPath id="clip1_226_3184">
<rect width="59.1667" height="19.6455" fill="white" transform="translate(-0.000244141 4.16699)"/>
</clipPath>
<clipPath id="clip2_226_3184">
<rect width="59.2046" height="19.6581" fill="white" transform="translate(-0.000488281 3.94727)"/>
</clipPath>
</defs>
</svg>
