<svg width="158" height="19" viewBox="0 0 158 19" fill="none" xmlns="http://www.w3.org/2000/svg">
<g clip-path="url(#clip0_0_167)">
<path d="M74.7685 4.42322H69.6318V13.6793H74.7685V4.42322Z" fill="#FF671D"/>
<path d="M69.9587 9.05356C69.9587 7.17565 70.8378 5.50487 72.2002 4.42323C71.2014 3.63616 69.9403 3.16669 68.5733 3.16669C65.3283 3.16669 62.7002 5.80404 62.7002 9.05356C62.7002 12.3031 65.3283 14.9404 68.5733 14.9404C69.9449 14.9404 71.2014 14.471 72.2002 13.6839C70.8332 12.6069 69.9587 10.9315 69.9587 9.05356Z" fill="#E01F27"/>
<path d="M81.1385 12.7035V12.5148H81.2168V12.4779H81.0234V12.5148H81.1017V12.7035H81.1431H81.1385ZM81.5159 12.7035V12.4733H81.4561L81.3871 12.6298L81.318 12.4733H81.2582V12.7035H81.2996V12.5332L81.364 12.6805H81.4055L81.4699 12.5332V12.7081H81.5113L81.5159 12.7035Z" fill="#F09823"/>
<path d="M81.7002 9.05356C81.7002 12.3031 79.072 14.9404 75.8271 14.9404C74.4555 14.9404 73.199 14.471 72.2002 13.6839C73.5672 12.6069 74.4417 10.9315 74.4417 9.05356C74.4417 7.17565 73.5626 5.50487 72.2002 4.42323C73.199 3.63616 74.4601 3.16669 75.8271 3.16669C79.0674 3.16669 81.7002 5.80404 81.7002 9.05356Z" fill="#FF9E18"/>
</g>
<g clip-path="url(#clip1_0_167)">
<path d="M1.44055 3.16669H3.1369V4.8765H1.44055V3.16669ZM1.44055 6.59977H3.1369V15.7277C3.1369 17.1548 2.10024 18.0972 0.673154 18.0972H0V16.4951H0.484671C1.06358 16.4951 1.44055 16.2259 1.44055 15.5931V6.59977Z" fill="white"/>
<path d="M11.2146 11.4734V10.0732C11.2146 7.89219 9.59903 6.50549 7.72766 6.50549C6.08516 6.50549 4.24072 7.56908 4.24072 10.8675C4.24072 14.341 6.26018 15.1757 7.99692 15.1757C9.12782 15.1757 10.2183 14.7718 11.053 13.8025L9.81444 12.7524C9.3163 13.264 8.61622 13.5736 7.96999 13.5736C6.79871 13.5736 5.95053 12.8735 5.95053 11.4868H11.2146V11.4734ZM5.93707 10.0732C5.97746 8.78075 6.71793 8.09414 7.72766 8.09414C8.73739 8.09414 9.4644 8.78075 9.51825 10.0732H5.93707Z" fill="white"/>
<path d="M12.5745 4.02832H14.2709V6.59977H15.5095V7.90569H14.2709V12.8332C14.2709 13.3044 14.4594 13.4659 14.8767 13.4659H15.5095V15.068H14.6209C13.4362 15.068 12.5611 14.3141 12.5611 12.9813V7.89222H11.7129V6.5863H12.5611V4.02832H12.5745Z" fill="white"/>
<path d="M21.0025 4.76876C22.3084 4.76876 22.9277 5.54962 22.9277 6.47857C22.9277 7.42098 22.3084 8.17492 21.0025 8.17492H18.3907V4.76876H21.0025ZM16.6001 15.068H21.6084C23.3989 15.068 24.9203 13.7486 24.9203 11.6888C24.9203 10.4906 24.2875 9.25196 22.9816 8.95577V8.92885C24.3683 8.30955 24.7318 7.35367 24.7318 6.37086C24.7318 4.4995 23.5336 3.18011 21.2045 3.18011H16.6001V15.068ZM21.1775 9.79048C22.5104 9.79048 23.1162 10.6387 23.1162 11.5811C23.1162 12.5235 22.5104 13.3717 21.1775 13.3717H18.4041V9.79048H21.1775Z" fill="white"/>
<path d="M25.8896 3.16663H27.5995V12.8735C27.5995 13.2505 27.8149 13.4524 28.2322 13.4524H28.8246V15.0545H28.0707C26.8321 15.0545 25.9031 14.516 25.9031 12.9947V3.16663H25.8896Z" fill="white"/>
<path d="M29.5381 6.59973H31.2479V11.6484C31.2479 12.8062 31.9614 13.4659 32.9308 13.4659C33.8867 13.4659 34.6002 12.7927 34.6002 11.6484V6.59973H36.31V15.068H34.6002V14.166H34.5733C34.0348 14.8391 33.2674 15.1757 32.3788 15.1757C31.046 15.1757 29.5381 14.1525 29.5381 12.2408V6.59973Z" fill="white"/>
<path d="M44.1992 11.4734V10.0732C44.1992 7.89219 42.5837 6.50549 40.7123 6.50549C39.0698 6.50549 37.2119 7.56908 37.2119 10.8675C37.2119 14.341 39.2314 15.1757 40.9681 15.1757C42.099 15.1757 43.1895 14.7718 44.0242 13.8025L42.7856 12.7524C42.2875 13.264 41.5874 13.5736 40.9277 13.5736C39.7564 13.5736 38.9083 12.8735 38.9083 11.4868H44.1992V11.4734ZM38.9217 10.0732C38.9621 8.78075 39.7026 8.09414 40.7123 8.09414C41.7086 8.09414 42.4491 8.78075 42.5029 10.0732H38.9217Z" fill="white"/>
<path d="M44.0783 5.91312H44.186C44.3072 5.91312 44.4149 5.89966 44.4149 5.79195C44.4149 5.68425 44.3206 5.67078 44.2129 5.67078H44.0783V5.91312ZM43.9167 5.52269H44.2533C44.4553 5.52269 44.5495 5.61693 44.5495 5.79195C44.5495 5.96697 44.4553 6.03429 44.3206 6.04775L44.5764 6.41125H44.4014L44.1456 6.06121H44.0514V6.39779H43.9033V5.52269H43.9167ZM44.2129 6.58627C44.5495 6.58627 44.8053 6.34394 44.8053 5.98043C44.8053 5.63039 44.5495 5.3746 44.2129 5.3746C43.8763 5.3746 43.6205 5.61693 43.6205 5.98043C43.6205 6.33047 43.8763 6.58627 44.2129 6.58627ZM44.2129 5.2265C44.6303 5.2265 44.9669 5.56308 44.9669 5.98043C44.9669 6.39779 44.6303 6.73437 44.2129 6.73437C43.7956 6.73437 43.459 6.39779 43.459 5.98043C43.459 5.56308 43.7821 5.2265 44.2129 5.2265Z" fill="white"/>
</g>
<rect x="53.2002" width="0.633333" height="19" fill="white"/>
<rect x="91" width="0.633333" height="19" fill="white"/>
<g clip-path="url(#clip2_0_167)">
<path fill-rule="evenodd" clip-rule="evenodd" d="M102 14.3362H112.336V4H102V14.3362ZM104.282 11.291V9.27409C105.205 9.77114 105.123 10.8698 104.282 11.291ZM104.282 8.91866V7.00914C105.101 7.34143 105.238 8.43365 104.282 8.91866ZM104.797 9.08342L104.795 9.08064C104.795 9.08064 105.259 8.80111 105.377 8.22446V9.94053C105.277 9.41756 104.882 9.14173 104.796 9.08342H104.797ZM105.885 5.96876C107.05 6.72776 107.149 9.0214 105.885 9.90165V5.96876ZM107.16 8.61599V13.1709C106.713 13.1709 106.286 13.0931 105.885 12.9589V10.4441C106.183 10.2793 106.937 9.73042 107.16 8.61692V8.61599ZM107.667 5.70774C109.011 6.54449 108.961 8.93903 107.667 9.88129V5.70774ZM108.943 8.79648V12.747C108.551 12.9432 108.121 13.0765 107.667 13.1339V10.433C107.97 10.2691 108.633 9.74338 108.943 8.79648ZM107.813 5.2255C108.214 5.29122 108.593 5.41525 108.943 5.59019V6.65926C108.745 6.07521 108.369 5.61703 107.813 5.22643V5.2255ZM109.449 6.33345C110.381 6.99803 110.535 8.68263 109.449 9.56381V6.33345ZM107.161 7.28312C107.012 6.50006 106.597 5.90027 105.926 5.36434C106.315 5.23753 106.73 5.16719 107.161 5.16719V7.28312ZM105.378 5.59019V7.69501C105.246 7.00359 104.607 6.63612 104.186 6.50006C104.522 6.12611 104.926 5.81789 105.378 5.59019ZM103.775 7.04339V11.2956C103.387 10.6792 103.159 9.95164 103.159 9.1695C103.159 8.38737 103.387 7.65984 103.775 7.04339ZM104.195 11.8473C104.204 11.8436 104.216 11.8399 104.224 11.838C104.258 11.826 104.281 11.8186 104.281 11.8186V11.814C104.8 11.6205 105.269 11.1558 105.377 10.482V12.746C104.927 12.522 104.526 12.2166 104.194 11.8463L104.195 11.8473ZM109.449 12.4471V10.0109L110.268 11.6853C110.032 11.975 109.757 12.2323 109.449 12.4461V12.4471ZM110.599 11.2086L109.89 9.78595H109.889C110.242 9.43237 110.668 8.91774 110.668 8.04674C110.668 7.57931 110.591 7.20907 110.445 6.88696C110.895 7.53303 111.163 8.31887 111.163 9.16858C111.163 9.91461 110.953 10.6107 110.599 11.2086Z" fill="white"/>
<path d="M117.859 6.58428H114.626C114.755 6.6574 114.92 6.93416 114.92 7.1489V11.2077C114.917 11.427 114.721 11.7149 114.625 11.7529H117.326C117.239 11.7186 117.03 11.4419 117.03 11.2003V9.8711L118.056 9.86925C118.711 9.8711 119.953 9.62859 119.953 8.20131C119.953 7.12946 119.229 6.58243 117.858 6.58428M117.03 9.31574V7.15075C117.516 7.14519 118.078 7.16926 118.078 8.24018C118.078 9.31111 117.389 9.31574 117.03 9.31574ZM123.462 6.47321C121.743 6.47321 120.355 7.48211 120.355 9.16209C120.355 9.85907 120.687 11.8695 123.504 11.8695C125.145 11.8695 126.612 11.0855 126.612 9.16209C126.612 7.62651 125.425 6.47321 123.462 6.47321ZM123.493 11.2873C122.937 11.2873 122.446 10.6412 122.446 9.17505C122.446 7.82551 122.794 7.06004 123.477 7.06004C124.198 7.06004 124.542 7.78571 124.542 9.17505C124.542 10.4061 124.251 11.2873 123.493 11.2873ZM130.201 6.58335H126.968C127.097 6.65648 127.262 6.93323 127.262 7.14797V11.2067C127.259 11.4261 127.063 11.714 126.967 11.7519H129.668C129.582 11.7177 129.372 11.4409 129.372 11.1993V9.87017L130.399 9.86832C131.054 9.87017 132.296 9.62767 132.296 8.20038C132.296 7.12853 131.574 6.5815 130.201 6.58335ZM129.374 9.31481V7.14982C129.859 7.14427 130.422 7.16833 130.422 8.23926C130.422 9.31018 129.732 9.31481 129.374 9.31481ZM137.024 6.58335C137.155 6.67406 137.288 6.89065 137.293 7.10724L137.287 9.77021C137.285 10.3515 136.931 10.9726 136.062 10.9679C135.393 10.9642 134.878 10.5514 134.874 9.75355V7.17389C134.876 7.02579 134.931 6.72219 135.165 6.58335H132.473C132.6 6.68424 132.762 6.92212 132.771 7.1526V9.81279C132.763 10.9531 133.678 11.8898 135.464 11.8815C136.443 11.8769 137.095 11.676 137.538 11.2086C137.816 10.9133 138.086 10.4468 138.096 9.75725L138.107 7.17389C138.108 6.97211 138.205 6.74441 138.397 6.58428H137.025L137.024 6.58335ZM142.757 11.0013H141.097V7.09429C141.113 6.86659 141.273 6.6537 141.402 6.58428H138.702C138.832 6.64722 138.995 6.94156 138.995 7.15723V11.216C138.992 11.4381 138.797 11.7158 138.7 11.7538H143.232L143.739 10.5801C143.545 10.8078 143.309 10.9763 142.758 11.0022L142.757 11.0013ZM152.112 9.19171L153.654 11.7519H156.347C156.155 11.6807 155.763 11.0966 155.604 10.8615C155.445 10.6245 155.044 10.0784 154.948 9.94792C154.642 9.52955 154.477 9.34443 154.339 9.26298C154.345 9.26298 154.338 9.25928 154.339 9.25465C155.001 9.08711 155.357 8.56692 155.355 7.89401C155.353 7.24238 154.95 6.5815 153.668 6.5815H149.665C149.906 6.82864 149.965 7.01098 149.966 7.39511V11.3113C149.966 11.3761 149.968 11.602 149.828 11.602C149.748 11.6001 149.706 11.5733 149.64 11.4604L147.624 6.5815H145.38C145.457 6.70646 145.638 6.87769 145.52 7.20721L143.916 11.0781C143.739 11.4576 143.604 11.5909 143.421 11.7492H144.754C144.709 11.652 144.652 11.3845 144.783 11.0355L145.011 10.4311H146.961L147.198 11.0744C147.29 11.3021 147.261 11.5538 147.129 11.7492H152.368C152.307 11.7019 152.098 11.5381 152.098 11.2586V9.188H152.112V9.19171ZM152.105 7.16556H152.434C153.228 7.16648 153.301 7.68112 153.303 8.09857C153.303 8.66874 152.974 9.07138 152.395 9.0723H152.106V7.16556H152.105ZM145.255 9.80168L146.003 7.84865H146.004L146.735 9.80168H145.255Z" fill="white"/>
<path d="M158 10.893C158 11.3697 157.62 11.7538 157.131 11.7538C156.642 11.7538 156.263 11.3697 156.263 10.893C156.263 10.4163 156.638 10.0331 157.131 10.0331C157.623 10.0331 158 10.4089 158 10.893ZM157.131 10.1766C156.731 10.1766 156.414 10.4885 156.414 10.893C156.414 11.2975 156.73 11.6094 157.131 11.6094C157.532 11.6094 157.847 11.2891 157.847 10.893C157.847 10.4968 157.535 10.1766 157.131 10.1766ZM156.747 10.4005C156.783 10.4052 156.836 10.4089 156.915 10.4089C156.955 10.4089 157.139 10.4005 157.179 10.4005C157.327 10.4005 157.508 10.4487 157.508 10.6245C157.508 10.7847 157.376 10.8643 157.223 10.8846C157.351 11.0411 157.484 11.2049 157.616 11.3613C157.568 11.3567 157.528 11.353 157.48 11.353C157.428 11.353 157.399 11.3567 157.352 11.3613C157.233 11.2049 157.132 11.0577 157.004 10.9133H156.968C156.968 11.0577 156.972 11.2104 156.976 11.3613C156.936 11.3567 156.9 11.353 156.861 11.353C156.824 11.353 156.788 11.3567 156.744 11.3613C156.757 11.0929 156.757 10.9411 156.757 10.7967C156.757 10.6523 156.757 10.581 156.749 10.4005H156.747ZM156.967 10.8208C156.999 10.8254 157.035 10.8254 157.071 10.8254C157.226 10.8254 157.287 10.7254 157.287 10.6449C157.287 10.5209 157.195 10.4885 157.075 10.4885C157.059 10.4885 156.991 10.4931 156.967 10.4968V10.8208Z" fill="white"/>
</g>
<defs>
<clipPath id="clip0_0_167">
<rect width="19" height="11.7737" fill="white" transform="translate(62.7002 3.16669)"/>
</clipPath>
<clipPath id="clip1_0_167">
<rect width="44.9667" height="14.9305" fill="white" transform="translate(0 3.16669)"/>
</clipPath>
<clipPath id="clip2_0_167">
<rect width="56" height="10.3362" fill="white" transform="translate(102 4)"/>
</clipPath>
</defs>
</svg>
