<svg width="32" height="32" viewBox="0 0 32 32" fill="none" xmlns="http://www.w3.org/2000/svg">
<g id="interactivo 2" clip-path="url(#clip0_0_3177)">
<path id="Vector" d="M31.6093 29.724L30.1733 28.288L27.8666 25.9853L31.5853 22.2666C31.7435 22.1081 31.8593 21.9122 31.9219 21.6971C31.9845 21.482 31.9919 21.2546 31.9434 21.0359C31.8949 20.8172 31.7921 20.6142 31.6444 20.4458C31.4968 20.2773 31.3091 20.1487 31.0986 20.072L19.1399 15.7333C18.6636 15.5611 18.148 15.5282 17.6537 15.6383C17.1593 15.7485 16.7065 15.9971 16.3483 16.3552C15.99 16.7133 15.7412 17.166 15.6309 17.6603C15.5205 18.1547 15.5533 18.6702 15.7253 19.1466L20.0759 31.1053C20.1523 31.316 20.2806 31.5039 20.4488 31.6519C20.6171 31.7999 20.8199 31.9031 21.0386 31.952C21.1336 31.9726 21.2307 31.9829 21.3279 31.9826C21.6815 31.9826 22.0206 31.842 22.2706 31.592L25.9853 27.8666L28.2879 30.1693L29.7239 31.6053C29.9754 31.8482 30.3122 31.9826 30.6618 31.9795C31.0114 31.9765 31.3458 31.8363 31.593 31.5891C31.8402 31.3419 31.9805 31.0074 31.9835 30.6578C31.9865 30.3082 31.8521 29.9714 31.6093 29.72V29.724ZM21.8666 28.22L18.2346 18.2333L28.2213 21.8653L21.8666 28.22Z" fill="#0000AA"/>
<path id="Vector_2" d="M13.3333 26.6667C10.6963 26.6667 8.11839 25.8847 5.92574 24.4196C3.73308 22.9545 2.02411 20.8721 1.01495 18.4358C0.00577712 15.9994 -0.258267 13.3185 0.256202 10.7321C0.770672 8.14572 2.04055 5.76995 3.90525 3.90525C5.76995 2.04055 8.14572 0.770672 10.7321 0.256202C13.3185 -0.258267 15.9994 0.00577712 18.4358 1.01495C20.8721 2.02411 22.9545 3.73308 24.4196 5.92574C25.8847 8.11839 26.6667 10.6963 26.6667 13.3333C26.6667 13.687 26.5262 14.0261 26.2761 14.2761C26.0261 14.5262 25.687 14.6667 25.3333 14.6667C24.9797 14.6667 24.6406 14.5262 24.3905 14.2761C24.1405 14.0261 24 13.687 24 13.3333C24 11.2237 23.3744 9.16138 22.2023 7.40726C21.0303 5.65313 19.3644 4.28596 17.4153 3.47862C15.4662 2.67129 13.3215 2.46005 11.2524 2.87163C9.18325 3.28321 7.28263 4.29911 5.79087 5.79087C4.29911 7.28263 3.28321 9.18325 2.87163 11.2524C2.46005 13.3215 2.67129 15.4662 3.47862 17.4153C4.28596 19.3644 5.65313 21.0303 7.40726 22.2023C9.16138 23.3744 11.2237 24 13.3333 24C13.687 24 14.0261 24.1405 14.2761 24.3905C14.5262 24.6406 14.6667 24.9797 14.6667 25.3333C14.6667 25.687 14.5262 26.0261 14.2761 26.2761C14.0261 26.5262 13.687 26.6667 13.3333 26.6667Z" fill="#0000AA"/>
<path id="Vector_3" d="M10.7786 20.8267C10.6034 20.8268 10.4299 20.7923 10.268 20.7253C9.05311 20.2207 7.98143 19.4244 7.14782 18.4067C6.31422 17.3891 5.74442 16.1816 5.48889 14.8912C5.23337 13.6008 5.3 12.2672 5.68289 11.0087C6.06577 9.75019 6.7531 8.60551 7.68399 7.67604C8.61489 6.74657 9.76062 6.06099 11.0197 5.68003C12.2788 5.29907 13.6125 5.23448 14.9025 5.49198C16.1925 5.74948 17.3991 6.32113 18.4155 7.15629C19.4319 7.99145 20.2266 9.06436 20.7293 10.28C20.7998 10.4424 20.8372 10.6172 20.8394 10.7942C20.8415 10.9713 20.8084 11.147 20.742 11.3111C20.6756 11.4752 20.5771 11.6244 20.4524 11.75C20.3276 11.8757 20.1791 11.9752 20.0155 12.0428C19.8519 12.1105 19.6765 12.1449 19.4995 12.144C19.3224 12.1431 19.1473 12.107 18.9844 12.0377C18.8215 11.9684 18.674 11.8674 18.5505 11.7405C18.4271 11.6136 18.3301 11.4634 18.2653 11.2987C17.9294 10.489 17.3991 9.77456 16.7213 9.21866C16.0435 8.66275 15.2391 8.28248 14.3794 8.1115C13.5196 7.94052 12.6309 7.9841 11.792 8.23838C10.9531 8.49266 10.1898 8.94981 9.56966 9.56936C8.94952 10.1889 8.49164 10.9518 8.23656 11.7904C7.98148 12.6291 7.93705 13.5177 8.10721 14.3777C8.27736 15.2376 8.65686 16.0423 9.21212 16.7206C9.76738 17.399 10.4813 17.93 11.2906 18.2667C11.5759 18.3847 11.8113 18.5981 11.9568 18.8703C12.1023 19.1426 12.1488 19.4569 12.0883 19.7596C12.0279 20.0623 11.8643 20.3347 11.6255 20.5303C11.3866 20.7259 11.0873 20.8325 10.7786 20.832V20.8267Z" fill="#0000AA"/>
</g>
<defs>
<clipPath id="clip0_0_3177">
<rect width="32" height="32" fill="white"/>
</clipPath>
</defs>
</svg>
