<svg width="38" height="38" viewBox="0 0 38 38" fill="none" xmlns="http://www.w3.org/2000/svg">
<g id="Group 1114">
<g id="Group 1113">
<circle id="Ellipse 70" cx="18.6392" cy="18.6392" r="18.6392" fill="white"/>
<path id="Vector" d="M10.3551 20.6054L24.1619 20.6054L19.6195 25.1511C19.4901 25.2796 19.3874 25.4324 19.3173 25.6008C19.2472 25.7691 19.2111 25.9497 19.2111 26.1321C19.2111 26.3145 19.2472 26.4951 19.3173 26.6635C19.3874 26.8319 19.4901 26.9847 19.6195 27.1131C19.8782 27.3704 20.2281 27.5149 20.5929 27.5149C20.9576 27.5149 21.3075 27.3704 21.5662 27.1131L27.4894 21.1719C28.0079 20.6561 28.3009 19.9554 28.304 19.2237C28.2972 18.4968 28.0046 17.8019 27.4894 17.2894L21.5662 11.3482C21.4375 11.2203 21.2849 11.119 21.117 11.0501C20.9492 10.9812 20.7694 10.9461 20.588 10.9467C20.4066 10.9474 20.227 10.9838 20.0597 11.0538C19.8923 11.1239 19.7404 11.2263 19.6126 11.3551C19.4847 11.4839 19.3835 11.6367 19.3147 11.8047C19.2459 11.9726 19.2108 12.1525 19.2114 12.3341C19.212 12.5156 19.2484 12.6953 19.3184 12.8627C19.3884 13.0302 19.4907 13.1823 19.6195 13.3102L24.1619 17.8421L10.3551 17.8421C9.98893 17.8421 9.63775 17.9876 9.37882 18.2467C9.11989 18.5059 8.97443 18.8573 8.97443 19.2237C8.97443 19.5902 9.11989 19.9416 9.37882 20.2007C9.63775 20.4598 9.98893 20.6054 10.3551 20.6054Z" fill="#0000A6"/>
</g>
</g>
</svg>
