<svg width="80" height="114" viewBox="0 0 80 114" fill="none" xmlns="http://www.w3.org/2000/svg">
<path d="M0.21125 19.28C1.70458 17.3067 3.57125 15.2 5.81125 12.96C8.05125 10.6667 10.7179 8.55999 13.8113 6.64C16.9046 4.72 20.4779 3.14666 24.5313 1.92C28.5846 0.639996 33.2246 -5.72205e-06 38.4513 -5.72205e-06C44.3179 -5.72205e-06 49.5979 0.879994 54.2913 2.63999C58.9846 4.39999 62.9579 6.87999 66.2113 10.08C69.5179 13.2267 72.0513 17.04 73.8113 21.52C75.5713 25.9467 76.4513 30.8267 76.4513 36.16C76.4513 39.5733 76.0246 42.7733 75.1712 45.76C74.3713 48.6933 73.2513 51.4933 71.8113 54.16C70.3713 56.7733 68.6646 59.28 66.6913 61.68C64.7179 64.08 62.5846 66.48 60.2913 68.88L36.3713 93.76H79.1713V114H5.17125V97.12L44.7713 56.56C47.7579 53.52 50.0246 50.4533 51.5713 47.36C53.1713 44.2133 53.9713 40.88 53.9713 37.36C53.9713 34.9067 53.5446 32.6667 52.6913 30.64C51.8913 28.6133 50.7446 26.8533 49.2513 25.36C47.7579 23.8667 45.9446 22.72 43.8113 21.92C41.7313 21.0667 39.4113 20.64 36.8513 20.64C34.1846 20.64 31.7579 20.9867 29.5713 21.68C27.4379 22.32 25.4646 23.2 23.6513 24.32C21.8379 25.44 20.1579 26.7467 18.6113 28.24C17.0646 29.7333 15.5713 31.3067 14.1313 32.96L0.21125 19.28Z" fill="black"/>
</svg>
