<svg width="89" height="116" viewBox="0 0 89 116" fill="none" xmlns="http://www.w3.org/2000/svg">
<path d="M44.6113 -5.72205e-06C50.2646 -5.72205e-06 55.5713 0.746661 60.5313 2.23999C65.5446 3.67999 69.8913 5.78666 73.5713 8.55999C77.3046 11.28 80.2379 14.64 82.3713 18.64C84.5579 22.64 85.6513 27.1467 85.6513 32.16C85.6513 35.36 85.1979 38.2933 84.2913 40.96C83.4379 43.5733 82.2379 45.92 80.6913 48C79.1979 50.08 77.3846 51.92 75.2513 53.52C73.1713 55.0667 70.9313 56.4 68.5313 57.52C71.3046 58.5867 73.8913 59.92 76.2913 61.52C78.6913 63.0667 80.7713 64.9067 82.5313 67.04C84.3446 69.12 85.7579 71.5467 86.7713 74.32C87.8379 77.04 88.3713 80.1067 88.3713 83.52C88.3713 88.64 87.2246 93.2 84.9313 97.2C82.6379 101.2 79.4913 104.613 75.4913 107.44C71.5446 110.213 66.9046 112.347 61.5713 113.84C56.2913 115.28 50.6379 116 44.6113 116C38.5846 116 32.9046 115.28 27.5713 113.84C22.2913 112.347 17.6513 110.213 13.6513 107.44C9.70458 104.613 6.58458 101.2 4.29125 97.2C1.99792 93.2 0.85125 88.64 0.85125 83.52C0.85125 80.1067 1.35792 77.04 2.37125 74.32C3.38458 71.5467 4.77125 69.12 6.53125 67.04C8.34458 64.9067 10.4513 63.0667 12.8513 61.52C15.2513 59.92 17.8379 58.5867 20.6113 57.52C18.2113 56.4 15.9713 55.0667 13.8913 53.52C11.8113 51.92 9.99792 50.08 8.45125 48C6.95792 45.92 5.75792 43.5733 4.85125 40.96C3.99792 38.2933 3.57125 35.36 3.57125 32.16C3.57125 27.1467 4.63792 22.64 6.77125 18.64C8.95792 14.64 11.8913 11.28 15.5713 8.55999C19.3046 5.78666 23.6513 3.67999 28.6113 2.23999C33.6246 0.746661 38.9579 -5.72205e-06 44.6113 -5.72205e-06ZM44.6113 66.32C41.7846 66.32 39.1179 66.6667 36.6113 67.36C34.1579 68 31.9979 68.96 30.1313 70.24C28.3179 71.52 26.8513 73.12 25.7313 75.04C24.6646 76.96 24.1313 79.1733 24.1313 81.68C24.1313 84.1333 24.6646 86.2933 25.7313 88.16C26.8513 90.0267 28.3179 91.6 30.1313 92.88C31.9979 94.16 34.1579 95.12 36.6113 95.76C39.1179 96.4 41.7846 96.72 44.6113 96.72C47.3846 96.72 49.9979 96.4 52.4513 95.76C54.9579 95.12 57.1446 94.16 59.0113 92.88C60.8779 91.6 62.3446 90.0267 63.4113 88.16C64.5313 86.2933 65.0913 84.1333 65.0913 81.68C65.0913 79.1733 64.5313 76.96 63.4113 75.04C62.3446 73.12 60.8779 71.52 59.0113 70.24C57.1446 68.96 54.9579 68 52.4513 67.36C49.9979 66.6667 47.3846 66.32 44.6113 66.32ZM44.6113 19.52C42.1046 19.52 39.7579 19.84 37.5713 20.48C35.3846 21.0667 33.4646 21.9733 31.8113 23.2C30.1579 24.4267 28.8513 25.9467 27.8913 27.76C26.9846 29.52 26.5313 31.5467 26.5313 33.84C26.5313 36.24 26.9846 38.3733 27.8913 40.24C28.8513 42.0533 30.1579 43.5733 31.8113 44.8C33.4646 46.0267 35.3846 46.96 37.5713 47.6C39.7579 48.24 42.1046 48.56 44.6113 48.56C47.1179 48.56 49.4646 48.24 51.6513 47.6C53.8379 46.96 55.7579 46.0267 57.4113 44.8C59.0646 43.5733 60.3446 42.0533 61.2513 40.24C62.2113 38.3733 62.6913 36.24 62.6913 33.84C62.6913 31.5467 62.2113 29.52 61.2513 27.76C60.3446 25.9467 59.0646 24.4267 57.4113 23.2C55.7579 21.9733 53.8379 21.0667 51.6513 20.48C49.4646 19.84 47.1179 19.52 44.6113 19.52Z" fill="black"/>
</svg>
