<svg width="82" height="116" viewBox="0 0 82 116" fill="none" xmlns="http://www.w3.org/2000/svg">
<path d="M39.1713 -5.72205e-06C45.0913 -5.72205e-06 50.4779 0.773329 55.3313 2.32C60.1846 3.86666 64.3446 6.05333 67.8113 8.88C71.3313 11.6533 74.0513 15.0133 75.9713 18.96C77.8913 22.9067 78.8513 27.3067 78.8513 32.16C78.8513 38.1333 77.3579 43.2533 74.3713 47.52C71.4379 51.7867 67.3579 55.1467 62.1313 57.6C68.0513 59.9467 72.7179 63.3067 76.1313 67.68C79.5979 72 81.3313 77.2 81.3313 83.28C81.3313 88.8267 80.1579 93.6533 77.8113 97.76C75.5179 101.813 72.4513 105.2 68.6113 107.92C64.7713 110.64 60.3713 112.667 55.4113 114C50.4513 115.333 45.3313 116 40.0513 116C31.6246 116 24.0513 114.587 17.3313 111.76C10.6646 108.933 5.19792 104.933 0.93125 99.76L13.8113 85.6C17.0646 89.0133 20.9046 91.6533 25.3313 93.52C29.7579 95.3867 34.3979 96.32 39.2513 96.32C41.9713 96.32 44.5046 96.0267 46.8513 95.44C49.2513 94.8533 51.3313 93.9733 53.0913 92.8C54.9046 91.5733 56.3179 90.0533 57.3313 88.24C58.3446 86.3733 58.8513 84.2133 58.8513 81.76C58.8513 79.36 58.2646 77.2533 57.0913 75.44C55.9713 73.6267 54.3979 72.1067 52.3713 70.88C50.3979 69.6 48.0779 68.6667 45.4113 68.08C42.7979 67.44 39.9713 67.12 36.9313 67.12H23.8913V47.92H37.0113C39.7313 47.92 42.2646 47.6267 44.6113 47.04C47.0113 46.4533 49.0913 45.5733 50.8513 44.4C52.6646 43.1733 54.0779 41.68 55.0913 39.92C56.1046 38.1067 56.6113 36.0267 56.6113 33.68C56.6113 31.44 56.1313 29.44 55.1713 27.68C54.2113 25.92 52.8779 24.4533 51.1713 23.28C49.5179 22.1067 47.5713 21.2267 45.3313 20.64C43.0913 20 40.6646 19.68 38.0513 19.68C35.4379 19.68 33.0113 20 30.7713 20.64C28.5313 21.2267 26.4513 22.0533 24.5313 23.12C22.6646 24.1333 20.9579 25.3333 19.4113 26.72C17.8646 28.1067 16.5313 29.5467 15.4113 31.04L1.81125 17.36C3.62458 14.9067 5.75792 12.6133 8.21125 10.48C10.6646 8.34666 13.4379 6.50666 16.5313 4.96C19.6246 3.41333 23.0379 2.21333 26.7713 1.35999C30.5579 0.453327 34.6913 -5.72205e-06 39.1713 -5.72205e-06Z" fill="black"/>
</svg>
