<svg width="81" height="114" viewBox="0 0 81 114" fill="none" xmlns="http://www.w3.org/2000/svg">
<path d="M74.4113 20.08H29.0513L28.5713 42.48H41.4513C47.9579 42.48 53.6646 43.36 58.5713 45.12C63.4779 46.88 67.5579 49.28 70.8113 52.32C74.1179 55.36 76.5713 58.9333 78.1713 63.04C79.8246 67.0933 80.6513 71.4667 80.6513 76.16C80.6513 82.1867 79.5846 87.5467 77.4513 92.24C75.3179 96.9333 72.3846 100.907 68.6513 104.16C64.9713 107.36 60.6513 109.813 55.6913 111.52C50.7313 113.173 45.4246 114 39.7713 114C31.3446 114 23.7979 112.533 17.1313 109.6C10.4646 106.667 4.78458 102.56 0.0912502 97.28L12.2513 82.16C13.7446 83.8133 15.5313 85.36 17.6113 86.8C19.6913 88.24 21.9313 89.4933 24.3313 90.56C26.7313 91.6267 29.2379 92.48 31.8513 93.12C34.4646 93.7067 37.0513 94 39.6113 94C42.7046 94 45.4246 93.5733 47.7713 92.72C50.1179 91.8667 52.0646 90.6933 53.6113 89.2C55.1579 87.7067 56.3046 86 57.0513 84.08C57.8513 82.1067 58.2513 80 58.2513 77.76C58.2513 75.68 57.8779 73.68 57.1313 71.76C56.4379 69.84 55.2113 68.16 53.4513 66.72C51.6913 65.28 49.3446 64.1333 46.4113 63.28C43.4779 62.4267 39.8246 62 35.4513 62H8.81125L10.0113 -7.62939e-06H74.4113V20.08Z" fill="black"/>
</svg>
