<svg width="85" height="114" viewBox="0 0 85 114" fill="none" xmlns="http://www.w3.org/2000/svg">
<path d="M40.3713 38.96C41.1179 38.8533 41.9179 38.7733 42.7713 38.72C43.6779 38.6667 44.6113 38.64 45.5713 38.64C51.2246 38.64 56.4246 39.6 61.1713 41.52C65.9713 43.44 70.0779 46.08 73.4913 49.44C76.9046 52.7467 79.5713 56.6667 81.4913 61.2C83.4113 65.7333 84.3713 70.6133 84.3713 75.84C84.3713 81.3333 83.3046 86.4267 81.1713 91.12C79.0379 95.76 76.0779 99.7867 72.2913 103.2C68.5579 106.56 64.1046 109.2 58.9313 111.12C53.8113 113.04 48.2379 114 42.2113 114C36.2379 114 30.6913 113.067 25.5713 111.2C20.4513 109.28 15.9979 106.64 12.2113 103.28C8.47792 99.92 5.54458 95.9467 3.41125 91.36C1.27792 86.72 0.21125 81.68 0.21125 76.24C0.21125 71.0667 1.11792 66.1067 2.93125 61.36C4.79792 56.6133 7.43792 51.6533 10.8513 46.48L41.8913 -7.62939e-06H67.9713L40.3713 38.96ZM42.2113 57.6C39.4379 57.6 36.8513 58.0533 34.4513 58.96C32.1046 59.8667 30.0513 61.1467 28.2913 62.8C26.5313 64.4 25.1446 66.32 24.1313 68.56C23.1713 70.8 22.6913 73.28 22.6913 76C22.6913 78.72 23.1713 81.2267 24.1313 83.52C25.1446 85.76 26.5313 87.68 28.2913 89.28C30.0513 90.88 32.1046 92.1333 34.4513 93.04C36.8513 93.9467 39.4379 94.4 42.2113 94.4C45.0379 94.4 47.6513 93.9467 50.0513 93.04C52.4513 92.1333 54.5313 90.88 56.2913 89.28C58.0513 87.68 59.4113 85.76 60.3713 83.52C61.3846 81.2267 61.8913 78.72 61.8913 76C61.8913 73.28 61.3846 70.8 60.3713 68.56C59.4113 66.32 58.0513 64.4 56.2913 62.8C54.5313 61.1467 52.4513 59.8667 50.0513 58.96C47.6513 58.0533 45.0379 57.6 42.2113 57.6Z" fill="black"/>
</svg>
