<?xml version="1.0" encoding="utf-8"?>
<!-- Generator: Adobe Illustrator 26.3.1, SVG Export Plug-In . SVG Version: 6.00 Build 0)  -->
<svg version="1.1" id="Layer_1" xmlns="http://www.w3.org/2000/svg" xmlns:xlink="http://www.w3.org/1999/xlink" x="0px" y="0px"
	 viewBox="0 0 432.63 432.63" style="enable-background:new 0 0 432.63 432.63;" xml:space="preserve">
<style type="text/css">
	.st0{fill:#004B85;}
	.st1{fill:url(#SVGID_1_);}
	.st2{fill:#FFFFFF;}
	.st3{fill:#63A522;}
	.st4{fill:url(#SVGID_00000150794557009622305760000007575842924950122415_);}
	.st5{fill:#EBF0F5;}
	.st6{fill:#96B1CD;}
	.st7{fill:url(#SVGID_00000179606298749649676330000014857702510630118820_);}
	.st8{fill:#FFFFFF;stroke:#004B85;stroke-width:5;stroke-miterlimit:10;}
	.st9{fill:#1E5387;}
	.st10{fill:none;stroke:#FFFFFF;stroke-width:5;stroke-miterlimit:10;}
	.st11{fill:url(#SVGID_00000065040689072981604950000009784403745139514020_);}
	.st12{fill:#E5EFD9;}
	.st13{clip-path:url(#SVGID_00000170237578976725623030000000741651221146459068_);fill:#004B85;}
	.st14{clip-path:url(#SVGID_00000170237578976725623030000000741651221146459068_);fill:#FFFFFF;}
	.st15{clip-path:url(#SVGID_00000170237578976725623030000000741651221146459068_);}
	
		.st16{clip-path:url(#SVGID_00000170237578976725623030000000741651221146459068_);fill:url(#SVGID_00000076588323408843791600000013480173445787280310_);}
	.st17{opacity:0.29;}
	.st18{clip-path:url(#SVGID_00000170237578976725623030000000741651221146459068_);fill:#63A522;}
	.st19{fill:#4A80AB;}
	.st20{fill:none;stroke:url(#SVGID_00000099649565259985049700000013772879430114976429_);stroke-width:0.25;stroke-miterlimit:10;}
	.st21{fill:#3575A4;}
	.st22{clip-path:url(#SVGID_00000156576294078769041890000016550045621971486095_);}
	.st23{fill:none;stroke:url(#SVGID_00000021077365308473694430000006499134911957842103_);stroke-width:0.25;stroke-miterlimit:10;}
	.st24{clip-path:url(#SVGID_00000156576294078769041890000016550045621971486095_);fill:#FFFFFF;}
	.st25{fill:none;stroke:#004B85;stroke-miterlimit:10;}
	.st26{opacity:0.5;clip-path:url(#SVGID_00000170237578976725623030000000741651221146459068_);}
	.st27{fill:none;stroke:#FFFFFF;stroke-width:2;stroke-miterlimit:10;}
	.st28{fill:#005C92;}
	.st29{fill:#779BBE;}
	.st30{fill:#E6ECF3;}
	.st31{fill:url(#SVGID_00000009568669004025080510000003084682004188946841_);}
	.st32{opacity:0.24;}
	.st33{fill:#5C8AB2;}
	.st34{fill:#85B652;}
	.st35{fill:#FAC132;}
	.st36{fill:#FDE4AD;}
	.st37{fill:url(#SVGID_00000163051834583211799620000010519338458015266741_);}
	.st38{fill:none;}
	.st39{fill:#696669;}
	.st40{fill:none;stroke:#696669;stroke-miterlimit:10;}
</style>
<g>
	<g>
		<g>
			<path class="st0" d="M394.06,65c-1.67-1.69-4.31-2.55-7.87-2.55c-7.6-0.01-15.19-0.01-22.79-0.01h-18.48
				c-0.91,0-1.79-0.06-2.64-0.11c-0.36-0.02-0.7-0.04-1.04-0.05l-1.91-0.09v-1.91c0-1.37-0.02-2.7-0.04-4
				c-0.05-2.86-0.1-5.57,0.1-8.3c0.44-6.16-1.63-9.83-6.71-11.86H99.99c-5.07,2.03-7.14,5.69-6.72,11.82c0.2,2.8,0.15,5.56,0.1,8.48
				c-0.02,1.31-0.04,2.65-0.04,4.02v2h-5.88c-3.81,0-7.62,0.03-11.43,0.05c-9.06,0.05-18.44,0.1-27.67-0.15
				c-6.26-0.16-9.96,1.74-12.21,6.39v12.94c0.05,0.34,0.1,0.69,0.16,1.03c0.15,0.91,0.3,1.85,0.35,2.84
				c0.72,14.47,2.69,28.79,5.84,42.55c8.49,37.04,23.25,66.38,45.13,89.7c18.61,19.83,39.37,30.66,63.48,33.1
				c2.44,0.25,4.73,1.74,6.22,2.94c2.8,2.27,5.58,4.62,8.27,6.9c3.35,2.83,6.8,5.75,10.28,8.5c2,1.58,3.33,3.3,3.31,6.51
				c-0.08,9.41-0.07,18.97-0.07,28.23c0.01,4.1,0.01,8.21,0,12.31c0,0.83-0.05,1.62-0.12,2.53c-0.03,0.44-0.06,0.91-0.09,1.43
				l-0.11,1.88h-1.89c-2.1,0-4.18-0.03-6.25-0.06c-2.04-0.03-4.03-0.06-6-0.06c-2.36,0-4.69,0.04-7.02,0.18
				c-16.02,0.94-27.13,8.93-33.04,23.74c-1.66,4.15-2.05,9.06-2.42,13.8c-0.07,0.78-0.13,1.55-0.19,2.32
				c-0.3,3.37-0.22,6.88-0.15,10.28c0.03,1.56,0.06,3.12,0.06,4.66v1.81l-1.8,0.19c-5.34,0.53-8.19,2.6-9.26,6.7
				c-0.69,2.69-0.25,5.25,1.26,7.19c1.79,2.31,4.93,3.64,8.64,3.64c52.61,0.01,105.22,0.01,157.83,0.01l33.22-0.01l0.42,0.01
				c0.67,0,1.3,0,1.89-0.05c4.36-0.4,7.56-3.54,7.97-7.81c0.42-4.32-2.08-7.91-6.36-9.13c-0.71-0.21-1.43-0.37-2.2-0.55
				c-0.39-0.09-0.79-0.18-1.2-0.28l-1.53-0.37v-6.53c-0.01-3.66-0.01-7.27,0.01-10.87c0.04-7.93-1.58-14.5-4.95-20.08
				c-7.41-12.26-18.41-18.58-32.69-18.79c-3.95-0.06-7.97-0.04-11.85-0.03c-1.79,0.01-3.57,0.02-5.35,0.02h-1.56l-0.38-1.52
				c-0.07-0.27-0.13-0.48-0.18-0.65c-0.12-0.42-0.24-0.82-0.24-1.31l-0.01-6.51c-0.02-12.33-0.04-25.08,0.07-37.63
				c0.02-2.16,1.94-4.05,2.76-4.76c5.55-4.76,12.15-10.38,19.1-15.98c0.94-0.76,3.43-2.55,6.29-2.82
				c15.32-1.47,29.87-6.84,43.25-15.97c22.03-15.04,39.15-37.02,52.34-67.21c12.35-28.25,18.6-59.24,19.12-94.73
				C396.55,69.38,395.73,66.7,394.06,65z M132.88,228.99c-1.37-0.73-2.76-1.42-4.14-2.12c-3.05-1.53-6.19-3.11-9.15-4.96
				c-13.58-8.51-25.1-20.38-35.24-36.29c-15.45-24.25-24.86-51.52-28.76-83.36c-0.55-4.5-0.96-8.93-1.39-13.62
				c-0.2-2.15-0.4-4.32-0.62-6.52l-0.22-2.19h41.26l0.16,1.83c2.33,27.39,6.49,51.75,12.72,74.46c7.04,25.7,16.22,48.61,28.06,70.03
				l3.24,5.86L132.88,228.99z M271.98,339.41c11.69,0.02,20.36,7.22,21.08,17.52c0.31,4.54,0.24,8.99,0.16,13.7
				c-0.03,2.06-0.07,4.14-0.07,6.25v2H139.54v-2c0-2.12-0.03-4.22-0.06-6.3c-0.08-4.8-0.15-9.33,0.15-13.97
				c0.57-8.56,7.99-16.03,16.9-17c1.27-0.14,2.62-0.2,4.12-0.21h19.49C210.75,339.39,241.37,339.38,271.98,339.41z M196.7,321.81
				v-42.5l2.48,0.61c11.61,2.86,22.85,2.85,34.35-0.04l2.48-0.62v42.55H196.7z M268.82,234.97c-11.49,14.2-23.14,22.85-36.67,27.21
				c-5.37,1.73-10.73,2.6-16.05,2.6c-11.14,0-22.12-3.79-32.8-11.35c-13.71-9.71-25.09-23.34-35.82-42.91
				c-13.81-25.2-23.59-54.1-29.91-88.35c-3.78-20.56-6.01-42.05-6.6-63.89c-0.01-0.56-0.01-1.11-0.01-1.72l0.01-2.9h211l-0.11,2.1
				c-0.12,2.53-0.23,5.05-0.34,7.56c-0.23,5.36-0.47,10.91-0.9,16.34c-2.08,26.32-6.02,49.68-12.04,71.39
				C298.47,187.57,286.21,213.45,268.82,234.97z M379.06,82.12c-0.23,2.37-0.43,4.72-0.64,7.07c-0.44,5.01-0.89,10.19-1.56,15.25
				c-3.53,26.39-10.78,49.42-22.16,70.4c-11.68,21.52-24.83,36.42-41.36,46.87c-4.54,2.87-9.51,5.14-13.82,7.04l-5.53,2.45
				l2.98-5.26c22.77-40.15,35.79-85.97,40.95-144.19l0.16-1.83h41.2L379.06,82.12z"/>
			<path class="st35" d="M293.22,370.63c-0.03,2.06-0.07,4.14-0.07,6.25v2H139.54v-2c0-2.12-0.03-4.22-0.06-6.3
				c-0.08-4.8-0.15-9.33,0.15-13.97c0.57-8.56,7.99-16.03,16.9-17c1.27-0.14,2.62-0.2,4.12-0.21h19.49
				c30.61-0.01,61.23-0.02,91.84,0.01c11.69,0.02,20.36,7.22,21.08,17.52C293.37,361.47,293.3,365.92,293.22,370.63z"/>
			<path class="st35" d="M236.01,279.26v42.55H196.7v-42.5l2.48,0.61c11.61,2.86,22.85,2.85,34.35-0.04L236.01,279.26z"/>
			<path class="st35" d="M379.28,79.92l-0.22,2.2c-0.23,2.37-0.43,4.72-0.64,7.07c-0.44,5.01-0.89,10.19-1.56,15.25
				c-3.53,26.39-10.78,49.42-22.16,70.4c-11.68,21.52-24.83,36.42-41.36,46.87c-4.54,2.87-9.51,5.14-13.82,7.04l-5.53,2.45
				l2.98-5.26c22.77-40.15,35.79-85.97,40.95-144.19l0.16-1.83H379.28z"/>
			<path class="st35" d="M321.97,53.66l-0.11,2.1c-0.12,2.53-0.23,5.05-0.34,7.56c-0.23,5.36-0.47,10.91-0.9,16.34
				c-2.08,26.32-6.02,49.68-12.04,71.39c-10.11,36.52-22.37,62.4-39.76,83.92c-11.49,14.2-23.14,22.85-36.67,27.21
				c-5.37,1.73-10.73,2.6-16.05,2.6c-11.14,0-22.12-3.79-32.8-11.35c-13.71-9.71-25.09-23.34-35.82-42.91
				c-13.81-25.2-23.59-54.1-29.91-88.35c-3.78-20.56-6.01-42.05-6.6-63.89c-0.01-0.56-0.01-1.11-0.01-1.72l0.01-2.9H321.97z"/>
			<path class="st36" d="M293.22,370.63c-0.03,2.06-0.07,4.14-0.07,6.25v2H139.54v-2c0-2.12-0.03-4.22-0.06-6.3
				c-0.06-3.68-0.12-7.2,0-10.73h127.03v-2c0-2.11,0.04-4.19,0.07-6.25c0.07-4.19,0.13-8.17-0.07-12.19h5.47
				c11.69,0.02,20.36,7.22,21.08,17.52C293.37,361.47,293.3,365.92,293.22,370.63z"/>
			<path class="st36" d="M321.97,53.66l-0.11,2.1c-0.12,2.53-0.23,5.05-0.34,7.56c-0.23,5.36-0.47,10.91-0.9,16.34
				c-2.08,26.32-6.02,49.68-12.04,71.39c-10.11,36.52-22.37,62.4-39.76,83.92c-11.49,14.2-23.14,22.85-36.67,27.21
				c-5.37,1.73-10.73,2.6-16.05,2.6c-11.14,0-22.12-3.79-32.8-11.35c-4.81-3.4-9.34-7.29-13.64-11.75
				c6.52,2.71,13.13,4.07,19.8,4.07c5.32,0,10.68-0.87,16.05-2.6c13.53-4.36,25.18-13.01,36.67-27.21
				c17.39-21.52,29.65-47.4,39.76-83.92c6.02-21.71,9.96-45.07,12.04-71.39c0.18-2.31,0.33-4.64,0.45-6.97H321.97z"/>
			<path class="st35" d="M138.8,232.11l-5.92-3.12c-1.37-0.73-2.76-1.42-4.14-2.12c-3.05-1.53-6.19-3.11-9.15-4.96
				c-13.58-8.51-25.1-20.38-35.24-36.29c-15.45-24.25-24.86-51.52-28.76-83.36c-0.55-4.5-0.96-8.93-1.39-13.62
				c-0.2-2.15-0.4-4.32-0.62-6.52l-0.22-2.19h41.26l0.16,1.83c2.33,27.39,6.49,51.75,12.72,74.46c7.04,25.7,16.22,48.61,28.06,70.03
				L138.8,232.11z"/>
		</g>
	</g>
	<polygon class="st2" points="291.66,104.29 334.58,111.36 291.66,118.43 284.58,161.36 277.51,118.43 234.58,111.36 277.51,104.29 
		284.58,61.36 	"/>
</g>
</svg>
