<?xml version="1.0" encoding="utf-8"?>
<!-- Generator: Adobe Illustrator 27.0.0, SVG Export Plug-In . SVG Version: 6.00 Build 0)  -->
<svg version="1.1" id="Layer_1" xmlns="http://www.w3.org/2000/svg" xmlns:xlink="http://www.w3.org/1999/xlink" x="0px" y="0px"
	 viewBox="0 0 74.7 74.7" style="enable-background:new 0 0 74.7 74.7;" xml:space="preserve">
<style type="text/css">
	.st0{clip-path:url(#SVGID_00000130642282739626305040000004639414863228675505_);}
	.st1{fill:#F83384;}
</style>
<path class="st1" d="M37.3,74.7c-5.2,0-10-1-14.6-2.9c-4.5-2-8.5-4.6-11.9-8s-6-7.3-8-11.9S0,42.5,0,37.3s1-10,2.9-14.6
	s4.6-8.5,8-11.9s7.3-6,11.9-8S32.2,0,37.3,0c4,0,7.9,0.6,11.5,1.8c3.6,1.2,6.9,2.8,10,4.9l-5.4,5.5c-2.4-1.5-4.9-2.7-7.6-3.5
	c-2.7-0.8-5.5-1.3-8.5-1.3c-8.3,0-15.3,2.9-21.1,8.7S7.5,29.1,7.5,37.3s2.9,15.3,8.7,21.1s12.9,8.7,21.1,8.7s15.3-2.9,21.1-8.7
	s8.7-12.9,8.7-21.1c0-1.1-0.1-2.2-0.2-3.4c-0.1-1.1-0.3-2.2-0.6-3.3l6.1-6.1c0.7,2,1.2,4,1.6,6.2s0.6,4.3,0.6,6.5
	c0,5.2-1,10-2.9,14.6c-2,4.5-4.6,8.5-8,11.9s-7.3,6-11.9,8C47.4,73.7,42.5,74.7,37.3,74.7z M32.1,54.5L16.2,38.6l5.2-5.2l10.6,10.6
	L69.5,6.6l5.2,5.2L32.1,54.5z"/>
</svg>
