<?xml version="1.0" encoding="utf-8"?>
<!-- Generator: Adobe Illustrator 27.0.0, SVG Export Plug-In . SVG Version: 6.00 Build 0)  -->
<svg version="1.1" id="Capa_1" xmlns="http://www.w3.org/2000/svg" xmlns:xlink="http://www.w3.org/1999/xlink" x="0px" y="0px"
	 viewBox="0 0 613.4 416.9" style="enable-background:new 0 0 613.4 416.9;" xml:space="preserve">
<style type="text/css">
	.st0{fill:#FF671D;}
	.st1{fill:#DE1F27;}
	.st2{fill:#EE9622;}
	.st3{fill:#FF9E18;}
	.st4{fill:#FFFFFF;}
</style>
<g>
	<g>
		<rect x="430.5" y="352.8" class="st0" width="22.7" height="40.9"/>
		<path id="XMLID_00000174582225414330557410000006580378005937785753_" class="st1" d="M432,373.3c0-8.3,3.9-15.7,9.9-20.4
			c-4.4-3.5-10-5.6-16-5.6c-14.3,0-25.9,11.6-25.9,26c0,14.3,11.6,26,25.9,26c6,0,11.6-2.1,16-5.6C435.8,388.9,432,381.6,432,373.3z
			"/>
		<path class="st2" d="M481.3,389.4v-0.8h0.3v-0.2h-0.9v0.2h0.3v0.8H481.3z M483,389.4v-1h-0.3l-0.3,0.7l-0.3-0.7h-0.3v1h0.2v-0.8
			l0.3,0.7h0.2l0.3-0.7v0.8H483z"/>
		<g>
			<path class="st3" d="M485.7,373.3c0,14.4-11.7,26.1-26.1,26.1c-6.1,0-11.7-2.1-16.1-5.6c6.1-4.8,10-12.2,10-20.6
				s-3.9-15.8-10-20.6c4.4-3.5,10-5.6,16.1-5.6C474.1,347.1,485.7,358.8,485.7,373.3z"/>
			<rect x="362.9" y="330.4" class="st4" width="1.7" height="86.5"/>
			<g>
				<path class="st4" d="M134.1,346.9h7.6v7.6h-7.6V346.9z M134.1,362.2h7.6v40.7c0,6.4-4.6,10.6-11,10.6h-3v-7.2h2.2
					c2.6,0,4.3-1.2,4.3-4V362.2z"/>
				<path class="st4" d="M177.7,383.9v-6.2c0-9.7-7.2-15.9-15.6-15.9c-7.3,0-15.6,4.7-15.6,19.5c0,15.5,9,19.2,16.8,19.2
					c5,0,9.9-1.8,13.6-6.1l-5.5-4.7c-2.2,2.3-5.3,3.7-8.2,3.7c-5.2,0-9-3.1-9-9.3L177.7,383.9L177.7,383.9z M154.2,377.7
					c0.2-5.8,3.5-8.8,8-8.8c4.5,0,7.8,3.1,8,8.8H154.2z"/>
				<path class="st4" d="M183.8,350.7h7.6v11.5h5.5v5.8h-5.5v22c0,2.1,0.8,2.8,2.7,2.8h2.8v7.2h-4c-5.3,0-9.2-3.4-9.2-9.3V368h-3.8
					v-5.8h3.8L183.8,350.7L183.8,350.7z"/>
				<path class="st4" d="M221.4,354c5.8,0,8.6,3.5,8.6,7.6c0,4.2-2.8,7.6-8.6,7.6h-11.7V354H221.4z M201.7,400h22.4
					c8,0,14.8-5.9,14.8-15.1c0-5.3-2.8-10.9-8.7-12.2v-0.1c6.2-2.8,7.8-7,7.8-11.4c0-8.4-5.3-14.2-15.7-14.2h-20.6V400L201.7,400z
					 M222.2,376.4c5.9,0,8.7,3.8,8.7,8s-2.7,8-8.7,8h-12.4v-16H222.2z"/>
				<path class="st4" d="M243.2,346.9h7.6v43.3c0,1.7,1,2.6,2.8,2.6h2.6v7.2h-3.4c-5.5,0-9.7-2.4-9.7-9.2L243.2,346.9L243.2,346.9z"
					/>
				<path class="st4" d="M259.5,362.2h7.6v22.5c0,5.2,3.2,8.1,7.5,8.1c4.3,0,7.5-3,7.5-8.1v-22.5h7.6V400h-7.6v-4H282
					c-2.4,3-5.8,4.5-9.8,4.5c-5.9,0-12.7-4.6-12.7-13.1V362.2L259.5,362.2z"/>
				<path class="st4" d="M324.9,383.9v-6.2c0-9.7-7.2-15.9-15.6-15.9c-7.3,0-15.6,4.7-15.6,19.5c0,15.5,9,19.2,16.8,19.2
					c5,0,9.9-1.8,13.6-6.1l-5.5-4.7c-2.2,2.3-5.3,3.7-8.3,3.7c-5.2,0-9-3.1-9-9.3L324.9,383.9L324.9,383.9z M301.4,377.7
					c0.2-5.8,3.5-8.8,8-8.8c4.4,0,7.8,3.1,8,8.8H301.4z"/>
				<path class="st4" d="M324.4,359.1h0.5c0.5,0,1-0.1,1-0.5c0-0.5-0.4-0.5-0.9-0.5h-0.6V359.1z M323.7,357.4h1.5
					c0.9,0,1.3,0.4,1.3,1.2c0,0.8-0.4,1.1-1,1.1l1.1,1.6h-0.8l-1.1-1.6h-0.4v1.5h-0.7L323.7,357.4L323.7,357.4z M325,362.1
					c1.5,0,2.6-1.1,2.6-2.7c0-1.6-1.1-2.7-2.6-2.7s-2.6,1.1-2.6,2.7C322.3,361,323.5,362.1,325,362.1 M325,356.1
					c1.9,0,3.4,1.5,3.4,3.4c0,1.9-1.5,3.4-3.4,3.4c-1.9,0-3.4-1.5-3.4-3.4C321.6,357.6,323.1,356.1,325,356.1"/>
			</g>
		</g>
	</g>
	<g>
		<g>
			<g>
				<path class="st4" d="M196.3,70.4c6.5,2.7,11.8,7.2,16,13.6c4.2,6.4,6.3,13,6.3,20.1c0,14.3-4.6,25.4-13.8,33.3
					c-9.2,7.8-22,11.8-38.3,11.8h-61.2V0h58.6c15,0,27,3.6,35.9,10.7c8.9,7.2,13.4,17.4,13.4,30.8c0,5.7-1.6,11.2-4.7,16.5
					C205.3,63.4,201.3,67.5,196.3,70.4z M164,28h-27.6v31.2h27.2c12.2,0,18.2-5.3,18.2-15.8c0-4.7-1.6-8.5-4.8-11.3
					C173.9,29.4,169.6,28,164,28z M167.3,121c6.6,0,11.6-1.6,14.9-4.7c3.3-3.1,5-7.4,5-12.8c0-5.1-1.7-9.3-5.2-12.5
					c-3.4-3.2-7.9-4.8-13.3-4.8h-32.2V121H167.3z"/>
				<path class="st4" d="M241.5,0h29.8v149h-29.8V0z"/>
				<path class="st4" d="M363.7,43.6h29.8V149h-29.8v-10.9c-6.2,9.3-15.9,14-29,14c-12,0-21.6-3.7-28.6-11.2
					c-7-7.4-10.5-17.6-10.5-30.6V43.6h29.8v63.1c0,13.3,5.6,19.9,16.8,19.9c7,0,12.4-2.3,16-7c3.6-4.7,5.5-10.8,5.5-18.6V43.6z"/>
				<path class="st4" d="M516.4,94.1c0,3.5-0.3,7.2-0.8,11.2h-71.8c2.2,15,10.4,22.5,24.7,22.5c11.9,0,20.4-5.5,25.5-16.4l20.9,19.3
					c-10.7,14.3-26.5,21.5-47.4,21.5c-17,0-30.5-5.1-40.4-15.4c-9.9-10.3-14.9-23.6-14.9-39.9c0-16.6,5.1-30.3,15.2-41.1
					c10.1-10.7,23.1-16.1,38.9-16.1c15,0,27.1,5,36.3,15.1C511.8,64.7,516.4,77.9,516.4,94.1z M465.5,63.9c-12,0-19.2,7-21.5,21.1
					h40.8c0.1-6.4-1.5-11.5-4.8-15.3C476.7,65.8,471.9,63.9,465.5,63.9z"/>
			</g>
			<g>
				<path class="st4" d="M65.2,168.3c11.5,0,22.1,2.6,31.9,7.8c9.8,5.2,17.3,12.6,22.6,22.1l-11.5,8.6c-3.8-8.1-9.5-14.4-17.1-18.8
					c-7.6-4.4-16.1-6.6-25.5-6.6c-14.1,0-26.1,4.7-36,14c-9.9,9.3-14.9,22.3-14.9,38.8c0,16.4,4.9,29.3,14.7,38.7
					c9.8,9.4,21.9,14.1,36.2,14.1c9.6,0,18.2-2.3,25.9-6.8c7.6-4.5,13.3-10.9,16.9-19l11.9,8.4c-5.6,9.4-13.3,16.8-23,22.3
					c-9.7,5.4-20.5,8.2-32.4,8.2c-17.9,0-33.2-6-45.8-18.1c-12.7-12-19-28-19-48c0-19.8,6.4-35.7,19.2-47.7
					C31.9,174.2,47.3,168.3,65.2,168.3z"/>
				<path class="st4" d="M213.3,297.4h-12.2l-4-12.2c-7,9.9-17.8,14.8-32.5,14.8c-8.8,0-16-2.3-21.6-7c-5.6-4.6-8.3-10.7-8.3-18.3
					c0-7.3,2.6-13.2,7.7-17.7c5.2-4.5,12.3-7.5,21.3-9.1c14.7-2.6,23.8-4.8,27.4-6.5c3.6-1.7,5.4-4.9,5.4-9.6c0-5-2.1-8.8-6.2-11.2
					c-4.1-2.4-9.4-3.6-15.8-3.6c-7.2,0-13.2,1.9-17.8,5.7c-4.6,3.8-7,9.2-7,16.3l-12.9-5.2c0.7-8.4,4.6-15.2,11.7-20.5
					c7.1-5.3,15.8-8,26-8c11.2,0,20,2.6,26.4,7.7s9.5,12.4,9.5,21.9V281L213.3,297.4z M167.6,288.6c8.9,0,16-2.6,21.2-7.7
					c5.2-5.2,7.8-11.7,7.8-19.6v-10.5c-0.3,0.3-0.7,0.7-1,0.9c-0.3,0.3-0.8,0.5-1.5,0.8c-0.6,0.2-1.2,0.5-1.7,0.7
					c-0.5,0.2-1.3,0.5-2.3,0.7c-1,0.2-2,0.5-2.8,0.7c-0.9,0.2-2.1,0.5-3.7,0.8c-1.6,0.3-3,0.6-4.3,0.9c-1.3,0.3-3,0.7-5.3,1.1
					c-2.3,0.5-4.4,0.9-6.2,1.2c-11.9,2.2-17.9,7.3-17.9,15.5c0,4.2,1.6,7.7,4.7,10.5C157.8,287.2,162.1,288.6,167.6,288.6z"/>
				<path class="st4" d="M279.9,206.4c1.6,0,3.4,0.2,5.5,0.5v14.6c-2.5-0.6-4.9-0.9-7-0.9c-18.7,0-28,11.1-28,33.4v43.3h-14.1V208
					h14.1v15.5c3.1-6.1,7.4-10.4,12.8-13.1C268.6,207.7,274.1,206.4,279.9,206.4z"/>
				<path class="st4" d="M352.4,220.9h-25.8v51.4c0,6,1.2,9.8,3.5,11.6c2.3,1.8,6.3,2.7,11.8,2.7c2.5,0,5.4-0.3,8.6-1v12.6
					c-2.6,1-6.2,1.5-10.8,1.5c-9.1,0-15.8-2-20.4-6c-4.5-4-6.8-10.5-6.8-19.6v-53.1h-15.6V208h15.6v-22.4l14.1-10.7v33h25.8V220.9z"
					/>
				<path class="st4" d="M453.3,251.1c0,1.4-0.1,3.4-0.3,6.2h-72c0.8,9.6,4,17,9.6,22.3c5.6,5.2,12.7,7.8,21.1,7.8
					c14.3,0,24.1-6.1,29.4-18.2l10.8,9.1c-3.8,7.2-9.3,12.6-16.6,16.2c-7.3,3.6-15.2,5.4-23.8,5.4c-13.5,0-24.4-4.4-32.7-13.2
					c-8.3-8.8-12.5-20.1-12.5-34.1c0-13.5,4.2-24.8,12.5-33.9c8.3-9.1,18.8-13.6,31.4-13.6c13.3,0,23.8,4.2,31.5,12.6
					C449.5,226.1,453.3,237.2,453.3,251.1z M410.2,217.8c-7.5,0-13.9,2.5-19.3,7.4c-5.4,4.9-8.7,11.9-9.8,20.8H438
					c0-8.7-2.6-15.6-7.7-20.6C425.3,220.3,418.6,217.8,410.2,217.8z"/>
				<path class="st4" d="M518.7,206.4c1.6,0,3.4,0.2,5.5,0.5v14.6c-2.5-0.6-4.9-0.9-7-0.9c-18.7,0-28,11.1-28,33.4v43.3H475V208
					h14.1v15.5c3.1-6.1,7.4-10.4,12.8-13.1C507.3,207.7,512.9,206.4,518.7,206.4z"/>
				<path class="st4" d="M613.4,297.4h-12.2l-4-12.2c-7,9.9-17.8,14.8-32.5,14.8c-8.8,0-16-2.3-21.6-7c-5.6-4.6-8.3-10.7-8.3-18.3
					c0-7.3,2.6-13.2,7.7-17.7c5.2-4.5,12.3-7.5,21.3-9.1c14.7-2.6,23.8-4.8,27.4-6.5s5.4-4.9,5.4-9.6c0-5-2.1-8.8-6.2-11.2
					c-4.1-2.4-9.4-3.6-15.8-3.6c-7.2,0-13.2,1.9-17.8,5.7c-4.6,3.8-7,9.2-7,16.3l-12.9-5.2c0.7-8.4,4.6-15.2,11.7-20.5
					c7.1-5.3,15.8-8,26-8c11.2,0,20,2.6,26.4,7.7c6.4,5.1,9.5,12.4,9.5,21.9V281L613.4,297.4z M567.7,288.6c8.9,0,16-2.6,21.2-7.7
					c5.2-5.2,7.8-11.7,7.8-19.6v-10.5c-0.3,0.3-0.7,0.7-1,0.9c-0.3,0.3-0.8,0.5-1.5,0.8c-0.6,0.2-1.2,0.5-1.7,0.7
					c-0.5,0.2-1.3,0.5-2.3,0.7c-1,0.2-2,0.5-2.8,0.7c-0.9,0.2-2.1,0.5-3.7,0.8c-1.6,0.3-3,0.6-4.3,0.9c-1.3,0.3-3,0.7-5.3,1.1
					c-2.3,0.5-4.4,0.9-6.2,1.2c-11.9,2.2-17.9,7.3-17.9,15.5c0,4.2,1.6,7.7,4.7,10.5C557.8,287.2,562.2,288.6,567.7,288.6z"/>
			</g>
		</g>
	</g>
</g>
</svg>
